<svg class="animated" id="freepik_stories-app-development" xmlns="http://www.w3.org/2000/svg" viewBox="0 0 500 500" version="1.1" xmlns:xlink="http://www.w3.org/1999/xlink" xmlns:svgjs="http://svgjs.com/svgjs"><style>svg#freepik_stories-app-development:not(.animated) .animable {opacity: 0;}svg#freepik_stories-app-development.animated #freepik--background-simple--inject-4 {animation: 1.5s Infinite  linear floating;animation-delay: 0s;}svg#freepik_stories-app-development.animated #freepik--Screen--inject-4 {animation: 3s Infinite  linear floating;animation-delay: 0s;}svg#freepik_stories-app-development.animated #freepik--Icons--inject-4 {animation: 1.5s Infinite  linear floating;animation-delay: 0s;}svg#freepik_stories-app-development.animated #freepik--Gears--inject-4 {animation: 6s Infinite  linear floating;animation-delay: 0s;}svg#freepik_stories-app-development.animated #freepik--speech-bubbles--inject-4 {animation: 3s Infinite  linear floating;animation-delay: 0s;}svg#freepik_stories-app-development.animated #freepik--character-1--inject-4 {animation: 3s Infinite  linear wind;animation-delay: 0s;}            @keyframes floating {                0% {                    opacity: 1;                    transform: translateY(0px);                }                50% {                    transform: translateY(-10px);                }                100% {                    opacity: 1;                    transform: translateY(0px);                }            }                    @keyframes wind {                0% {                    transform: rotate( 0deg );                }                25% {                    transform: rotate( 1deg );                }                75% {                    transform: rotate( -1deg );                }            }        </style><g id="freepik--background-simple--inject-4" style="transform-origin: 252.406px 230.838px 0px;" class="animable"><path d="M223.37,181.62c-16.76,7.14-53.26-12.19-70.93-16.59-44.59-11.1-96.45,7.63-92,70,6,85.25,131.88,178.94,263.45,134.09,66.46-22.66,120.88-86,120.75-162C444.36,69.1,313.47,64.42,272.34,99,233.82,131.46,245.45,172.21,223.37,181.62Z" style="fill: rgb(26, 63, 153); transform-origin: 252.406px 230.838px 0px;" id="el03mmpn3hr3ij" class="animable"></path><g id="el3nfyainoly8"><path d="M223.37,181.62c-16.76,7.14-53.26-12.19-70.93-16.59-44.59-11.1-96.45,7.63-92,70,6,85.25,131.88,178.94,263.45,134.09,66.46-22.66,120.88-86,120.75-162C444.36,69.1,313.47,64.42,272.34,99,233.82,131.46,245.45,172.21,223.37,181.62Z" style="fill: rgb(255, 255, 255); opacity: 0.9; transform-origin: 252.406px 230.838px 0px;" class="animable"></path></g></g><g id="freepik--Shadow--inject-4" style="transform-origin: 245.18px 412.39px 0px;" class="animable"><ellipse id="freepik--path--inject-4" cx="245.18" cy="412.39" rx="193.89" ry="11.32" style="fill: rgb(245, 245, 245); transform-origin: 245.18px 412.39px 0px;" class="animable"></ellipse></g><g id="freepik--Screen--inject-4" style="transform-origin: 235.604px 244.395px 0px;" class="animable"><path d="M292.65,119.64h-24a3.5,3.5,0,0,0-3.34,2.73l-.16.75a8.5,8.5,0,0,1-8.14,6.65h-22.8a6.85,6.85,0,0,1-7-6.65l0-.75a2.8,2.8,0,0,0-2.86-2.73h-24a16.12,16.12,0,0,0-15.75,14.48L165.34,354.66a13.06,13.06,0,0,0,13.21,14.49h92.27a16.13,16.13,0,0,0,15.75-14.49l19.3-220.54A13.06,13.06,0,0,0,292.65,119.64Z" style="fill: rgb(26, 63, 153); transform-origin: 235.604px 244.395px 0px;" id="el4p5thyuexi7" class="animable"></path><g id="el8odvpzns4ph"><path d="M292.65,119.64h-24a3.5,3.5,0,0,0-3.34,2.73l-.16.75a8.5,8.5,0,0,1-8.14,6.65h-22.8a6.85,6.85,0,0,1-7-6.65l0-.75a2.8,2.8,0,0,0-2.86-2.73h-24a16.12,16.12,0,0,0-15.75,14.48L165.34,354.66a13.06,13.06,0,0,0,13.21,14.49h92.27a16.13,16.13,0,0,0,15.75-14.49l19.3-220.54A13.06,13.06,0,0,0,292.65,119.64Z" style="fill: rgb(255, 255, 255); opacity: 0.7; transform-origin: 235.604px 244.395px 0px;" class="animable"></path></g><path d="M283.3,221.08h-49a2.91,2.91,0,0,1-2.94-3.22l3.69-42.19a3.58,3.58,0,0,1,3.5-3.22h49a2.9,2.9,0,0,1,2.94,3.22l-3.69,42.19A3.59,3.59,0,0,1,283.3,221.08Z" style="fill: rgb(255, 255, 255); transform-origin: 260.926px 196.765px 0px;" id="elg3z8owoakom" class="animable"></path><path d="M267,353H185a7.21,7.21,0,0,1-7.3-8h0a8.91,8.91,0,0,1,8.7-8h82a7.21,7.21,0,0,1,7.3,8h0A8.9,8.9,0,0,1,267,353Z" style="fill: rgb(255, 255, 255); transform-origin: 226.7px 345px 0px;" id="elp9qg2gehfej" class="animable"></path><path d="M273.53,160.85H198.3a4,4,0,0,1-4.09-4.49l.61-7a5,5,0,0,1,4.88-4.48h75.23a4.05,4.05,0,0,1,4.1,4.48l-.62,7A5,5,0,0,1,273.53,160.85Z" style="fill: rgb(255, 255, 255); transform-origin: 236.616px 152.866px 0px;" id="ellpt2di14hm" class="animable"></path><path d="M288.83,149.12a1.39,1.39,0,0,1-1.36,1.25,1.13,1.13,0,0,1-1.14-1.25,1.38,1.38,0,0,1,1.36-1.24A1.12,1.12,0,0,1,288.83,149.12Z" style="fill: rgb(255, 255, 255); transform-origin: 287.58px 149.125px 0px;" id="elax5fx6uuz94" class="animable"></path><path d="M288.5,152.86a1.38,1.38,0,0,1-1.35,1.25,1.13,1.13,0,0,1-1.14-1.25,1.38,1.38,0,0,1,1.35-1.25A1.13,1.13,0,0,1,288.5,152.86Z" style="fill: rgb(255, 255, 255); transform-origin: 287.255px 152.86px 0px;" id="el8v2br501w3s" class="animable"></path><path d="M288.18,156.59a1.39,1.39,0,0,1-1.36,1.25,1.13,1.13,0,0,1-1.14-1.25,1.39,1.39,0,0,1,1.36-1.25A1.13,1.13,0,0,1,288.18,156.59Z" style="fill: rgb(255, 255, 255); transform-origin: 286.93px 156.59px 0px;" id="el91svzhywlzi" class="animable"></path><path d="M277.21,290.68H185.68a2.9,2.9,0,0,1-2.94-3.22L187,239.31a3.58,3.58,0,0,1,3.5-3.22H282a2.9,2.9,0,0,1,2.93,3.22l-4.21,48.15A3.58,3.58,0,0,1,277.21,290.68Z" style="fill: rgb(255, 255, 255); transform-origin: 233.835px 263.385px 0px;" id="el6etaq4584y" class="animable"></path><path d="M210.86,300.74h-28.5a.7.7,0,0,1-.71-.78h0a.87.87,0,0,1,.85-.79H211a.7.7,0,0,1,.71.79h0A.87.87,0,0,1,210.86,300.74Z" style="fill: rgb(255, 255, 255); transform-origin: 196.681px 299.955px 0px;" id="el6clru1919nn" class="animable"></path><path d="M246.48,300.74H215.89a.7.7,0,0,1-.72-.78h0a.87.87,0,0,1,.85-.79h30.6a.7.7,0,0,1,.71.79h0A.87.87,0,0,1,246.48,300.74Z" style="fill: rgb(255, 255, 255); transform-origin: 231.251px 299.955px 0px;" id="elba21n28pb8k" class="animable"></path><path d="M201,307.69H181.76a.71.71,0,0,1-.72-.79h0a.88.88,0,0,1,.85-.79h19.28a.72.72,0,0,1,.72.79h0A.88.88,0,0,1,201,307.69Z" style="fill: rgb(255, 255, 255); transform-origin: 191.464px 306.9px 0px;" id="elrkm1zkrh4wk" class="animable"></path><path d="M237.64,307.69H206.06a.71.71,0,0,1-.72-.79h0a.88.88,0,0,1,.86-.79h31.57a.71.71,0,0,1,.72.79h0A.87.87,0,0,1,237.64,307.69Z" style="fill: rgb(255, 255, 255); transform-origin: 221.915px 306.9px 0px;" id="el61utipb1726" class="animable"></path><path d="M232.54,314.63H181.15a.7.7,0,0,1-.72-.78h0a.88.88,0,0,1,.86-.79h51.39a.72.72,0,0,1,.72.79h0A.88.88,0,0,1,232.54,314.63Z" style="fill: rgb(255, 255, 255); transform-origin: 206.914px 313.845px 0px;" id="el415o3pyplda" class="animable"></path><path d="M241,314.63h-3.39a.7.7,0,0,1-.72-.78h0a.87.87,0,0,1,.85-.79h3.4a.7.7,0,0,1,.71.79h0A.87.87,0,0,1,241,314.63Z" style="fill: rgb(255, 255, 255); transform-origin: 239.371px 313.845px 0px;" id="eluainbeg4xj" class="animable"></path><path d="M204.53,321.58h-24a.72.72,0,0,1-.72-.79h0a.88.88,0,0,1,.86-.79h24a.71.71,0,0,1,.72.79h0A.88.88,0,0,1,204.53,321.58Z" style="fill: rgb(255, 255, 255); transform-origin: 192.601px 320.79px 0px;" id="elfg6eiz3r9lp" class="animable"></path><path d="M239.44,321.58H209.56a.72.72,0,0,1-.72-.79h0a.88.88,0,0,1,.86-.79h29.87a.71.71,0,0,1,.72.79h0A.88.88,0,0,1,239.44,321.58Z" style="fill: rgb(255, 255, 255); transform-origin: 224.566px 320.79px 0px;" id="ely8yi3ujijdm" class="animable"></path><path d="M209.48,328.52H179.93a.7.7,0,0,1-.71-.79h0a.87.87,0,0,1,.85-.78h29.54a.7.7,0,0,1,.72.78h0A.87.87,0,0,1,209.48,328.52Z" style="fill: rgb(255, 255, 255); transform-origin: 194.774px 327.735px 0px;" id="el9gnj12uiqoq" class="animable"></path><path d="M238.3,328.52H214.5a.7.7,0,0,1-.71-.79h0a.87.87,0,0,1,.85-.78h23.8a.7.7,0,0,1,.72.78h0A.88.88,0,0,1,238.3,328.52Z" style="fill: rgb(255, 255, 255); transform-origin: 226.474px 327.735px 0px;" id="elzf8hnxh3isb" class="animable"></path><path d="M282.14,217.08a1,1,0,0,1-1.42.09l-40.93-39.06a1,1,0,0,1,0-1.41h0a1,1,0,0,1,1.42-.09l40.93,39.06a1,1,0,0,1,0,1.41Z" style="fill: rgb(26, 63, 153); transform-origin: 260.965px 196.89px 0px;" id="elabz8uifvwxl" class="animable"></path><path d="M236.17,217.07h0a1,1,0,0,1,.21-1.42l20.88-17.07a1,1,0,0,1,1.4.09h0a1,1,0,0,1-.21,1.41l-20.88,17.08A1,1,0,0,1,236.17,217.07Z" style="fill: rgb(26, 63, 153); transform-origin: 247.413px 207.87px 0px;" id="el3pzkozomeef" class="animable"></path><path d="M263.15,195h0a1,1,0,0,1,.21-1.41l20.92-17.1a1,1,0,0,1,1.4.09h0a1,1,0,0,1-.21,1.41l-20.92,17.1A1,1,0,0,1,263.15,195Z" style="fill: rgb(26, 63, 153); transform-origin: 274.415px 185.79px 0px;" id="elhcd20zmbgc" class="animable"></path><g id="el7z1k303xnde"><g style="opacity: 0.7; transform-origin: 260.965px 196.89px 0px;" class="animable"><path d="M282.14,217.08a1,1,0,0,1-1.42.09l-40.93-39.06a1,1,0,0,1,0-1.41h0a1,1,0,0,1,1.42-.09l40.93,39.06a1,1,0,0,1,0,1.41Z" style="fill: rgb(255, 255, 255); transform-origin: 260.965px 196.89px 0px;" id="ellovdn8f3flb" class="animable"></path></g></g><g id="eluszsuje4nf"><g style="opacity: 0.7; transform-origin: 247.413px 207.87px 0px;" class="animable"><path d="M236.17,217.07h0a1,1,0,0,1,.21-1.42l20.88-17.07a1,1,0,0,1,1.4.09h0a1,1,0,0,1-.21,1.41l-20.88,17.08A1,1,0,0,1,236.17,217.07Z" style="fill: rgb(255, 255, 255); transform-origin: 247.413px 207.87px 0px;" id="ele3zqlrda5d" class="animable"></path></g></g><g id="eljh4llfgih6d"><g style="opacity: 0.7; transform-origin: 274.415px 185.79px 0px;" class="animable"><path d="M263.15,195h0a1,1,0,0,1,.21-1.41l20.92-17.1a1,1,0,0,1,1.4.09h0a1,1,0,0,1-.21,1.41l-20.92,17.1A1,1,0,0,1,263.15,195Z" style="fill: rgb(255, 255, 255); transform-origin: 274.415px 185.79px 0px;" id="elfgh0hxbqip7" class="animable"></path></g></g></g><g id="freepik--Icons--inject-4" style="transform-origin: 226.475px 152.805px 0px;" class="animable"><path d="M165.74,114.84h-13A4.76,4.76,0,0,0,148,119.6v13a4.76,4.76,0,0,0,4.76,4.76h13a4.76,4.76,0,0,0,4.76-4.76v-13A4.76,4.76,0,0,0,165.74,114.84Zm-6.47,4.6c1.95,0,3,1.59,3,3.54s-1.05,3.54-3,3.54-3-1.58-3-3.54S157.31,119.44,159.27,119.44Zm7.81,13.27H151.45a.48.48,0,0,1-.34-.14l1-2.73a4.46,4.46,0,0,1,4.19-2.94h5.91a4.47,4.47,0,0,1,4.2,2.94l1,2.73A.46.46,0,0,1,167.08,132.71Z" style="fill: rgb(26, 63, 153); transform-origin: 159.26px 126.1px 0px;" id="el32sxf6ep9d9" class="animable"></path><g id="el3d9xv5lmuhb"><path d="M165.74,114.84h-13A4.76,4.76,0,0,0,148,119.6v13a4.76,4.76,0,0,0,4.76,4.76h13a4.76,4.76,0,0,0,4.76-4.76v-13A4.76,4.76,0,0,0,165.74,114.84Zm-6.47,4.6c1.95,0,3,1.59,3,3.54s-1.05,3.54-3,3.54-3-1.58-3-3.54S157.31,119.44,159.27,119.44Zm7.81,13.27H151.45a.48.48,0,0,1-.34-.14l1-2.73a4.46,4.46,0,0,1,4.19-2.94h5.91a4.47,4.47,0,0,1,4.2,2.94l1,2.73A.46.46,0,0,1,167.08,132.71Z" style="fill: rgb(255, 255, 255); opacity: 0.7; transform-origin: 159.26px 126.1px 0px;" class="animable"></path></g><path d="M119.66,168.12h-9.84a6.4,6.4,0,0,0-6.41,6.4v9.84a6.41,6.41,0,0,0,6.41,6.41h9.84a6.4,6.4,0,0,0,6.4-6.41v-9.84A6.39,6.39,0,0,0,119.66,168.12Zm-4.92,16.69s-4-4.39-4-6.63a4,4,0,0,1,8.09,0C118.78,180.42,114.74,184.81,114.74,184.81Z" style="fill: rgb(26, 63, 153); transform-origin: 114.735px 179.445px 0px;" id="elc9kksfb8rpp" class="animable"></path><path d="M114.74,176.34a1.85,1.85,0,1,0,1.84,1.84A1.84,1.84,0,0,0,114.74,176.34Z" style="fill: rgb(26, 63, 153); transform-origin: 114.73px 178.19px 0px;" id="el7tvrh3fgak" class="animable"></path><g id="ela4yi0t5j6vc"><g style="opacity: 0.7; transform-origin: 114.735px 179.445px 0px;" class="animable"><path d="M119.66,168.12h-9.84a6.4,6.4,0,0,0-6.41,6.4v9.84a6.41,6.41,0,0,0,6.41,6.41h9.84a6.4,6.4,0,0,0,6.4-6.41v-9.84A6.39,6.39,0,0,0,119.66,168.12Zm-4.92,16.69s-4-4.39-4-6.63a4,4,0,0,1,8.09,0C118.78,180.42,114.74,184.81,114.74,184.81Z" style="fill: rgb(255, 255, 255); transform-origin: 114.735px 179.445px 0px;" id="elxf67edj8as" class="animable"></path><path d="M114.74,176.34a1.85,1.85,0,1,0,1.84,1.84A1.84,1.84,0,0,0,114.74,176.34Z" style="fill: rgb(255, 255, 255); transform-origin: 114.73px 178.19px 0px;" id="elwrxd9us2f1" class="animable"></path></g></g><polygon points="335.7 140.23 342.29 135.97 335.7 131.7 335.7 140.23" style="fill: rgb(26, 63, 153); transform-origin: 338.995px 135.965px 0px;" id="eljyeuy8gqefa" class="animable"></polygon><path d="M344.19,124.34H331.63a5.35,5.35,0,0,0-5.35,5.35v12.56a5.36,5.36,0,0,0,5.35,5.35h12.56a5.35,5.35,0,0,0,5.35-5.35V129.69A5.34,5.34,0,0,0,344.19,124.34Zm-6.28,20a8.37,8.37,0,1,1,8.37-8.36A8.36,8.36,0,0,1,337.91,144.33Z" style="fill: rgb(26, 63, 153); transform-origin: 337.91px 135.97px 0px;" id="elurdd7lqhx4" class="animable"></path><g id="elf7v9kk9kgcn"><g style="opacity: 0.7; transform-origin: 337.91px 135.97px 0px;" class="animable"><polygon points="335.7 140.23 342.29 135.97 335.7 131.7 335.7 140.23" style="fill: rgb(255, 255, 255); transform-origin: 338.995px 135.965px 0px;" id="el03bplh5r2kha" class="animable"></polygon><path d="M344.19,124.34H331.63a5.35,5.35,0,0,0-5.35,5.35v12.56a5.36,5.36,0,0,0,5.35,5.35h12.56a5.35,5.35,0,0,0,5.35-5.35V129.69A5.34,5.34,0,0,0,344.19,124.34Zm-6.28,20a8.37,8.37,0,1,1,8.37-8.36A8.36,8.36,0,0,1,337.91,144.33Z" style="fill: rgb(255, 255, 255); transform-origin: 337.91px 135.97px 0px;" id="elw7e3ebwkww9" class="animable"></path></g></g></g><g id="freepik--Gears--inject-4" style="transform-origin: 331.745px 189.885px 0px;" class="animable"><path d="M356.52,172.51c0-.26,0-.52,0-.77l1.51-.84a9.92,9.92,0,0,0-.56-2.09l-1.72,0a8.52,8.52,0,0,0-.78-1.34l.89-1.47a10.61,10.61,0,0,0-1.53-1.54l-1.48.89a8.84,8.84,0,0,0-1.33-.77l0-1.73a10.89,10.89,0,0,0-2.09-.56l-.84,1.51c-.25,0-.51,0-.77,0s-.51,0-.77,0l-.84-1.51a11.29,11.29,0,0,0-2.09.56l0,1.73a8.37,8.37,0,0,0-1.33.77l-1.48-.89a10.19,10.19,0,0,0-1.54,1.54l.89,1.47a9.32,9.32,0,0,0-.77,1.34l-1.72,0a10.58,10.58,0,0,0-.57,2.09l1.51.84c0,.25,0,.51,0,.77s0,.52,0,.77l-1.51.84a10.4,10.4,0,0,0,.57,2.09l1.72,0a9.32,9.32,0,0,0,.77,1.34l-.89,1.48a10.61,10.61,0,0,0,1.54,1.53l1.48-.89a7.67,7.67,0,0,0,1.33.77l0,1.73a10.56,10.56,0,0,0,2.09.56l.84-1.51c.26,0,.51,0,.77,0s.52,0,.77,0l.84,1.51a10.2,10.2,0,0,0,2.09-.56l0-1.73a8.06,8.06,0,0,0,1.33-.77l1.48.89a11.06,11.06,0,0,0,1.53-1.53l-.89-1.48a8.52,8.52,0,0,0,.78-1.34l1.72,0a9.76,9.76,0,0,0,.56-2.09l-1.51-.84C356.5,173,356.52,172.77,356.52,172.51Zm-8.72,5.92a5.92,5.92,0,1,1,5.92-5.92A5.92,5.92,0,0,1,347.8,178.43Z" style="fill: rgb(26, 63, 153); transform-origin: 347.815px 172.51px 0px;" id="elg47txr1fnlb" class="animable"></path><g id="el8goql1nbhml"><path d="M356.52,172.51c0-.26,0-.52,0-.77l1.51-.84a9.92,9.92,0,0,0-.56-2.09l-1.72,0a8.52,8.52,0,0,0-.78-1.34l.89-1.47a10.61,10.61,0,0,0-1.53-1.54l-1.48.89a8.84,8.84,0,0,0-1.33-.77l0-1.73a10.89,10.89,0,0,0-2.09-.56l-.84,1.51c-.25,0-.51,0-.77,0s-.51,0-.77,0l-.84-1.51a11.29,11.29,0,0,0-2.09.56l0,1.73a8.37,8.37,0,0,0-1.33.77l-1.48-.89a10.19,10.19,0,0,0-1.54,1.54l.89,1.47a9.32,9.32,0,0,0-.77,1.34l-1.72,0a10.58,10.58,0,0,0-.57,2.09l1.51.84c0,.25,0,.51,0,.77s0,.52,0,.77l-1.51.84a10.4,10.4,0,0,0,.57,2.09l1.72,0a9.32,9.32,0,0,0,.77,1.34l-.89,1.48a10.61,10.61,0,0,0,1.54,1.53l1.48-.89a7.67,7.67,0,0,0,1.33.77l0,1.73a10.56,10.56,0,0,0,2.09.56l.84-1.51c.26,0,.51,0,.77,0s.52,0,.77,0l.84,1.51a10.2,10.2,0,0,0,2.09-.56l0-1.73a8.06,8.06,0,0,0,1.33-.77l1.48.89a11.06,11.06,0,0,0,1.53-1.53l-.89-1.48a8.52,8.52,0,0,0,.78-1.34l1.72,0a9.76,9.76,0,0,0,.56-2.09l-1.51-.84C356.5,173,356.52,172.77,356.52,172.51Zm-8.72,5.92a5.92,5.92,0,1,1,5.92-5.92A5.92,5.92,0,0,1,347.8,178.43Z" style="fill: rgb(255, 255, 255); opacity: 0.7; transform-origin: 347.815px 172.51px 0px;" class="animable"></path></g><path d="M333.73,202.24c0-.39,0-.77-.05-1.15l2.26-1.25a15.62,15.62,0,0,0-.84-3.14l-2.58.05a12.85,12.85,0,0,0-1.16-2l1.33-2.21a15.49,15.49,0,0,0-2.29-2.29l-2.21,1.32a13.65,13.65,0,0,0-2-1.15l0-2.58a15.35,15.35,0,0,0-3.13-.84l-1.25,2.26c-.38,0-.76,0-1.15,0s-.77,0-1.15,0L318.29,187a15.7,15.7,0,0,0-3.13.84l0,2.58a13.54,13.54,0,0,0-2,1.15L311,190.25a15.56,15.56,0,0,0-2.3,2.29l1.33,2.21a12.8,12.8,0,0,0-1.15,2l-2.58-.05a15,15,0,0,0-.84,3.14l2.26,1.25a11.05,11.05,0,0,0,0,2.3l-2.26,1.26a15.05,15.05,0,0,0,.84,3.13l2.58-.05a12.36,12.36,0,0,0,1.15,2l-1.33,2.21a15.56,15.56,0,0,0,2.3,2.29l2.21-1.32a12.7,12.7,0,0,0,2,1.15l0,2.58a15.05,15.05,0,0,0,3.13.84l1.26-2.26a11.05,11.05,0,0,0,2.3,0l1.25,2.26a14.73,14.73,0,0,0,3.13-.84l0-2.58a12.8,12.8,0,0,0,2-1.15l2.21,1.32a15.49,15.49,0,0,0,2.29-2.29l-1.33-2.21a12.41,12.41,0,0,0,1.16-2l2.58.05a15.7,15.7,0,0,0,.84-3.13l-2.26-1.26C333.71,203,333.73,202.63,333.73,202.24Zm-13,5.14a5.14,5.14,0,1,1,5.14-5.14A5.14,5.14,0,0,1,320.7,207.38Z" style="fill: rgb(26, 63, 153); transform-origin: 320.745px 202.24px 0px;" id="el77im13ynz6w" class="animable"></path><g id="eli7li4vewl88"><path d="M333.73,202.24c0-.39,0-.77-.05-1.15l2.26-1.25a15.62,15.62,0,0,0-.84-3.14l-2.58.05a12.85,12.85,0,0,0-1.16-2l1.33-2.21a15.49,15.49,0,0,0-2.29-2.29l-2.21,1.32a13.65,13.65,0,0,0-2-1.15l0-2.58a15.35,15.35,0,0,0-3.13-.84l-1.25,2.26c-.38,0-.76,0-1.15,0s-.77,0-1.15,0L318.29,187a15.7,15.7,0,0,0-3.13.84l0,2.58a13.54,13.54,0,0,0-2,1.15L311,190.25a15.56,15.56,0,0,0-2.3,2.29l1.33,2.21a12.8,12.8,0,0,0-1.15,2l-2.58-.05a15,15,0,0,0-.84,3.14l2.26,1.25a11.05,11.05,0,0,0,0,2.3l-2.26,1.26a15.05,15.05,0,0,0,.84,3.13l2.58-.05a12.36,12.36,0,0,0,1.15,2l-1.33,2.21a15.56,15.56,0,0,0,2.3,2.29l2.21-1.32a12.7,12.7,0,0,0,2,1.15l0,2.58a15.05,15.05,0,0,0,3.13.84l1.26-2.26a11.05,11.05,0,0,0,2.3,0l1.25,2.26a14.73,14.73,0,0,0,3.13-.84l0-2.58a12.8,12.8,0,0,0,2-1.15l2.21,1.32a15.49,15.49,0,0,0,2.29-2.29l-1.33-2.21a12.41,12.41,0,0,0,1.16-2l2.58.05a15.7,15.7,0,0,0,.84-3.13l-2.26-1.26C333.71,203,333.73,202.63,333.73,202.24Zm-13,5.14a5.14,5.14,0,1,1,5.14-5.14A5.14,5.14,0,0,1,320.7,207.38Z" style="fill: rgb(255, 255, 255); opacity: 0.7; transform-origin: 320.745px 202.24px 0px;" class="animable"></path></g></g><g id="freepik--speech-bubbles--inject-4" style="transform-origin: 255.97px 250.415px 0px;" class="animable"><path d="M297,144.26v5.24l-5,2.63a1.22,1.22,0,0,0,0,2.15l5,2.63v5.24a2.11,2.11,0,0,0,2.11,2.11H317a2.12,2.12,0,0,0,2.12-2.11V144.26a2.12,2.12,0,0,0-2.12-2.12H299.08A2.11,2.11,0,0,0,297,144.26Z" style="fill: rgb(26, 63, 153); transform-origin: 305.238px 153.2px 0px;" id="elvep7xg2a7pq" class="animable"></path><g id="el7vc3buwi6fg"><g style="opacity: 0.9; transform-origin: 308.205px 153.205px 0px;" class="animable"><path d="M303.12,149.72h10.17a1.25,1.25,0,0,0,0-2.5H303.12a1.25,1.25,0,0,0,0,2.5Z" style="fill: rgb(255, 255, 255); transform-origin: 308.205px 148.47px 0px;" id="el31wwdbynvan" class="animable"></path><path d="M313.29,152H303.12a1.25,1.25,0,0,0,0,2.5h10.17a1.25,1.25,0,0,0,0-2.5Z" style="fill: rgb(255, 255, 255); transform-origin: 308.205px 153.25px 0px;" id="el7kh3oi9pwvv" class="animable"></path><path d="M313.29,156.69H303.12a1.25,1.25,0,0,0,0,2.5h10.17a1.25,1.25,0,0,0,0-2.5Z" style="fill: rgb(255, 255, 255); transform-origin: 308.205px 157.94px 0px;" id="elnqxo50lbvzp" class="animable"></path></g></g><path d="M195.9,136h4.27l2.2,4.17a1.7,1.7,0,0,0,3,0l2.2-4.17h4.27a3.08,3.08,0,0,0,3.08-3.09V117a3.08,3.08,0,0,0-3.08-3.08H195.9a3.07,3.07,0,0,0-3.08,3.08V133A3.08,3.08,0,0,0,195.9,136Z" style="fill: rgb(26, 63, 153); transform-origin: 203.87px 127.495px 0px;" id="elj9pzys668wb" class="animable"></path><g id="elni7om4bwvtn"><polygon points="203.88 118.69 198.96 121.57 198.96 129.99 202.62 129.99 202.62 124.34 205.15 124.34 205.15 129.99 208.81 129.99 208.81 121.57 203.88 118.69" style="fill: rgb(255, 255, 255); opacity: 0.9; transform-origin: 203.885px 124.34px 0px;" class="animable"></polygon></g><path d="M243.8,364.79H240l-2.45-4.66a1.42,1.42,0,0,0-2.5,0l-2.45,4.66H228.7a3.51,3.51,0,0,0-3.51,3.51v15.1a3.51,3.51,0,0,0,3.51,3.51h15.1a3.51,3.51,0,0,0,3.51-3.51V368.3A3.51,3.51,0,0,0,243.8,364.79Z" style="fill: rgb(26, 63, 153); transform-origin: 236.25px 373.147px 0px;" id="elrw8c8u93nd" class="animable"></path><g id="el8aq0l0akho4"><path d="M238.39,370.56a5.46,5.46,0,1,0-.77,8.36,1.26,1.26,0,0,0,.33.66l3.4,3.39a1.22,1.22,0,0,0,1.73-1.73l-3.39-3.39a1.23,1.23,0,0,0-.67-.34A5.48,5.48,0,0,0,238.39,370.56Zm-1.16,6.57a3.83,3.83,0,1,1,0-5.42A3.83,3.83,0,0,1,237.23,377.13Z" style="fill: rgb(255, 255, 255); opacity: 0.9; transform-origin: 236.253px 376.144px 0px;" class="animable"></path></g></g><g id="freepik--character-2--inject-4" style="transform-origin: 354.94px 302.462px 0px;" class="animable"><path d="M405.29,264.23s-8.15,20.2-16.13,22.38-20,.41-20,.41l-3.72,1-3.65-.54h-.13l-4.11-.1a.78.78,0,0,1-.7-1.23l1.47-2a1,1,0,0,1,.49-.35l3.92-1.26a1.08,1.08,0,0,1,.47,0l6,.95s16.65-2.73,18.35-4.27,6.71-17.69,6.71-17.69Z" style="fill: rgb(238, 193, 187); transform-origin: 380.998px 274.775px 0px;" id="elsnpcacv7mx" class="animable"></path><g id="elad36boltq1w"><path d="M369.57,283.36l-.39.06-6-.95a1.08,1.08,0,0,0-.47,0l-3.92,1.26a1,1,0,0,0-.49.35l-1.47,2a.78.78,0,0,0,.7,1.23l4.11.1h.13l2.45.36A15.7,15.7,0,0,0,369.57,283.36Z" style="opacity: 0.1; transform-origin: 363.128px 285.107px 0px;" class="animable"></path></g><path d="M410.21,244.22c-5.92-1.94-14.25,2.51-17.44,21.15L405.06,269S418.67,247,410.21,244.22Z" style="fill: rgb(26, 63, 153); transform-origin: 402.876px 256.401px 0px;" id="eleu6lhrnv7il" class="animable"></path><path d="M375.77,219.86c0,.62.33,1.11.73,1.11s.75-.53.72-1.13-.33-1.1-.73-1.09S375.77,219.25,375.77,219.86Z" style="fill: rgb(38, 50, 56); transform-origin: 376.496px 219.86px 0px;" id="eltr9qecuh52f" class="animable"></path><path d="M378.19,220.47l-2.91,4.81s1,1.14,3.19.3Z" style="fill: rgb(212, 130, 125); transform-origin: 376.875px 223.179px 0px;" id="elqhyfkr5yww8" class="animable"></path><path d="M378.74,216a.31.31,0,0,1-.29.1,2.51,2.51,0,0,0-2.19.69.33.33,0,0,1-.45,0,.34.34,0,0,1,0-.46,3.11,3.11,0,0,1,2.76-.89.32.32,0,0,1,.28.36h0A.38.38,0,0,1,378.74,216Z" style="fill: rgb(38, 50, 56); transform-origin: 377.287px 216.136px 0px;" id="elfbfoo9kiyyt" class="animable"></path><path d="M399.3,215.5c.45,8.13.82,11.57-2.77,16.19-5.73,4.95-15.49,5.74-18.37-2.09-2.59-7-2.89-19.13,4.63-23.32a11.11,11.11,0,0,1,15.12,4.31A11.29,11.29,0,0,1,399.3,215.5Z" style="fill: rgb(238, 193, 187); transform-origin: 388.041px 220.162px 0px;" id="elxhix8i14jl" class="animable"></path><polygon points="387.97 233.29 390.03 245.34 400.07 243.02 396.56 230.72 387.97 233.29" style="fill: rgb(238, 193, 187); transform-origin: 394.02px 238.03px 0px;" id="el4l1t16cbuqo" class="animable"></polygon><path d="M380.74,216.1c.51-5.28-1.31.82-3.75-6.15s9.09-12.63,10.93-11.33.79,3.29,6.89,4.42a6.93,6.93,0,0,1,5.84,7.05s3.51,1.62,2.26,9.16a30.9,30.9,0,0,1-6,13.25s-2.31-2.38-6-.19a11.85,11.85,0,0,1-3.57-3.64c-1.64-2.46-2.15-4.8-4.4-5C378.24,223.24,380.57,217.84,380.74,216.1Z" style="fill: rgb(38, 50, 56); transform-origin: 389.916px 215.467px 0px;" id="elqi2bb43cnp" class="animable"></path><path d="M400,211s5-3.06,2.78-6.27S401.63,208.27,400,211Z" style="fill: rgb(38, 50, 56); transform-origin: 401.674px 207.441px 0px;" id="el8mz5w9vg3uu" class="animable"></path><path d="M382.17,219.17a6.28,6.28,0,0,0-1.59,4.53c.14,2.2,2.3,2.59,4,1.39s3.31-3.54,2.33-5.47A2.83,2.83,0,0,0,382.17,219.17Z" style="fill: rgb(255, 195, 189); transform-origin: 383.889px 221.923px 0px;" id="elvo2vio89voq" class="animable"></path><g id="el7dmcz8adj5"><path d="M388.16,234.43l.82,4.78a9,9,0,0,1,2.26-6.53A4.05,4.05,0,0,0,388.16,234.43Z" style="opacity: 0.1; transform-origin: 389.7px 235.945px 0px;" class="animable"></path></g><rect x="314.7" y="265.51" width="2.87" height="16.93" style="fill: rgb(26, 63, 153); transform-origin: 316.135px 273.975px 0px;" id="el8v1mxdwxlgx" class="animable"></rect><g id="elgpcva71wiv"><rect x="314.7" y="265.51" width="2.87" height="16.93" style="fill: rgb(255, 255, 255); opacity: 0.7; transform-origin: 316.135px 273.975px 0px;" class="animable"></rect></g><path d="M297.85,231.89H290.7a4.85,4.85,0,0,0-4.85,4.85v33.13a4.85,4.85,0,0,0,4.85,4.85h7.15Z" style="fill: rgb(26, 63, 153); transform-origin: 291.85px 253.305px 0px;" id="elj9o2hr1c6m" class="animable"></path><rect x="288.35" y="231.89" width="58.08" height="42.82" rx="4.85" style="fill: rgb(26, 63, 153); transform-origin: 317.39px 253.3px 0px;" id="elvn169y8pace" class="animable"></rect><g id="el14ki946d7j2"><rect x="288.35" y="231.89" width="58.08" height="42.82" rx="4.85" style="fill: rgb(255, 255, 255); opacity: 0.5; transform-origin: 317.39px 253.3px 0px;" class="animable"></rect></g><rect x="290.35" y="233.89" width="54.08" height="38.82" rx="2.85" style="fill: rgb(38, 50, 56); transform-origin: 317.39px 253.3px 0px;" id="elhfk55x54n5" class="animable"></rect><path d="M305.69,289.54a10.45,10.45,0,0,1,20.89,0Z" style="fill: rgb(26, 63, 153); transform-origin: 316.135px 284.477px 0px;" id="elot9mjdce45" class="animable"></path><polygon points="330.34 285.98 309.45 285.98 309.45 289.37 351.23 289.37 351.23 287.98 330.34 285.98" style="fill: rgb(26, 63, 153); transform-origin: 330.34px 287.675px 0px;" id="el40qp466ptkt" class="animable"></polygon><g id="eljk4inv0zx1"><polygon points="330.34 285.98 309.45 285.98 309.45 289.37 351.23 289.37 351.23 287.98 330.34 285.98" style="fill: rgb(255, 255, 255); opacity: 0.8; transform-origin: 330.34px 287.675px 0px;" class="animable"></polygon></g><polygon points="330.34 289.37 309.45 289.37 309.45 285.98 330.34 287.98 330.34 289.37" style="fill: rgb(26, 63, 153); transform-origin: 319.895px 287.675px 0px;" id="elpat7x4kkt" class="animable"></polygon><g id="elra60ul6sfe"><polygon points="330.34 289.37 309.45 289.37 309.45 285.98 330.34 287.98 330.34 289.37" style="fill: rgb(255, 255, 255); opacity: 0.6; transform-origin: 319.895px 287.675px 0px;" class="animable"></polygon></g><path d="M376.4,406.08H333.31a6.54,6.54,0,0,1-6.55-6.54V300.46a6.54,6.54,0,0,1,6.55-6.54H376.4a1.75,1.75,0,0,1,1.75,1.75h0a1.75,1.75,0,0,1-1.75,1.75H333.31a3,3,0,0,0-3.05,3v99.08a3,3,0,0,0,3.05,3H376.4a1.75,1.75,0,0,1,1.75,1.75h0A1.75,1.75,0,0,1,376.4,406.08Z" style="fill: rgb(38, 50, 56); transform-origin: 352.456px 350px 0px;" id="el88kbw9lf7vk" class="animable"></path><g id="eljay99oqx6d"><g style="opacity: 0.5; transform-origin: 352.456px 350px 0px;" class="animable"><path d="M376.4,406.08H333.31a6.54,6.54,0,0,1-6.55-6.54V300.46a6.54,6.54,0,0,1,6.55-6.54H376.4a1.75,1.75,0,0,1,1.75,1.75h0a1.75,1.75,0,0,1-1.75,1.75H333.31a3,3,0,0,0-3.05,3v99.08a3,3,0,0,0,3.05,3H376.4a1.75,1.75,0,0,1,1.75,1.75h0A1.75,1.75,0,0,1,376.4,406.08Z" style="fill: rgb(255, 255, 255); transform-origin: 352.456px 350px 0px;" id="elb0xdiqxfle" class="animable"></path></g></g><rect x="271.95" y="289.37" width="61.19" height="5.13" style="fill: rgb(26, 63, 153); transform-origin: 302.545px 291.935px 0px;" id="elz5kwyvbxu5" class="animable"></rect><g id="el2951dvxvscf"><rect x="271.95" y="289.37" width="61.19" height="5.13" style="fill: rgb(255, 255, 255); opacity: 0.2; transform-origin: 302.545px 291.935px 0px;" class="animable"></rect></g><rect x="330.34" y="289.37" width="52.19" height="5.13" style="fill: rgb(26, 63, 153); transform-origin: 356.435px 291.935px 0px;" id="el6pry3cf9y3b" class="animable"></rect><g id="elq0fd2y3z4sl"><rect x="330.34" y="289.37" width="52.19" height="5.13" style="fill: rgb(255, 255, 255); opacity: 0.5; transform-origin: 356.435px 291.935px 0px;" class="animable"></rect></g><polygon points="364.23 369.73 367.12 398.95 360.2 398.95 353.27 370.49 364.23 369.73" style="fill: rgb(238, 193, 187); transform-origin: 360.195px 384.34px 0px;" id="elltpvcudpikm" class="animable"></polygon><path d="M359.55,397l8.83.15a.71.71,0,0,1,.68.57l1.48,7.21a1.19,1.19,0,0,1-.91,1.4l-.25,0c-3.19-.11-6-.33-10-.4-4.67-.08-3.5.5-9,.49-3.31,0-3.85-3.79-2.45-3.95,6.45-.7,7.15-2.63,9.67-4.89A2.86,2.86,0,0,1,359.55,397Z" style="fill: rgb(38, 50, 56); transform-origin: 358.886px 401.706px 0px;" id="el5yrl6viw2hm" class="animable"></path><g id="elsvtqv4cp07k"><polygon points="366.37 391.32 364.23 369.73 353.27 370.49 358.34 391.32 366.37 391.32" style="opacity: 0.1; transform-origin: 359.82px 380.525px 0px;" class="animable"></polygon></g><path d="M411.61,302.36l-28.38,1S345,316.73,344,327c-1.1,10.58,11.74,59.19,11.74,59.19h11.41s-3.15-35.67-4.35-46.59,39.79-7.31,46.91-16.62C416.22,314.44,411.61,302.36,411.61,302.36Z" style="fill: rgb(38, 50, 56); transform-origin: 378.563px 344.275px 0px;" id="ely2c3lrrl8od" class="animable"></path><g id="elht026snenu4"><path d="M411.61,302.36l-28.38,1S345,316.73,344,327c-1.1,10.58,11.74,59.19,11.74,59.19h11.41s-3.15-35.67-4.35-46.59,39.79-7.31,46.91-16.62C416.22,314.44,411.61,302.36,411.61,302.36Z" style="opacity: 0.2; transform-origin: 378.563px 344.275px 0px;" class="animable"></path></g><polygon points="369.05 384.59 369.3 388.62 355.2 388.62 353.82 384.59 369.05 384.59" style="fill: rgb(26, 63, 153); transform-origin: 361.56px 386.605px 0px;" id="eldftacbri9sr" class="animable"></polygon><polygon points="337.82 371.12 338.58 398.95 331.78 398.95 327.75 371.12 337.82 371.12" style="fill: rgb(238, 193, 187); transform-origin: 333.165px 385.035px 0px;" id="el18lu0eybmzr" class="animable"></polygon><path d="M330.84,397l8.83.15a.71.71,0,0,1,.68.57l1.48,7.21a1.19,1.19,0,0,1-.91,1.4l-.25,0c-3.19-.11-6-.33-10-.4-4.68-.08-3.5.5-9,.49-3.31,0-3.85-3.79-2.45-3.95,6.45-.7,7.15-2.63,9.67-4.89A2.84,2.84,0,0,1,330.84,397Z" style="fill: rgb(38, 50, 56); transform-origin: 330.176px 401.706px 0px;" id="elz37i3sh3mn" class="animable"></path><g id="elzc02343dzz"><path d="M338.37,391.3l-.55-20.18H327.75l2.93,20.2C332.87,391.33,335.88,391.31,338.37,391.3Z" style="opacity: 0.1; transform-origin: 333.06px 381.221px 0px;" class="animable"></path></g><path d="M399.27,304.71s2.36,21.58-19.59,22.59-39.09,3.52-39.59,11.33,0,47.6,0,47.6H328.16s-4.64-25.16-6.45-40.76c-1.76-15.15-5-26.14,10.57-31.27,16.53-5.46,45.91-10.5,45.91-10.5l21.16-1.34Z" style="fill: rgb(38, 50, 56); transform-origin: 359.763px 344.295px 0px;" id="elopu96h8i54" class="animable"></path><polygon points="341.85 384.59 341.1 388.62 328 388.62 326.62 384.59 341.85 384.59" style="fill: rgb(26, 63, 153); transform-origin: 334.235px 386.605px 0px;" id="elid4eh8x1op" class="animable"></polygon><path d="M404,242.8s0-4.86-9.83-4.3c-10.44.6-8.47,5.26-8.47,5.26Z" style="fill: rgb(26, 63, 153); transform-origin: 394.776px 241.108px 0px;" id="elga8bf96tuw" class="animable"></path><g id="elfyrd2ih32cc"><path d="M404,242.8s0-4.86-9.83-4.3c-10.44.6-8.47,5.26-8.47,5.26Z" style="opacity: 0.3; transform-origin: 394.776px 241.108px 0px;" class="animable"></path></g><path d="M413.16,264.6c-.66,9.61-.43,38.52-.43,38.52s-21,1.38-37.48.84l-1.91-55.61a4.89,4.89,0,0,1,3.14-4.53c4.66-1.81,15.6-3.86,32.71-1.61C415.09,243,413.94,253.24,413.16,264.6Z" style="fill: rgb(26, 63, 153); transform-origin: 393.571px 272.654px 0px;" id="eljmwlm1nas5" class="animable"></path><path d="M376.71,264.23s-8.16,20.2-16.13,22.38-20,.41-20,.41l-3.72,1-3.64-.54h-.13l-4.12-.1a.78.78,0,0,1-.7-1.23l1.48-2a1,1,0,0,1,.49-.35l3.91-1.26a1.12,1.12,0,0,1,.48,0l6,.95s16.65-2.73,18.34-4.27,6.72-17.69,6.72-17.69Z" style="fill: rgb(238, 193, 187); transform-origin: 352.418px 274.775px 0px;" id="elgiuatkzngsr" class="animable"></path><g id="elgtsxhh8xsbr"><path d="M376.5,254.83s-1.27,1.51-2.81,3.69l.55,16.1c6.13-2.71,8.56-18.49,8.56-18.49l-4-2.82Z" style="opacity: 0.1; transform-origin: 378.245px 263.965px 0px;" class="animable"></path></g><path d="M381.63,244.22c-5.92-1.94-14.26,2.51-17.45,21.15l12.3,3.59S390.09,247,381.63,244.22Z" style="fill: rgb(26, 63, 153); transform-origin: 374.291px 256.381px 0px;" id="el52f4rh9ft5i" class="animable"></path><rect x="380.21" y="337.77" width="9.25" height="27.11" style="fill: rgb(38, 50, 56); transform-origin: 384.835px 351.325px 0px;" id="elk8b0fn1zfg" class="animable"></rect><g id="el3bk1bhl6n7l"><rect x="380.21" y="337.77" width="9.25" height="27.11" style="fill: rgb(255, 255, 255); opacity: 0.6; transform-origin: 384.835px 351.325px 0px;" class="animable"></rect></g><polygon points="390.89 389.44 390.89 355 378.77 355 378.77 389.44 351.18 393.27 351.18 397.1 384.83 394.23 418.48 397.1 418.48 393.27 390.89 389.44" style="fill: rgb(38, 50, 56); transform-origin: 384.83px 376.05px 0px;" id="els7c3zc6h6ek" class="animable"></polygon><circle cx="350.78" cy="402.84" r="3.65" style="fill: rgb(26, 63, 153); transform-origin: 350.78px 402.84px 0px;" id="elgipsdu0lqbb" class="animable"></circle><circle cx="418.48" cy="402.84" r="3.65" style="fill: rgb(26, 63, 153); transform-origin: 418.48px 402.84px 0px;" id="elurmo41e1x5" class="animable"></circle><circle cx="384.83" cy="402.84" r="3.65" style="fill: rgb(26, 63, 153); transform-origin: 384.83px 402.84px 0px;" id="elq2hmd4wyc4" class="animable"></circle><g id="el52gd0nkq0cy"><rect x="380.21" y="337.77" width="9.25" height="6.7" style="opacity: 0.3; transform-origin: 384.835px 341.12px 0px;" class="animable"></rect></g><path d="M421.4,276.32H391.26a9.52,9.52,0,0,0-9.47,8.63l-2.54,27.23a12.55,12.55,0,0,1-11.85,11.36L338.31,325a6.65,6.65,0,0,0-6.31,6.64v.61a5.51,5.51,0,0,0,5.51,5.51H426.1l4.77-51A9.52,9.52,0,0,0,421.4,276.32Z" style="fill: rgb(26, 63, 153); transform-origin: 381.457px 307.04px 0px;" id="ela3p2rrs9hu" class="animable"></path><g id="ellke2btogpse"><path d="M421.4,276.32H391.26a9.52,9.52,0,0,0-9.47,8.63l-2.54,27.23a12.55,12.55,0,0,1-11.85,11.36L338.31,325a6.65,6.65,0,0,0-6.31,6.64v.61a5.51,5.51,0,0,0,5.51,5.51H426.1l4.77-51A9.52,9.52,0,0,0,421.4,276.32Z" style="fill: rgb(255, 255, 255); opacity: 0.3; transform-origin: 381.457px 307.04px 0px;" class="animable"></path></g><path d="M352.22,307h4.15a0,0,0,0,1,0,0v21.71a2,2,0,0,1-2,2h-.15a2,2,0,0,1-2-2V307A0,0,0,0,1,352.22,307Z" style="fill: rgb(38, 50, 56); transform-origin: 354.295px 318.855px 0px;" id="elk3bocjcdnum" class="animable"></path><g id="elswbdiq025r"><path d="M352.22,307h4.15a0,0,0,0,1,0,0v21.71a2,2,0,0,1-2,2h-.15a2,2,0,0,1-2-2V307A0,0,0,0,1,352.22,307Z" style="fill: rgb(255, 255, 255); opacity: 0.2; transform-origin: 354.295px 318.855px 0px;" class="animable"></path></g><path d="M372.23,300.77H363v7.65h9.25a3.83,3.83,0,1,0,0-7.65Z" style="fill: rgb(26, 63, 153); transform-origin: 369.638px 304.595px 0px;" id="elinj0k5hnsbm" class="animable"></path><g id="ele2hpxuoes2c"><path d="M372.23,300.77H363v7.65h9.25a3.83,3.83,0,1,0,0-7.65Z" style="fill: rgb(255, 255, 255); opacity: 0.5; transform-origin: 369.638px 304.595px 0px;" class="animable"></path></g><rect x="332.52" y="300.77" width="39.71" height="7.66" rx="3.69" style="fill: rgb(26, 63, 153); transform-origin: 352.375px 304.6px 0px;" id="eltoqe36dy7d" class="animable"></rect><g id="elcudtyxqabtg"><rect x="332.52" y="300.77" width="39.71" height="7.66" rx="3.69" style="fill: rgb(255, 255, 255); opacity: 0.3; transform-origin: 352.375px 304.6px 0px;" class="animable"></rect></g><path d="M428.18,337.77H383.87L388.81,285a9.52,9.52,0,0,1,9.47-8.63h30.14a9.52,9.52,0,0,1,9.47,10.4l-4.31,46.14A5.43,5.43,0,0,1,428.18,337.77Z" style="fill: rgb(26, 63, 153); transform-origin: 410.9px 307.07px 0px;" id="el1gh3vamq51g" class="animable"></path><g id="el6xtc3h0ac18"><path d="M428.18,337.77H383.87L388.81,285a9.52,9.52,0,0,1,9.47-8.63h30.14a9.52,9.52,0,0,1,9.47,10.4l-4.31,46.14A5.43,5.43,0,0,1,428.18,337.77Z" style="fill: rgb(255, 255, 255); opacity: 0.5; transform-origin: 410.9px 307.07px 0px;" class="animable"></path></g><path d="M324.67,406.08H281.58a6.54,6.54,0,0,1-6.55-6.54V300.46a6.54,6.54,0,0,1,6.55-6.54h43.09a1.75,1.75,0,0,1,1.75,1.75h0a1.75,1.75,0,0,1-1.75,1.75H281.58a3,3,0,0,0-3.05,3v99.08a3,3,0,0,0,3.05,3h43.09a1.75,1.75,0,0,1,1.75,1.75h0A1.75,1.75,0,0,1,324.67,406.08Z" style="fill: rgb(38, 50, 56); transform-origin: 300.726px 350px 0px;" id="elqca9bnz8s8" class="animable"></path><g id="elu2ium54az8l"><g style="opacity: 0.5; transform-origin: 300.726px 350px 0px;" class="animable"><path d="M324.67,406.08H281.58a6.54,6.54,0,0,1-6.55-6.54V300.46a6.54,6.54,0,0,1,6.55-6.54h43.09a1.75,1.75,0,0,1,1.75,1.75h0a1.75,1.75,0,0,1-1.75,1.75H281.58a3,3,0,0,0-3.05,3v99.08a3,3,0,0,0,3.05,3h43.09a1.75,1.75,0,0,1,1.75,1.75h0A1.75,1.75,0,0,1,324.67,406.08Z" style="fill: rgb(255, 255, 255); transform-origin: 300.726px 350px 0px;" id="eleqj4uiiyfzo" class="animable"></path></g></g><path d="M296.19,241.79l-3-2a.54.54,0,0,1,0-.91l3-2a.5.5,0,0,1,.69.14h0a.5.5,0,0,1-.14.68l-2.49,1.65,2.49,1.65a.5.5,0,0,1,.14.68h0A.51.51,0,0,1,296.19,241.79Z" style="fill: rgb(255, 255, 255); transform-origin: 294.949px 239.338px 0px;" id="elcagf9cw8q87" class="animable"></path><path d="M302.83,241.65h0A.49.49,0,0,1,303,241l2.49-1.65L303,237.67a.49.49,0,0,1-.13-.68h0a.49.49,0,0,1,.68-.14l3,2a.54.54,0,0,1,0,.91l-3,2A.5.5,0,0,1,302.83,241.65Z" style="fill: rgb(255, 255, 255); transform-origin: 304.785px 239.318px 0px;" id="eloixzm1l87hn" class="animable"></path><path d="M298.72,243h0a.49.49,0,0,1-.32-.62l2.07-6.54a.48.48,0,0,1,.61-.32h0a.48.48,0,0,1,.32.61l-2.06,6.55A.49.49,0,0,1,298.72,243Z" style="fill: rgb(255, 255, 255); transform-origin: 299.9px 239.26px 0px;" id="elt9wedhbr6om" class="animable"></path><path d="M315.7,248H293.43a.51.51,0,0,1-.51-.52h0a.51.51,0,0,1,.51-.52H315.7a.52.52,0,0,1,.52.52h0A.52.52,0,0,1,315.7,248Z" style="fill: rgb(255, 255, 255); transform-origin: 304.57px 247.48px 0px;" id="elawgnv6njiij" class="animable"></path><path d="M341.28,248H319a.52.52,0,0,1-.52-.52h0A.52.52,0,0,1,319,247h22.26a.52.52,0,0,1,.52.52h0A.52.52,0,0,1,341.28,248Z" style="fill: rgb(255, 255, 255); transform-origin: 330.13px 247.5px 0px;" id="eltrrehp7ur1" class="animable"></path><path d="M306.16,252.58H293.43a.51.51,0,0,1-.51-.52h0a.51.51,0,0,1,.51-.51h12.73a.52.52,0,0,1,.52.51h0A.52.52,0,0,1,306.16,252.58Z" style="fill: rgb(255, 255, 255); transform-origin: 299.8px 252.065px 0px;" id="el7zn6mdha39e" class="animable"></path><path d="M330.32,252.58H309.47a.51.51,0,0,1-.51-.52h0a.51.51,0,0,1,.51-.51h20.85a.51.51,0,0,1,.51.51h0A.51.51,0,0,1,330.32,252.58Z" style="fill: rgb(255, 255, 255); transform-origin: 319.895px 252.065px 0px;" id="elqed7jj5ska" class="animable"></path><path d="M327.35,257.17H293.43a.52.52,0,0,1-.51-.52h0a.51.51,0,0,1,.51-.52h33.92a.52.52,0,0,1,.52.52h0A.52.52,0,0,1,327.35,257.17Z" style="fill: rgb(255, 255, 255); transform-origin: 310.395px 256.65px 0px;" id="elcf71drdcyr9" class="animable"></path><path d="M337.75,257.17h-7.08a.52.52,0,0,1-.52-.52h0a.52.52,0,0,1,.52-.52h7.08a.52.52,0,0,1,.52.52h0A.52.52,0,0,1,337.75,257.17Z" style="fill: rgb(255, 255, 255); transform-origin: 334.21px 256.65px 0px;" id="elh8igvs2wsjd" class="animable"></path><path d="M309.27,261.75H293.43a.51.51,0,0,1-.51-.52h0a.51.51,0,0,1,.51-.52h15.84a.52.52,0,0,1,.52.52h0A.52.52,0,0,1,309.27,261.75Z" style="fill: rgb(255, 255, 255); transform-origin: 301.355px 261.23px 0px;" id="elnw07f51ytz" class="animable"></path><path d="M332.3,261.75H312.59a.52.52,0,0,1-.52-.52h0a.52.52,0,0,1,.52-.52H332.3a.52.52,0,0,1,.52.52h0A.52.52,0,0,1,332.3,261.75Z" style="fill: rgb(255, 255, 255); transform-origin: 322.445px 261.23px 0px;" id="el4cbknoqubo8" class="animable"></path><path d="M315.7,266.33H293.43a.51.51,0,0,1-.51-.52h0a.51.51,0,0,1,.51-.51H315.7a.51.51,0,0,1,.52.51h0A.52.52,0,0,1,315.7,266.33Z" style="fill: rgb(255, 255, 255); transform-origin: 304.57px 265.815px 0px;" id="el2zz92eqyecw" class="animable"></path><path d="M334.73,266.33H319a.52.52,0,0,1-.52-.52h0a.51.51,0,0,1,.52-.51h15.71a.51.51,0,0,1,.51.51h0A.51.51,0,0,1,334.73,266.33Z" style="fill: rgb(255, 255, 255); transform-origin: 326.85px 265.815px 0px;" id="el8sia4qj2hzl" class="animable"></path></g><g id="freepik--character-1--inject-4" style="transform-origin: 159.127px 279.843px 0px;" class="animable"><path d="M141.47,176.82c.41,4.71-.61,13.24-4.16,16,5.79,2.09,11.93,5.69,15.85,10.44,3.89-5.66-.53-8.89-.53-8.89-5-1.78-4.47-5.57-3.18-9.06Z" style="fill: rgb(185, 121, 100); transform-origin: 146.036px 190.04px 0px;" id="elidzspc8icf" class="animable"></path><path d="M160.4,172.76c-.06.59.22,1.1.61,1.14s.74-.42.8-1-.22-1.1-.61-1.14S160.47,172.17,160.4,172.76Z" style="fill: rgb(38, 50, 56); transform-origin: 161.105px 172.83px 0px;" id="eluvqaa7hfm9" class="animable"></path><path d="M161.05,171.77l1.45-.28S161.67,172.56,161.05,171.77Z" style="fill: rgb(38, 50, 56); transform-origin: 161.775px 171.775px 0px;" id="elp8ibvhfh3e" class="animable"></path><path d="M160.6,173.39a16.36,16.36,0,0,0,1.77,4,2.59,2.59,0,0,1-2.16.2Z" style="fill: rgb(162, 78, 63); transform-origin: 161.29px 175.564px 0px;" id="ely1tmlzjq0xr" class="animable"></path><path d="M162.08,169.65a.41.41,0,0,0,.24-.13.36.36,0,0,0,0-.49,3.48,3.48,0,0,0-3.09-.83.37.37,0,0,0-.11.49.33.33,0,0,0,.3.16,2.83,2.83,0,0,1,2.44.69A.36.36,0,0,0,162.08,169.65Z" style="fill: rgb(38, 50, 56); transform-origin: 160.743px 168.885px 0px;" id="ell0am2a4vzdk" class="animable"></path><path d="M141,169c-.23,7.31-.48,10.42,2.78,14.5,4.91,6.13,13.8,4.79,16.18-2.33,2.14-6.41,2.16-17.33-4.57-20.87S141.21,161.67,141,169Z" style="fill: rgb(185, 121, 100); transform-origin: 151.055px 173.262px 0px;" id="elqyn6quua7k8" class="animable"></path><path d="M141.32,182.81c-7.19-1.23-5.13-5.76-5.13-5.76-7.08-1.43-1.61-4.89-1.61-4.89-5.89-2.54,0-4.82,0-4.82C128.9,162.63,137,161,137,161c-2-7.35,5-4.33,5-4.33,3.8-6.32,7.08-.29,7.08-.29,6.66-9,8.28-1.41,8.28-1.41,6.81-1.79,4.2,5.37,4.2,5.37,5.6,1.5,1.2,4.34,1.2,4.34,2.16,2.73-5.65,3.2-5.65,3.2s3.72,6,0,7.65l-9.46,7.25S143.28,181,141.32,182.81Z" style="fill: rgb(38, 50, 56); transform-origin: 148.183px 167.394px 0px;" id="elc7bjcgmg749" class="animable"></path><path d="M148.39,176.91s5-12,1.09-22.24l3.3-1.13S157.09,168.43,148.39,176.91Z" style="fill: rgb(26, 63, 153); transform-origin: 151.119px 165.225px 0px;" id="elekc7rsj1xa" class="animable"></path><path d="M153.38,175.59c.82,1.72,1.14,2.47,2.32,3a2.14,2.14,0,0,0,3.14-2.38c-.31-1.72-1.63-4.25-3.46-4.3A2.39,2.39,0,0,0,153.38,175.59Z" style="fill: rgb(185, 121, 100); transform-origin: 155.954px 175.392px 0px;" id="elzm084eh1i9k" class="animable"></path><path d="M148.21,200.57s6.77,5,9.52,7l19.59-9.24h0a5.41,5.41,0,0,1,3.3-5.12l1.4-.58,2.95-1.32a3.42,3.42,0,0,1,3.41.36h0a3.43,3.43,0,0,1,1.27,3.74h0a8.47,8.47,0,0,1-6,5.82l-2.86.75S164,214.7,158,215s-14.79-5.59-14.79-5.59Z" style="fill: rgb(185, 121, 100); transform-origin: 166.5px 203.012px 0px;" id="elxsql1oc3xzj" class="animable"></path><path d="M131.93,192.14c5.17,0,10.95,3.22,20,9.12a24.85,24.85,0,0,1-7,11.08s-5-1.34-11.64-7.59C125.29,197.18,128.76,192.15,131.93,192.14Z" style="fill: rgb(38, 50, 56); transform-origin: 140.158px 202.24px 0px;" id="el1nl7rn1aq4v" class="animable"></path><path d="M230.13,207.12h-49a2.91,2.91,0,0,1-2.94-3.22l3.69-42.18a3.58,3.58,0,0,1,3.5-3.22h49a2.9,2.9,0,0,1,2.93,3.22l-3.69,42.18A3.58,3.58,0,0,1,230.13,207.12Z" style="fill: rgb(26, 63, 153); transform-origin: 207.751px 182.81px 0px;" id="el77cc6mdz8nu" class="animable"></path><g id="elqphe622e6ch"><path d="M230.13,207.12h-49a2.91,2.91,0,0,1-2.94-3.22l3.69-42.18a3.58,3.58,0,0,1,3.5-3.22h49a2.9,2.9,0,0,1,2.93,3.22l-3.69,42.18A3.58,3.58,0,0,1,230.13,207.12Z" style="fill: rgb(255, 255, 255); opacity: 0.4; transform-origin: 207.751px 182.81px 0px;" class="animable"></path></g><g id="el0o7z6zj1g7jh"><path d="M230.31,205.12a1.35,1.35,0,0,0,1.32-1.22l3.69-42.18a1.1,1.1,0,0,0-1.11-1.22h-49a1.36,1.36,0,0,0-1.33,1.22L180.2,203.9a1.1,1.1,0,0,0,1.11,1.22Z" style="fill: rgb(255, 255, 255); opacity: 0.7; transform-origin: 207.76px 182.81px 0px;" class="animable"></path></g><path d="M196.26,180.32l-16,23.16,0,.42a1.1,1.1,0,0,0,1.11,1.22h27.76Z" style="fill: rgb(26, 63, 153); transform-origin: 194.692px 192.72px 0px;" id="elhg36qoaj5qr" class="animable"></path><g id="eljfnngbluml"><path d="M196.26,180.32l-16,23.16,0,.42a1.1,1.1,0,0,0,1.11,1.22h27.76Z" style="fill: rgb(255, 255, 255); opacity: 0.3; transform-origin: 194.692px 192.72px 0px;" class="animable"></path></g><path d="M231.77,202.29l-13.41-25.47-19.86,28.3h31.81a1.35,1.35,0,0,0,1.32-1.22Z" style="fill: rgb(26, 63, 153); transform-origin: 215.135px 190.97px 0px;" id="elrik809h2n99" class="animable"></path><path d="M213.18,172.32a5,5,0,0,1-4.89,4.5,4.06,4.06,0,0,1-4.11-4.5,5,5,0,0,1,4.89-4.51A4.06,4.06,0,0,1,213.18,172.32Z" style="fill: rgb(26, 63, 153); transform-origin: 208.681px 172.315px 0px;" id="elzoqv92t68vn" class="animable"></path><g id="elvgxv54thzor"><path d="M213.18,172.32a5,5,0,0,1-4.89,4.5,4.06,4.06,0,0,1-4.11-4.5,5,5,0,0,1,4.89-4.51A4.06,4.06,0,0,1,213.18,172.32Z" style="fill: rgb(255, 255, 255); opacity: 0.4; transform-origin: 208.681px 172.315px 0px;" class="animable"></path></g><polygon points="90.9 377.37 85.92 392.13 93.55 395.25 99.52 381.63 90.9 377.37" style="fill: rgb(185, 121, 100); transform-origin: 92.72px 386.31px 0px;" id="eldf0wgwurj08" class="animable"></polygon><path d="M96.29,394.88a.25.25,0,0,1-.12-.23.21.21,0,0,1,.17-.18c.16,0,3.76-.84,5.1,0a1.14,1.14,0,0,1,.51.69.82.82,0,0,1-.26.91c-.51.36-1.7.21-2.79-.13A16.45,16.45,0,0,1,96.29,394.88Zm.76-.07c1.57.7,3.79,1.37,4.37.93.08-.06.18-.16.1-.47a.57.57,0,0,0-.32-.42,1.46,1.46,0,0,0-.38-.17A10,10,0,0,0,97.05,394.81Z" style="fill: rgb(26, 63, 153); transform-origin: 99.0828px 395.187px 0px;" id="el1sxlpeschc9h" class="animable"></path><path d="M96.18,394.83a.22.22,0,0,1,0-.22c0-.1,1-2.4,2.41-3a1.65,1.65,0,0,1,1.27,0c.55.23.64.58.59.82-.12,1.05-2.82,2.3-4,2.44a.1.1,0,0,1-.09,0A.19.19,0,0,1,96.18,394.83ZM99.57,392a1.16,1.16,0,0,0-.8,0,5.1,5.1,0,0,0-2,2.33c1.29-.31,3.13-1.37,3.26-2,0-.06,0-.22-.34-.36l-.12,0Z" style="fill: rgb(26, 63, 153); transform-origin: 98.3062px 393.182px 0px;" id="elgq5q70r7gvm" class="animable"></path><path d="M95.77,393.37l-9.58-3a.81.81,0,0,0-.94.37L81.11,398a1.34,1.34,0,0,0,.49,1.84,1.23,1.23,0,0,0,.26.12c3.47,1,6.6,1.76,10.9,3.1,5.08,1.56,3.6,1.77,9.54,3.7,3.58,1.16,5.5-2.73,4-3.4-6.71-3-6.78-5.36-8.7-8.69A3.22,3.22,0,0,0,95.77,393.37Z" style="fill: rgb(38, 50, 56); transform-origin: 93.87px 398.654px 0px;" id="elhogfmjjix8" class="animable"></path><g id="el0uxh4puaiwvi"><polygon points="88.51 384.45 96.51 388.49 99.52 381.63 90.9 377.37 88.51 384.45" style="fill: rgb(38, 50, 56); opacity: 0.2; transform-origin: 94.015px 382.93px 0px;" class="animable"></polygon></g><path d="M124.72,240.85s-10.75,8.21-8.45,33.93c.22,2.38,1,4.87,1,7.59,0,1.81-.5,3.08-1.09,7.15-.86,5.92-2.44,28-4.11,30.87s-2.35,2.36-7,10.28c-5,8.52-11.5,23.46-16.53,48.78a28.2,28.2,0,0,0,11.24,4.71s27.47-43.32,33.31-59.45c5.23-14.43,11.46-60.48,11.46-60.48l.5-20Z" style="fill: rgb(26, 63, 153); transform-origin: 116.795px 312.505px 0px;" id="elzoflgwfih2o" class="animable"></path><g id="eld9qeh85rft7"><path d="M136.48,274.78H128.7s-2.56,24.48,5.9,44.9c.88-3.28,1.77-7.21,2.64-11.46l3.37-21.56c-.48-3.64-.85-6.42-.91-6.6C139.53,279.49,136.48,274.78,136.48,274.78Z" style="opacity: 0.1; transform-origin: 134.473px 297.23px 0px;" class="animable"></path></g><polygon points="135.2 383.31 135.25 399 144.1 398.41 145.46 383.31 135.2 383.31" style="fill: rgb(185, 121, 100); transform-origin: 140.33px 391.155px 0px;" id="el8jj6cjezgqt" class="animable"></polygon><path d="M145.12,398.14a.21.21,0,0,1-.18-.17.21.21,0,0,1,.1-.23c.14-.08,3.27-2,4.82-1.66a1.17,1.17,0,0,1,.71.48.84.84,0,0,1,.05.95,4,4,0,0,1-2.68.79A15.65,15.65,0,0,1,145.12,398.14Zm.7-.31c1.71.15,4,.05,4.43-.56.06-.08.11-.21-.06-.48a.6.6,0,0,0-.44-.29,1.39,1.39,0,0,0-.41,0A9.7,9.7,0,0,0,145.82,397.83Z" style="fill: rgb(26, 63, 153); transform-origin: 147.839px 397.175px 0px;" id="elo8dp12709da" class="animable"></path><path d="M145,398.14a.24.24,0,0,1-.11-.2c0-.11.17-2.6,1.3-3.6a1.61,1.61,0,0,1,1.2-.42c.6,0,.8.34.83.59.23,1-1.9,3.09-3,3.62a.14.14,0,0,1-.09,0A.19.19,0,0,1,145,398.14Zm2.26-3.8a1.12,1.12,0,0,0-.74.3,5.08,5.08,0,0,0-1.12,2.86c1.11-.71,2.5-2.32,2.42-2.94,0-.06-.05-.22-.44-.24l-.12,0Z" style="fill: rgb(26, 63, 153); transform-origin: 146.564px 396.032px 0px;" id="elefjti9hwrli" class="animable"></path><path d="M144.14,396.89l-10,.36a.81.81,0,0,0-.76.66l-1.52,8.22a1.34,1.34,0,0,0,1.06,1.57,1.43,1.43,0,0,0,.29,0c3.61-.2,6.81-.51,11.31-.66,5.31-.19,4,.49,10.23.36,3.77-.09,4.3-4.39,2.7-4.54-7.33-.66-8.17-2.84-11.08-5.35A3.22,3.22,0,0,0,144.14,396.89Z" style="fill: rgb(38, 50, 56); transform-origin: 145.068px 402.291px 0px;" id="elhz1p2m806a4" class="animable"></path><g id="elrajjzfsk03"><polygon points="135.23 391.43 144.75 391.23 145.46 383.31 135.2 383.31 135.23 391.43" style="fill: rgb(38, 50, 56); opacity: 0.2; transform-origin: 140.33px 387.37px 0px;" class="animable"></polygon></g><path d="M130.71,238s-10.73,14.21-2.78,42l9,40.59s-8.54,18.46-4,67.16a41,41,0,0,0,13.24-.3s10-51.43,11.51-68.8c1.67-19.14.67-76.83.67-76.83Z" style="fill: rgb(26, 63, 153); transform-origin: 141.822px 313.074px 0px;" id="ele8bpxodge9p" class="animable"></path><path d="M137.19,191.94s-1.66-7.1,9-4,9.76,9.17,9.76,9.17Z" style="fill: rgb(38, 50, 56); transform-origin: 146.533px 192.133px 0px;" id="el0c66u3h9mrtg" class="animable"></path><g id="eldwplcb752cw"><path d="M137.19,191.94s-1.66-7.1,9-4,9.76,9.17,9.76,9.17Z" style="opacity: 0.4; transform-origin: 146.533px 192.133px 0px;" class="animable"></path></g><path d="M163.63,209.7c0,2.49-1,6.09-2,10.12-.46,1.91-.88,3.9-1.16,5.92-1.51,11-2,22.59-2,22.59a43.86,43.86,0,0,1-34.34-6.81s4.19-3.55,3.33-28.14c-.39-11.08-4.39-24.25,13.92-22.18,15.46,1.75,20.66,6.55,21.91,14.06,0,.09,0,.19,0,.29l.09.7A29.3,29.3,0,0,1,163.63,209.7Z" style="fill: rgb(38, 50, 56); transform-origin: 143.88px 220.161px 0px;" id="elq0iykwyvap" class="animable"></path><g id="el0ptkpcqbml9q"><path d="M163.63,209.7c0,2.49-1,6.09-2,10.12-4.18-5-8.37-14.45-8.37-14.45l3.45-5.08,6.08,2.83a18,18,0,0,1,.5,2.14c0,.09,0,.19,0,.29l.09.7A29.3,29.3,0,0,1,163.63,209.7Z" style="opacity: 0.4; transform-origin: 158.445px 210.055px 0px;" class="animable"></path></g><path d="M170,205.36s6,5.92,8.37,8.3l20.74-6.22h0a5.42,5.42,0,0,1,4-4.56l1.46-.38,3.12-.86a3.45,3.45,0,0,1,3.32.87h0a3.42,3.42,0,0,1,.7,3.88h0a8.5,8.5,0,0,1-6.8,4.87l-2.94.31s-18.51,10.11-24.47,9.55-13.79-7.73-13.79-7.73Z" style="fill: rgb(185, 121, 100); transform-origin: 187.87px 211.331px 0px;" id="el50bqu2k7i6p" class="animable"></path><path d="M155.1,194.59c5.12.75,10.35,4.82,18.47,12a24.87,24.87,0,0,1-8.59,9.92s-4.73-2.07-10.37-9.24C147.79,198.59,152,194.13,155.1,194.59Z" style="fill: rgb(38, 50, 56); transform-origin: 162.257px 205.534px 0px;" id="el3r0uz234v8i" class="animable"></path></g><defs>     <filter id="active" height="200%">         <feMorphology in="SourceAlpha" result="DILATED" operator="dilate" radius="2"></feMorphology>                <feFlood flood-color="#32DFEC" flood-opacity="1" result="PINK"></feFlood>        <feComposite in="PINK" in2="DILATED" operator="in" result="OUTLINE"></feComposite>        <feMerge>            <feMergeNode in="OUTLINE"></feMergeNode>            <feMergeNode in="SourceGraphic"></feMergeNode>        </feMerge>    </filter>    <filter id="hover" height="200%">        <feMorphology in="SourceAlpha" result="DILATED" operator="dilate" radius="2"></feMorphology>                <feFlood flood-color="#ff0000" flood-opacity="0.5" result="PINK"></feFlood>        <feComposite in="PINK" in2="DILATED" operator="in" result="OUTLINE"></feComposite>        <feMerge>            <feMergeNode in="OUTLINE"></feMergeNode>            <feMergeNode in="SourceGraphic"></feMergeNode>        </feMerge>            <feColorMatrix type="matrix" values="0   0   0   0   0                0   1   0   0   0                0   0   0   0   0                0   0   0   1   0 "></feColorMatrix>    </filter></defs></svg>