<svg width="602" height="412" viewBox="0 0 602 412" fill="none" xmlns="http://www.w3.org/2000/svg">
<g clip-path="url(#clip0)">
<path d="M354.697 410C506.743 410 630 402.785 630 393.884C630 384.984 506.743 377.769 354.697 377.769C202.651 377.769 79.394 384.984 79.394 393.884C79.394 402.785 202.651 410 354.697 410Z" fill="#F5F5F5"/>
<path d="M474.507 393.896H484.944L499.142 315.254H488.706L474.507 393.896Z" fill="#263238"/>
<path opacity="0.2" d="M474.507 393.896H484.944L499.142 315.254H488.706L474.507 393.896Z" fill="white"/>
<path opacity="0.2" d="M474.507 393.896H482.104L496.303 315.254H488.706L474.507 393.896Z" fill="white"/>
<path d="M445.127 338.642H486.858C487.16 338.644 487.46 338.585 487.74 338.47C488.02 338.355 488.274 338.185 488.488 337.971C488.702 337.756 488.872 337.501 488.987 337.22C489.101 336.94 489.16 336.639 489.158 336.336C489.16 336.032 489.101 335.731 488.987 335.451C488.872 335.17 488.702 334.915 488.488 334.701C488.274 334.486 488.02 334.316 487.74 334.201C487.46 334.086 487.16 334.027 486.858 334.029H445.127C444.824 334.027 444.524 334.086 444.244 334.201C443.965 334.316 443.71 334.486 443.496 334.701C443.282 334.915 443.113 335.17 442.998 335.451C442.883 335.731 442.825 336.032 442.827 336.336V336.336C442.825 336.639 442.883 336.94 442.998 337.22C443.113 337.501 443.282 337.756 443.496 337.971C443.71 338.185 443.965 338.355 444.244 338.47C444.524 338.585 444.824 338.644 445.127 338.642V338.642Z" fill="#263238"/>
<path d="M440.488 364.976H482.233C482.844 364.973 483.429 364.727 483.86 364.292C484.291 363.857 484.533 363.269 484.533 362.656V362.656C484.529 362.045 484.286 361.461 483.855 361.029C483.424 360.598 482.842 360.353 482.233 360.35H440.488C439.879 360.353 439.296 360.598 438.865 361.029C438.435 361.461 438.191 362.045 438.188 362.656V362.656C438.187 363.269 438.429 363.857 438.86 364.292C439.291 364.727 439.876 364.973 440.488 364.976Z" fill="#263238"/>
<path d="M431.91 393.896H442.346L456.545 315.254H446.109L431.91 393.896Z" fill="#263238"/>
<path opacity="0.2" d="M431.91 393.896H442.346L456.545 315.254H446.109L431.91 393.896Z" fill="white"/>
<path opacity="0.2" d="M431.91 393.896H439.507L453.706 315.254H446.109L431.91 393.896Z" fill="white"/>
<path d="M528.958 393.896H518.522L504.323 315.254H514.759L528.958 393.896Z" fill="#263238"/>
<path opacity="0.4" d="M528.958 393.896H518.522L504.323 315.254H514.759L528.958 393.896Z" fill="white"/>
<path opacity="0.2" d="M526.119 393.896H518.522L504.323 315.254H511.92L526.119 393.896Z" fill="white"/>
<path d="M510.626 338.642H468.881C468.271 338.642 467.686 338.399 467.255 337.966C466.823 337.534 466.581 336.947 466.581 336.336V336.336C466.581 335.724 466.823 335.137 467.255 334.705C467.686 334.272 468.271 334.029 468.881 334.029H510.626C511.236 334.029 511.821 334.272 512.253 334.705C512.684 335.137 512.926 335.724 512.926 336.336V336.336C512.926 336.947 512.684 337.534 512.253 337.966C511.821 338.399 511.236 338.642 510.626 338.642V338.642Z" fill="#263238"/>
<path d="M515.256 364.976H473.525C473.222 364.976 472.922 364.916 472.642 364.8C472.362 364.683 472.108 364.512 471.894 364.296C471.68 364.08 471.511 363.824 471.396 363.543C471.281 363.261 471.223 362.96 471.225 362.656V362.656C471.225 362.044 471.467 361.458 471.899 361.025C472.33 360.593 472.915 360.35 473.525 360.35H515.256C515.866 360.35 516.451 360.593 516.883 361.025C517.314 361.458 517.556 362.044 517.556 362.656V362.656C517.558 362.96 517.5 363.261 517.385 363.543C517.27 363.824 517.101 364.08 516.888 364.296C516.674 364.512 516.42 364.683 516.14 364.8C515.86 364.916 515.559 364.976 515.256 364.976V364.976Z" fill="#263238"/>
<path opacity="0.2" d="M510.626 338.642H468.881C468.271 338.642 467.686 338.399 467.255 337.966C466.823 337.534 466.581 336.947 466.581 336.336V336.336C466.581 335.724 466.823 335.137 467.255 334.705C467.686 334.272 468.271 334.029 468.881 334.029H510.626C511.236 334.029 511.821 334.272 512.253 334.705C512.684 335.137 512.926 335.724 512.926 336.336V336.336C512.926 336.947 512.684 337.534 512.253 337.966C511.821 338.399 511.236 338.642 510.626 338.642V338.642Z" fill="white"/>
<path opacity="0.2" d="M515.256 364.976H473.525C473.222 364.976 472.922 364.916 472.642 364.8C472.362 364.683 472.108 364.512 471.894 364.296C471.68 364.08 471.511 363.824 471.396 363.543C471.281 363.261 471.223 362.96 471.225 362.656V362.656C471.225 362.044 471.467 361.458 471.899 361.025C472.33 360.593 472.915 360.35 473.525 360.35H515.256C515.866 360.35 516.451 360.593 516.883 361.025C517.314 361.458 517.556 362.044 517.556 362.656V362.656C517.558 362.96 517.5 363.261 517.385 363.543C517.27 363.824 517.101 364.08 516.888 364.296C516.674 364.512 516.42 364.683 516.14 364.8C515.86 364.916 515.559 364.976 515.256 364.976V364.976Z" fill="white"/>
<path d="M486.365 393.896H475.928L461.729 315.254H472.166L486.365 393.896Z" fill="#263238"/>
<path opacity="0.4" d="M486.365 393.896H475.928L461.729 315.254H472.166L486.365 393.896Z" fill="white"/>
<path opacity="0.2" d="M483.525 393.896H475.928L461.729 315.254H469.326L483.525 393.896Z" fill="white"/>
<path d="M518.823 311.489H443.441C442.507 311.489 441.751 312.248 441.751 313.183V317.298C441.751 318.233 442.507 318.992 443.441 318.992H518.823C519.756 318.992 520.513 318.233 520.513 317.298V313.183C520.513 312.248 519.756 311.489 518.823 311.489Z" fill="#263238"/>
<path opacity="0.2" d="M472.094 311.489H443.441C442.507 311.489 441.751 312.248 441.751 313.183V317.298C441.751 318.233 442.507 318.992 443.441 318.992H472.094C473.027 318.992 473.784 318.233 473.784 317.298V313.183C473.784 312.248 473.027 311.489 472.094 311.489Z" fill="white"/>
<path d="M275.679 330.689H180.333V392.86H275.679V330.689Z" fill="#0052FF"/>
<path opacity="0.6" d="M275.679 330.689H180.333V392.86H275.679V330.689Z" fill="white"/>
<path d="M272.201 342.35H183.827V389.757H272.201V342.35Z" fill="#0052FF"/>
<path d="M256.398 349.426H191.026V351.462H256.398V349.426Z" fill="white"/>
<path d="M222.391 355.676H191.026V357.712H222.391V355.676Z" fill="white"/>
<path d="M230.527 361.926H191.026V363.962H230.527V361.926Z" fill="white"/>
<path d="M204.941 368.159H191.026V370.195H204.941V368.159Z" fill="white"/>
<path d="M200.042 374.407H191.026V376.443H200.042V374.407Z" fill="white"/>
<path d="M393.503 393.887H315.892L329.026 290.431H380.369L393.503 393.887Z" fill="#0052FF"/>
<path opacity="0.6" d="M393.503 393.887H315.892L324.88 323.103L329.04 290.431H380.355L386.489 338.635L393.503 393.887Z" fill="white"/>
<path opacity="0.1" d="M386.489 338.635L324.88 323.103L329.04 290.431H380.355L386.489 338.635Z" fill="black"/>
<path d="M537.679 35.3311H171.716C170.486 35.3311 169.268 35.5742 168.132 36.0465C166.996 36.5189 165.964 37.2113 165.095 38.0839C164.225 38.9566 163.536 39.9926 163.067 41.1324C162.598 42.2723 162.357 43.4938 162.359 44.7271V293.124C162.359 295.612 163.345 297.998 165.1 299.758C166.854 301.517 169.234 302.506 171.716 302.506H537.679C540.161 302.506 542.541 301.517 544.296 299.758C546.05 297.998 547.036 295.612 547.036 293.124V44.7555C547.042 43.5199 546.804 42.2954 546.336 41.1522C545.868 40.009 545.18 38.9697 544.311 38.094C543.441 37.2183 542.408 36.5234 541.27 36.0493C540.132 35.5751 538.911 35.331 537.679 35.3311Z" fill="#0052FF"/>
<path opacity="0.7" d="M537.679 35.3311H171.716C170.486 35.3311 169.268 35.5742 168.132 36.0465C166.996 36.5189 165.964 37.2113 165.095 38.0839C164.225 38.9566 163.536 39.9926 163.067 41.1324C162.598 42.2723 162.357 43.4938 162.359 44.7271V293.124C162.359 295.612 163.345 297.998 165.1 299.758C166.854 301.517 169.234 302.506 171.716 302.506H537.679C540.161 302.506 542.541 301.517 544.296 299.758C546.05 297.998 547.036 295.612 547.036 293.124V44.7555C547.042 43.5199 546.804 42.2954 546.336 41.1522C545.868 40.009 545.18 38.9697 544.311 38.094C543.441 37.2183 542.408 36.5234 541.27 36.0493C540.132 35.5751 538.911 35.331 537.679 35.3311Z" fill="white"/>
<path d="M534.725 44.5264H174.683V284.054H534.725V44.5264Z" fill="#0052FF"/>
<path d="M419.87 386.112H289.51C288.694 386.112 288.033 386.775 288.033 387.593V392.277C288.033 393.094 288.694 393.757 289.51 393.757H419.87C420.686 393.757 421.347 393.094 421.347 392.277V387.593C421.347 386.775 420.686 386.112 419.87 386.112Z" fill="#0052FF"/>
<path opacity="0.7" d="M419.87 386.112H289.51C288.694 386.112 288.033 386.775 288.033 387.593V392.277C288.033 393.094 288.694 393.757 289.51 393.757H419.87C420.686 393.757 421.347 393.094 421.347 392.277V387.593C421.347 386.775 420.686 386.112 419.87 386.112Z" fill="white"/>
<path opacity="0.2" d="M534.725 44.75H174.683V80.4549H534.725V44.75Z" fill="black"/>
<path opacity="0.4" d="M328.968 80.8848H174.683V284.052H328.968V80.8848Z" fill="white"/>
<path d="M479.308 132.709V136.268H475.758" stroke="white" stroke-miterlimit="10"/>
<path d="M468.26 136.269H351.971" stroke="white" stroke-miterlimit="10" stroke-dasharray="5.28 5.28"/>
<path d="M348.224 136.268H344.674V132.709" stroke="white" stroke-miterlimit="10"/>
<path d="M344.674 126.26V65.001" stroke="white" stroke-miterlimit="10" stroke-dasharray="4.53 4.53"/>
<path d="M344.674 61.7857V58.2266H348.224" stroke="white" stroke-miterlimit="10"/>
<path d="M355.72 58.2266H472.009" stroke="white" stroke-miterlimit="10" stroke-dasharray="5.28 5.28"/>
<path d="M475.758 58.2266H479.308V61.7857" stroke="white" stroke-miterlimit="10"/>
<path d="M479.308 68.2344V129.494" stroke="white" stroke-miterlimit="10" stroke-dasharray="4.53 4.53"/>
<path d="M481.567 55.9541H477.066V60.4671H481.567V55.9541Z" fill="#0052FF" stroke="white" stroke-miterlimit="10"/>
<path d="M481.567 134.012H477.066V138.525H481.567V134.012Z" fill="#0052FF" stroke="white" stroke-miterlimit="10"/>
<path d="M346.917 55.9541H342.416V60.4671H346.917V55.9541Z" fill="#0052FF" stroke="white" stroke-miterlimit="10"/>
<path d="M346.917 134.012H342.416V138.525H346.917V134.012Z" fill="#0052FF" stroke="white" stroke-miterlimit="10"/>
<path d="M414.247 55.9541H409.746V60.4671H414.247V55.9541Z" fill="#0052FF" stroke="white" stroke-miterlimit="10"/>
<path d="M414.247 134.012H409.746V138.525H414.247V134.012Z" fill="#0052FF" stroke="white" stroke-miterlimit="10"/>
<path d="M481.567 94.9805H477.066V99.4934H481.567V94.9805Z" fill="#0052FF" stroke="white" stroke-miterlimit="10"/>
<path d="M346.917 94.9805H342.416V99.4934H346.917V94.9805Z" fill="#0052FF" stroke="white" stroke-miterlimit="10"/>
<path opacity="0.7" d="M467.08 84.4268H434.125C432.642 84.4268 431.441 85.6314 431.441 87.1174V95.9583C431.441 97.4443 432.642 98.6489 434.125 98.6489H467.08C468.562 98.6489 469.764 97.4443 469.764 95.9583V87.1174C469.764 85.6314 468.562 84.4268 467.08 84.4268Z" fill="white"/>
<path opacity="0.7" d="M410.288 84.4268H377.332C375.85 84.4268 374.648 85.6314 374.648 87.1174V95.9583C374.648 97.4443 375.85 98.6489 377.332 98.6489H410.288C411.77 98.6489 412.971 97.4443 412.971 95.9583V87.1174C412.971 85.6314 411.77 84.4268 410.288 84.4268Z" fill="white"/>
<path opacity="0.7" d="M337.176 257.532H304.221C302.739 257.532 301.537 258.737 301.537 260.223V269.064C301.537 270.55 302.739 271.754 304.221 271.754H337.176C338.659 271.754 339.86 270.55 339.86 269.064V260.223C339.86 258.737 338.659 257.532 337.176 257.532Z" fill="white"/>
<path d="M510.956 57.4541H522.939" stroke="white" stroke-width="1.5" stroke-linecap="round" stroke-linejoin="round"/>
<path d="M510.956 63.1416H522.939" stroke="white" stroke-width="1.5" stroke-linecap="round" stroke-linejoin="round"/>
<path d="M510.956 68.8369H522.939" stroke="white" stroke-width="1.5" stroke-linecap="round" stroke-linejoin="round"/>
<path opacity="0.5" d="M319.854 112.369H199.092V233.45H319.854V112.369Z" fill="white"/>
<path d="M249.639 122.271V226.724" stroke="#0052FF" stroke-miterlimit="10"/>
<path d="M301.723 226.724C287.906 226.724 274.655 221.221 264.885 211.425C255.116 201.63 249.627 188.344 249.627 174.491V174.491C249.627 160.641 255.114 147.359 264.881 137.566C274.649 127.773 287.896 122.271 301.709 122.271V122.271" stroke="#0052FF" stroke-miterlimit="10"/>
<path d="M303.978 120.018H299.477V124.531H303.978V120.018Z" fill="white" stroke="#0052FF" stroke-miterlimit="10"/>
<path d="M303.978 224.456H299.477V228.969H303.978V224.456Z" fill="white" stroke="#0052FF" stroke-miterlimit="10"/>
<path d="M251.899 172.243H247.397V176.756H251.899V172.243Z" fill="white" stroke="#0052FF" stroke-miterlimit="10"/>
<path d="M250.803 122.273C250.803 122.504 250.735 122.729 250.607 122.921C250.479 123.113 250.297 123.263 250.085 123.351C249.872 123.44 249.638 123.463 249.412 123.418C249.186 123.373 248.978 123.262 248.816 123.098C248.653 122.935 248.542 122.727 248.497 122.501C248.452 122.274 248.475 122.039 248.563 121.826C248.651 121.613 248.801 121.43 248.992 121.302C249.184 121.174 249.409 121.105 249.639 121.105C249.947 121.109 250.241 121.233 250.458 121.451C250.676 121.67 250.8 121.964 250.803 122.273V122.273Z" fill="white" stroke="#0052FF" stroke-miterlimit="10"/>
<path d="M250.803 226.724C250.803 226.954 250.735 227.18 250.608 227.371C250.481 227.563 250.3 227.712 250.088 227.801C249.876 227.89 249.642 227.914 249.417 227.87C249.191 227.826 248.984 227.716 248.821 227.554C248.657 227.393 248.545 227.186 248.499 226.96C248.452 226.735 248.473 226.501 248.559 226.287C248.645 226.074 248.792 225.89 248.982 225.76C249.171 225.63 249.395 225.56 249.625 225.557C249.779 225.555 249.932 225.584 250.075 225.641C250.218 225.699 250.348 225.785 250.457 225.894C250.567 226.002 250.654 226.131 250.713 226.274C250.773 226.417 250.803 226.57 250.803 226.724V226.724Z" fill="white" stroke="#0052FF" stroke-miterlimit="10"/>
<path opacity="0.7" d="M449.732 259.25H413.17C410.368 259.25 407.681 258.134 405.7 256.148C403.719 254.162 402.606 251.467 402.606 248.658C402.606 245.849 403.719 243.155 405.7 241.169C407.681 239.182 410.368 238.066 413.17 238.066H449.732C452.534 238.066 455.221 239.182 457.202 241.169C459.183 243.155 460.296 245.849 460.296 248.658C460.296 251.467 459.183 254.162 457.202 256.148C455.221 258.134 452.534 259.25 449.732 259.25Z" fill="white"/>
<path opacity="0.7" d="M481.848 168.924H368.896C368.282 168.924 367.693 168.68 367.259 168.244C366.825 167.809 366.582 167.219 366.582 166.603C366.593 165.997 366.842 165.419 367.275 164.995C367.708 164.571 368.291 164.336 368.896 164.34H481.834C482.137 164.338 482.438 164.396 482.719 164.511C483 164.626 483.255 164.796 483.47 165.01C483.685 165.225 483.856 165.48 483.972 165.76C484.089 166.041 484.149 166.342 484.149 166.646V166.646C484.138 167.252 483.891 167.829 483.461 168.255C483.031 168.68 482.452 168.92 481.848 168.924V168.924Z" fill="white"/>
<path opacity="0.7" d="M481.848 185.82H368.896C368.593 185.822 368.292 185.764 368.011 185.649C367.731 185.534 367.475 185.364 367.26 185.15C367.045 184.935 366.874 184.681 366.758 184.4C366.642 184.119 366.582 183.818 366.582 183.514C366.582 182.898 366.825 182.308 367.259 181.873C367.693 181.438 368.282 181.193 368.896 181.193H481.834C482.448 181.193 483.037 181.438 483.471 181.873C483.905 182.308 484.149 182.898 484.149 183.514C484.149 184.126 483.906 184.712 483.475 185.145C483.044 185.577 482.458 185.82 481.848 185.82V185.82Z" fill="white"/>
<path opacity="0.7" d="M481.85 202.774H411.495C410.883 202.774 410.297 202.532 409.863 202.1C409.429 201.668 409.184 201.081 409.18 200.468V200.468C409.18 199.853 409.424 199.262 409.858 198.827C410.292 198.392 410.881 198.147 411.495 198.147H481.836C482.45 198.147 483.039 198.392 483.473 198.827C483.907 199.262 484.151 199.853 484.151 200.468C484.147 201.079 483.903 201.663 483.473 202.095C483.042 202.526 482.459 202.771 481.85 202.774V202.774Z" fill="white"/>
<path opacity="0.4" d="M194.037 54.6494H186.057V62.6503H194.037V54.6494Z" fill="black"/>
<path opacity="0.4" d="M207.498 54.6494H203.607C202.478 54.6494 201.562 55.5673 201.562 56.6995V60.6003C201.562 61.7325 202.478 62.6503 203.607 62.6503H207.498C208.627 62.6503 209.542 61.7325 209.542 60.6003V56.6995C209.542 55.5673 208.627 54.6494 207.498 54.6494Z" fill="black"/>
<path opacity="0.4" d="M221.412 54.6494H220.731C218.715 54.6494 217.082 56.2875 217.082 58.3082V58.9915C217.082 61.0122 218.715 62.6503 220.731 62.6503H221.412C223.428 62.6503 225.061 61.0122 225.061 58.9915V58.3082C225.061 56.2875 223.428 54.6494 221.412 54.6494Z" fill="black"/>
<path opacity="0.9" d="M210.507 251.89V248.772L208.917 248.63C208.69 247.618 208.286 246.654 207.724 245.783L208.747 244.544L206.546 242.338L205.311 243.363C204.442 242.799 203.48 242.394 202.471 242.167L202.329 240.572H199.219L199.063 242.167C198.054 242.396 197.093 242.8 196.223 243.363L194.988 242.338L192.787 244.544L193.809 245.783C193.236 246.648 192.831 247.614 192.617 248.63L191.012 248.772V251.89L192.617 252.047C192.832 253.063 193.237 254.028 193.809 254.894L192.787 256.147L194.988 258.339L196.223 257.314C197.087 257.888 198.05 258.294 199.063 258.51L199.219 260.119H202.329L202.471 258.51C203.484 258.295 204.448 257.889 205.311 257.314L206.546 258.339L208.747 256.147L207.724 254.894C208.291 254.026 208.695 253.061 208.917 252.047L210.507 251.89ZM200.724 254.552C199.882 254.552 199.058 254.302 198.358 253.833C197.657 253.363 197.111 252.696 196.789 251.916C196.466 251.136 196.382 250.277 196.546 249.448C196.711 248.62 197.116 247.859 197.712 247.262C198.308 246.664 199.067 246.257 199.893 246.093C200.72 245.928 201.576 246.012 202.354 246.336C203.133 246.659 203.798 247.206 204.266 247.909C204.734 248.611 204.984 249.437 204.984 250.282C204.984 251.414 204.535 252.501 203.736 253.302C202.937 254.102 201.854 254.552 200.724 254.552Z" fill="white"/>
<path opacity="0.6" d="M223.115 260.687V258.295L221.866 258.167C221.696 257.365 221.378 256.602 220.928 255.917L221.724 254.935L220.006 253.213L219.04 254.024C218.352 253.573 217.587 253.254 216.782 253.084L216.669 251.817H214.227L214.113 253.084C213.309 253.254 212.543 253.573 211.855 254.024L210.89 253.213L209.158 254.935L209.967 255.917C209.517 256.602 209.199 257.365 209.03 258.167L207.78 258.295V260.729L209.03 260.857C209.199 261.659 209.517 262.422 209.967 263.107L209.158 264.089L210.89 265.812L211.855 265C212.543 265.451 213.309 265.77 214.113 265.94L214.227 267.193H216.669L216.782 265.94C217.587 265.77 218.352 265.451 219.04 265L220.006 265.812L221.724 264.089L220.928 263.107C221.378 262.422 221.696 261.659 221.866 260.857L223.115 260.687ZM215.448 262.779C214.793 262.782 214.152 262.59 213.606 262.227C213.06 261.865 212.634 261.347 212.381 260.742C212.129 260.136 212.061 259.468 212.187 258.824C212.313 258.18 212.627 257.587 213.089 257.122C213.551 256.657 214.141 256.339 214.783 256.21C215.425 256.081 216.091 256.146 216.696 256.396C217.302 256.647 217.819 257.072 218.183 257.618C218.547 258.164 218.742 258.806 218.742 259.462C218.744 259.897 218.66 260.328 218.495 260.731C218.33 261.133 218.088 261.499 217.782 261.807C217.476 262.115 217.112 262.36 216.712 262.527C216.311 262.693 215.881 262.779 215.448 262.779V262.779Z" fill="white"/>
<path opacity="0.4" d="M210.508 267.622V265.572L209.458 265.473C209.317 264.798 209.052 264.156 208.677 263.579L209.358 262.768L207.938 261.344L207.115 262.013C206.539 261.637 205.899 261.372 205.226 261.23L205.127 260.177H203.054L202.954 261.23C202.282 261.372 201.642 261.637 201.066 262.013L200.242 261.344L198.823 262.768L199.504 263.579C199.129 264.156 198.864 264.798 198.723 265.473L197.658 265.572V267.622L198.723 267.722C198.861 268.402 199.126 269.049 199.504 269.63L198.823 270.441L200.242 271.865L201.066 271.181C201.638 271.568 202.279 271.839 202.954 271.979L203.054 273.032H205.098L205.198 271.979C205.873 271.839 206.515 271.568 207.086 271.181L207.91 271.865L209.33 270.441L208.648 269.63C209.026 269.049 209.291 268.402 209.429 267.722L210.508 267.622ZM204.076 269.373C203.532 269.359 203.004 269.185 202.558 268.871C202.112 268.558 201.768 268.12 201.569 267.611C201.371 267.103 201.326 266.547 201.44 266.013C201.555 265.48 201.824 264.992 202.214 264.611C202.604 264.229 203.097 263.972 203.633 263.871C204.168 263.769 204.721 263.828 205.222 264.04C205.724 264.252 206.153 264.608 206.454 265.063C206.755 265.518 206.916 266.051 206.916 266.597C206.916 266.968 206.842 267.335 206.699 267.676C206.555 268.018 206.345 268.327 206.08 268.586C205.815 268.845 205.502 269.048 205.158 269.183C204.813 269.318 204.446 269.383 204.076 269.373V269.373Z" fill="white"/>
<path d="M478.484 57.4141L484.505 73.5581L494.572 63.4503L478.484 57.4141Z" fill="#0052FF"/>
<path d="M488.181 64.8681L485.932 67.123L490.922 72.1262L493.171 69.8713L488.181 64.8681Z" fill="#0052FF"/>
<path opacity="0.4" d="M494.572 63.4503L478.484 57.4141L484.505 73.5581L488.424 69.6289L490.908 72.1345L493.152 69.8851L490.667 67.3795L494.572 63.4503Z" fill="white"/>
<path d="M231.819 115.112L246.97 120.807L239.033 112.849C238.739 113.018 238.398 113.086 238.062 113.042C237.726 112.999 237.413 112.846 237.172 112.607C236.879 112.312 236.714 111.913 236.714 111.496C236.714 111.08 236.879 110.68 237.172 110.386C237.466 110.091 237.865 109.926 238.28 109.926C238.695 109.926 239.094 110.091 239.388 110.386C239.626 110.627 239.778 110.941 239.822 111.277C239.866 111.614 239.798 111.956 239.629 112.251L247.566 120.209L241.887 105.019L236.86 106.129L236.676 104.321L235.724 103.367L230.158 108.948L231.11 109.902L232.927 110.087L231.819 115.112Z" fill="#263238"/>
<path opacity="0.2" d="M231.819 115.112L246.97 120.807L239.033 112.849C238.739 113.018 238.398 113.086 238.062 113.042C237.726 112.999 237.413 112.846 237.172 112.607C236.879 112.312 236.714 111.913 236.714 111.496C236.714 111.08 236.879 110.68 237.172 110.386C237.466 110.091 237.865 109.926 238.28 109.926C238.695 109.926 239.094 110.091 239.388 110.386C239.626 110.627 239.778 110.941 239.822 111.277C239.866 111.614 239.798 111.956 239.629 112.251L247.566 120.209L241.887 105.019L236.86 106.129L236.676 104.321L235.724 103.367L230.158 108.948L231.11 109.902L232.927 110.087L231.819 115.112Z" fill="white"/>
<g opacity="0.1">
<path opacity="0.1" d="M227.333 44.5293L173.973 244.437V44.5293H227.333Z" fill="white"/>
<path opacity="0.1" d="M287.551 44.5264L223.613 284.054H179.568L243.492 44.5264H287.551Z" fill="white"/>
<path opacity="0.1" d="M351.588 44.5264L287.65 284.054H267.729L331.667 44.5264H351.588Z" fill="white"/>
<path opacity="0.1" d="M410.557 44.5264L346.619 284.054H339.491L403.429 44.5264H410.557Z" fill="white"/>
</g>
<path d="M78.3291 383.111H88.8505L89.7166 358.682H79.1952L78.3291 383.111Z" fill="#B97964"/>
<path d="M90.2976 381.886H77.5186C77.3081 381.882 77.103 381.953 76.9394 382.085C76.7758 382.218 76.6641 382.405 76.6241 382.612L74.551 391.994C74.5073 392.194 74.5035 392.4 74.5398 392.602C74.5762 392.804 74.652 392.996 74.7629 393.168C74.8738 393.34 75.0175 393.488 75.1859 393.604C75.3542 393.721 75.5438 393.802 75.7438 393.844H76.0845C80.2164 393.773 83.184 393.517 88.4092 393.517C91.6181 393.517 101.188 393.858 105.675 393.858C110.162 393.858 110.659 389.488 108.856 389.089C100.748 387.31 94.6567 384.818 92.0583 382.526C91.5734 382.097 90.9442 381.868 90.2976 381.886V381.886Z" fill="#263238"/>
<path d="M91.0211 383.351C90.9728 383.338 90.9296 383.31 90.8968 383.272C90.864 383.234 90.843 383.187 90.8365 383.138C90.8276 383.09 90.8337 383.042 90.8541 382.998C90.8745 382.955 90.9081 382.919 90.9501 382.896C91.3335 382.654 94.727 380.561 95.8913 381.159C96.0228 381.22 96.1334 381.319 96.2091 381.443C96.2849 381.567 96.3225 381.711 96.3173 381.856C96.3561 382.106 96.3279 382.362 96.2355 382.597C96.1432 382.832 95.9901 383.038 95.7919 383.195C95.2041 383.607 94.4903 383.798 93.7757 383.736C92.8464 383.706 91.923 383.578 91.0211 383.351ZM91.7452 382.995C92.9729 383.412 94.3129 383.346 95.4938 382.81C95.6167 382.698 95.7107 382.558 95.7676 382.402C95.8245 382.246 95.8426 382.078 95.8203 381.913C95.8203 381.714 95.7351 381.614 95.6641 381.614C95.5633 381.563 95.4507 381.538 95.3376 381.543C94.0593 381.795 92.8403 382.288 91.7452 382.995V382.995Z" fill="#0052FF"/>
<path d="M90.9504 383.395C90.9133 383.371 90.8833 383.337 90.8634 383.297C90.8435 383.257 90.8343 383.212 90.8368 383.168C90.8368 383.025 91.1066 379.993 92.2567 378.996C92.3977 378.869 92.5652 378.775 92.7469 378.721C92.9286 378.667 93.1201 378.654 93.3075 378.683C93.4962 378.685 93.6788 378.751 93.8257 378.869C93.9726 378.988 94.0752 379.153 94.1168 379.338C94.3298 380.448 92.2283 382.769 91.135 383.367H91.0214L90.9504 383.395ZM92.6401 379.31C91.9033 380.259 91.4724 381.411 91.4048 382.612C92.4839 381.787 93.8186 380.036 93.6908 379.352C93.6908 379.352 93.6908 379.096 93.3216 379.096H93.2081C92.9988 379.094 92.7962 379.17 92.6401 379.31V379.31Z" fill="#0052FF"/>
<path opacity="0.2" d="M79.1961 358.694H89.7175L89.2631 371.294H78.7417L79.1961 358.694Z" fill="black"/>
<path d="M132.471 383.892L143.333 385.045L145.363 361.584L134.515 360.431L132.471 383.892Z" fill="#B97964"/>
<path d="M144.467 381.544H131.773C131.564 381.546 131.361 381.618 131.199 381.75C131.036 381.882 130.923 382.065 130.878 382.27L128.805 391.666C128.754 391.863 128.743 392.069 128.772 392.271C128.801 392.472 128.87 392.666 128.974 392.841C129.078 393.016 129.216 393.168 129.38 393.289C129.544 393.41 129.73 393.497 129.927 393.545H130.268C134.4 393.474 137.367 393.218 142.607 393.218C145.801 393.218 155.386 393.545 159.858 393.545C164.331 393.545 164.842 389.175 163.039 388.776C154.931 387.011 148.84 384.505 146.242 382.213C145.754 381.776 145.121 381.538 144.467 381.544V381.544Z" fill="#263238"/>
<path d="M145.191 383.01C145.142 382.996 145.099 382.969 145.066 382.931C145.034 382.893 145.013 382.846 145.006 382.796C144.996 382.747 145.003 382.696 145.026 382.652C145.05 382.608 145.088 382.573 145.134 382.554C145.503 382.312 148.897 380.219 150.061 380.831C150.192 380.889 150.304 380.985 150.38 381.107C150.456 381.229 150.493 381.371 150.487 381.515C150.521 381.765 150.493 382.02 150.403 382.256C150.314 382.493 150.167 382.703 149.976 382.867C149.377 383.267 148.662 383.452 147.945 383.394C147.016 383.365 146.093 383.236 145.191 383.01V383.01ZM145.915 382.668C147.144 383.081 148.484 383.009 149.663 382.469C149.787 382.358 149.882 382.218 149.939 382.061C149.996 381.905 150.013 381.737 149.99 381.572C149.99 381.372 149.905 381.287 149.834 381.287C149.74 381.23 149.63 381.205 149.521 381.216C148.255 381.464 147.05 381.957 145.972 382.668H145.915Z" fill="#0052FF"/>
<path d="M145.133 383.067C145.094 383.043 145.062 383.01 145.04 382.97C145.018 382.93 145.006 382.885 145.005 382.839C145.005 382.683 145.275 379.665 146.496 378.668C146.641 378.546 146.808 378.454 146.989 378.398C147.169 378.342 147.359 378.322 147.547 378.341C147.736 378.34 147.92 378.404 148.068 378.524C148.215 378.643 148.317 378.81 148.356 378.995C148.569 380.12 146.468 382.441 145.375 383.024H145.261L145.133 383.067ZM146.809 378.967C146.072 379.911 145.641 381.059 145.573 382.256C146.652 381.444 147.987 379.679 147.859 378.995C147.859 378.995 147.859 378.739 147.49 378.739H147.391C147.176 378.745 146.97 378.826 146.809 378.967V378.967Z" fill="#0052FF"/>
<path opacity="0.2" d="M134.514 360.431L145.362 361.584L144.297 373.685L133.449 372.532L134.514 360.431Z" fill="black"/>
<path d="M83.4958 144.478H139.34C144.636 173.534 161.249 276.335 149.279 367.989L130.381 365.64C130.381 365.64 132.127 244.047 115.458 199.074C113.541 223.134 111.198 248.731 109.281 262.355C104.425 295.882 94.0314 369.128 94.0314 369.128H74.8486C74.8486 369.128 78.7817 298.999 80.5992 266.056C82.587 230.252 83.4958 151.824 83.4958 144.478Z" fill="#263238"/>
<path d="M151.496 372.345L128.11 368.857L128.834 362.365L153.157 365.568L151.496 372.345Z" fill="#0052FF"/>
<path d="M96.4037 369.257H73.7139V362.467L97.2557 362.025L96.4037 369.257Z" fill="#0052FF"/>
<path opacity="0.2" d="M115.517 199.035C118.257 206.916 120.342 215.011 121.75 223.237C123.312 201.883 117.065 179.104 117.065 179.104L115.517 199.035Z" fill="black"/>
<path d="M81.9493 154.22L80.6714 160.982C80.6714 160.982 119.733 166.05 144.027 165.908L143.175 161.267L81.9493 154.22Z" fill="#0052FF"/>
<path d="M161.223 95.6603C161.223 95.6603 174.726 138.369 183.941 141.217C193.156 144.064 216.598 108.772 216.598 108.772C216.598 108.772 237.655 108.573 238.593 107.135C239.53 105.697 233.126 90.8199 231.593 90.8057C230.059 90.7914 211.714 97.7103 211.018 98.8777C210.323 100.045 189.266 120.232 188.3 119.634C187.334 119.036 179.326 93.653 179.326 93.653L161.223 95.6603Z" fill="#B97964"/>
<path d="M219.381 106.469C219.548 106.435 219.714 106.392 219.878 106.341L219.636 106.185C219.559 106.286 219.473 106.381 219.381 106.469V106.469Z" fill="#B97964"/>
<path d="M153.555 90.7328L155.202 93.7651L162.884 108.001L164.488 110.948L186.057 103.432C186.057 103.432 177.083 69.8622 173.973 66.417L153.555 90.7328Z" fill="#0052FF"/>
<path opacity="0.4" d="M153.555 90.7328L155.202 93.7651L162.884 108.001L164.488 110.948L186.057 103.432C186.057 103.432 177.083 69.8622 173.973 66.417L153.555 90.7328Z" fill="white"/>
<path opacity="0.2" d="M155.201 93.7744L162.882 108.011C167.639 98.6575 166.262 85.8447 166.262 85.8447L155.201 93.7744Z" fill="black"/>
<path d="M173.972 66.4313C169.908 61.7264 164.933 57.8994 159.348 55.1828C153.763 52.4662 147.685 50.9168 141.484 50.6289C120.356 49.6323 113.711 51.7393 105.987 58.6582C94.699 68.766 80.6562 155.793 80.6562 155.793C101.258 161.544 122.659 163.876 144.012 162.698C144.012 162.698 144.267 138.496 151.892 122.252C160.48 104.157 167.856 85.509 173.972 66.4313V66.4313Z" fill="#0052FF"/>
<path opacity="0.4" d="M80.6562 155.794C101.258 161.545 122.658 163.883 144.012 162.713C144.012 162.713 144.012 159.723 144.424 155.153C144.594 152.989 144.85 150.455 145.205 147.722C145.56 144.989 146.071 141.871 146.624 138.767C146.965 137.102 147.363 135.422 147.789 133.756C148.779 129.801 150.129 125.946 151.821 122.239C152.758 120.246 153.667 118.267 154.547 116.331C156.067 112.942 157.515 109.654 158.807 106.508C161.647 99.8876 164.061 93.8371 166.077 88.5412C167.497 84.74 168.775 81.3375 169.811 78.4191C170.961 75.1589 171.87 72.4825 172.538 70.4894C173.404 67.8557 173.83 66.4178 173.83 66.4178C173.124 65.5323 172.365 64.6908 171.558 63.8979C163.634 56.0665 153.157 51.3653 142.052 50.6581H141.342C125.241 49.9036 117.559 50.9428 111.397 54.5446C109.41 55.737 107.55 57.1299 105.845 58.7017C104.242 60.4434 102.98 62.4717 102.125 64.681C99.5006 70.7999 97.3456 77.1107 95.6787 83.5584L94.7416 87.0179C93.3217 92.2996 91.987 97.923 90.7091 103.618C90.3399 105.24 89.9849 106.863 89.63 108.472C89.1046 110.949 88.5793 113.412 88.0823 115.847C86.8044 121.982 85.6543 127.933 84.6462 133.286C83.2263 140.974 82.0761 147.409 81.3946 151.409C80.926 154.228 80.6562 155.794 80.6562 155.794ZM142.706 51.4411C144.13 51.4772 145.552 51.5865 146.965 51.7685C152.645 52.5373 161.377 57.1072 161.164 59.2711C160.951 61.435 157.629 66.9588 149.138 65.6206C146.179 65.0731 143.371 63.8985 140.902 62.1754C136.217 59.0718 132.809 54.8721 132.468 53.5054C132.042 51.8682 137.551 51.313 142.72 51.4696L142.706 51.4411Z" fill="white"/>
<path d="M124.503 80.4551C124.503 80.4551 113.314 107.604 111.014 130.169L141.272 134.041C141.272 134.041 154.846 97.3537 157.657 85.8791C157.657 85.8507 133.491 83.4305 124.503 80.4551Z" fill="#0052FF"/>
<path opacity="0.4" d="M151.752 86.9229L155.955 87.3357L152.874 89.7274L151.752 86.9229Z" fill="white"/>
<path d="M135.28 53.5832C137.566 60.132 146.071 63.1216 150.53 63.5487C152.172 63.8083 153.853 63.5198 155.316 62.7275C156.778 61.9353 157.94 60.6832 158.623 59.1639C158.623 59.1639 153.526 56.6156 154.037 53.7541C154.398 52.0041 155.113 50.347 156.139 48.8852C156.669 48.0505 157.248 47.2472 157.871 46.4793L149.706 28.9258C147.889 36.528 142.309 51.1346 135.28 53.5832Z" fill="#B97964"/>
<path opacity="0.2" d="M149.381 37.0283C145.49 45.5702 150.985 51.4498 154.038 53.6991C154.399 51.9492 155.115 50.2921 156.14 48.8303L149.381 37.0283Z" fill="black"/>
<path d="M176.756 14.2317C176.756 14.2317 179.368 28.6959 171.843 34.4901C164.318 40.2843 163.551 13.2637 163.551 13.2637L176.756 14.2317Z" fill="#B97964"/>
<path opacity="0.4" d="M176.756 14.2317C176.756 14.2317 179.368 28.6959 171.843 34.4901C164.318 40.2843 163.551 13.2637 163.551 13.2637L176.756 14.2317Z" fill="black"/>
<path d="M149.849 46.6564C151.527 49.0017 153.926 50.7301 156.679 51.5762C159.431 52.4223 162.384 52.3394 165.085 51.3402C168.612 50.0986 171.533 47.5521 173.249 44.222C173.49 43.7807 173.703 43.2966 173.916 42.7984C177.438 33.8152 178.176 11.8911 168.691 12.7026C160.853 13.3717 153.186 10.9515 149.182 17.7423C148.038 19.6741 147.367 21.8499 147.222 24.0917C146.37 34.5697 145.377 40.6486 149.849 46.6564Z" fill="#B97964"/>
<path d="M162.459 29.2704C162.288 30.0961 162.686 30.8506 163.24 30.9361C163.793 31.0215 164.333 30.3808 164.461 29.5124C164.589 28.644 164.219 27.9322 163.68 27.861C163.14 27.7898 162.587 28.4162 162.459 29.2704Z" fill="#263238"/>
<path d="M171.957 30.6269C171.787 31.4526 172.199 32.2071 172.738 32.2925C173.278 32.378 173.832 31.7373 173.945 30.8689C174.059 30.0005 173.718 29.2887 173.164 29.2033C172.611 29.1178 172.071 29.8297 171.957 30.6269Z" fill="#263238"/>
<path d="M168.876 30.624C169.515 33.3401 170.523 35.9555 171.872 38.3971C171.236 38.7285 170.535 38.9167 169.819 38.9487C169.103 38.9807 168.388 38.8556 167.726 38.5822L168.876 30.624Z" fill="#A24E3F"/>
<path d="M159.958 25.7717C160.045 25.7976 160.137 25.7994 160.224 25.7769C160.312 25.7543 160.392 25.7082 160.455 25.6435C160.89 25.1945 161.423 24.8527 162.012 24.6452C162.6 24.4377 163.229 24.3701 163.849 24.4477C163.978 24.4734 164.113 24.4477 164.224 24.376C164.335 24.3043 164.415 24.1922 164.445 24.0633C164.46 23.9996 164.461 23.9337 164.449 23.8694C164.438 23.8052 164.413 23.744 164.378 23.6894C164.342 23.6349 164.295 23.5882 164.241 23.5521C164.187 23.5161 164.126 23.4914 164.062 23.4796C163.29 23.3662 162.503 23.4359 161.763 23.6832C161.023 23.9305 160.351 24.3483 159.802 24.9032C159.71 24.9988 159.659 25.1264 159.659 25.2591C159.659 25.3919 159.71 25.5195 159.802 25.6151C159.847 25.6738 159.9 25.7265 159.958 25.7717V25.7717Z" fill="#263238"/>
<path d="M176.5 27.9239C176.591 27.9589 176.692 27.9589 176.784 27.9239C176.847 27.9078 176.906 27.8787 176.957 27.8385C177.009 27.7982 177.051 27.7477 177.082 27.6901C177.113 27.6325 177.131 27.5691 177.136 27.5039C177.141 27.4388 177.132 27.3733 177.11 27.3117V27.3117C176.885 26.5526 176.481 25.8588 175.933 25.2889C175.384 24.7191 174.707 24.2898 173.958 24.0373C173.896 24.0179 173.83 24.0114 173.765 24.0182C173.7 24.0251 173.637 24.045 173.58 24.077C173.523 24.1089 173.473 24.1522 173.433 24.2041C173.393 24.256 173.364 24.3155 173.348 24.379C173.313 24.5055 173.329 24.6407 173.393 24.7554C173.456 24.87 173.563 24.9547 173.689 24.9912V24.9912C174.276 25.2078 174.805 25.5586 175.234 26.0157C175.663 26.4729 175.979 27.0238 176.159 27.6249C176.187 27.6989 176.233 27.7648 176.292 27.817C176.352 27.8691 176.423 27.9058 176.5 27.9239V27.9239Z" fill="#263238"/>
<path d="M161.137 38.9473C161.137 38.9473 162.884 42.7057 166.448 42.5634" stroke="#263238" stroke-width="0.5" stroke-linecap="round" stroke-linejoin="round"/>
<path d="M156.607 12.334L156.749 16.9751C155.94 17.2698 155.272 17.8608 154.879 18.6294C154.487 19.398 154.399 20.2871 154.634 21.1178C155.741 25.104 153.001 30.884 149.834 32.991C149.834 32.991 149.834 31.3111 148.414 31.5674C146.995 31.8236 146.554 40.5647 148.897 44.9638C148.897 44.9638 143.885 40.337 142.394 30.9837C140.974 22.3422 141.244 16.8612 142.394 12.7184L156.607 12.334Z" fill="#B97964"/>
<path opacity="0.4" d="M156.607 12.334L156.749 16.9751C155.94 17.2698 155.272 17.8608 154.879 18.6294C154.487 19.398 154.399 20.2871 154.634 21.1178C155.741 25.104 153.001 30.884 149.834 32.991C149.834 32.991 149.834 31.3111 148.414 31.5674C146.995 31.8236 146.554 40.5647 148.897 44.9638C148.897 44.9638 143.885 40.337 142.394 30.9837C140.974 22.3422 141.244 16.8612 142.394 12.7184L156.607 12.334Z" fill="black"/>
<path d="M141.6 17.9027C146.667 18.4 151.781 18.0877 156.75 16.9774C171.048 14.1301 177.14 19.3975 177.14 19.3975C178.129 18.5053 178.909 17.4039 179.422 16.173C179.935 14.942 180.169 13.6121 180.107 12.2793C179.696 8.15079 173.973 7.45321 173.973 7.45321C173.973 7.45321 172.255 2.79789 168.464 1.38849C164.673 -0.0209134 160.868 3.50972 160.868 3.50972C160.868 3.50972 156.14 -1.0744 150.63 0.235345C148.776 0.616907 147.108 1.62542 145.906 3.09216C144.704 4.55891 144.041 6.39494 144.028 8.29315C144.028 8.29315 137.567 8.94803 137.709 12.2793C137.851 15.6107 141.6 17.9027 141.6 17.9027Z" fill="#263238"/>
<path d="M163.565 35.3504C166.13 35.3504 168.208 32.9475 168.208 29.9833C168.208 27.0191 166.13 24.6162 163.565 24.6162C161.001 24.6162 158.922 27.0191 158.922 29.9833C158.922 32.9475 161.001 35.3504 163.565 35.3504Z" stroke="#263238" stroke-width="0.5" stroke-linecap="round" stroke-linejoin="round"/>
<path d="M179.878 30.7812C179.75 31.6724 179.369 32.508 178.781 33.1885C178.193 33.8689 177.422 34.3657 176.561 34.6195C175.699 34.8733 174.783 34.8736 173.921 34.6202C173.06 34.3668 172.289 33.8705 171.7 33.1903C171.112 32.5102 170.731 31.6748 170.602 30.7837C170.474 29.8925 170.604 28.9832 170.976 28.1638C171.348 27.3445 171.948 26.6498 172.703 26.1623C173.458 25.6748 174.337 25.4151 175.235 25.4141C176.557 25.5162 177.786 26.1369 178.656 27.1416C179.525 28.1463 179.964 29.454 179.878 30.7812Z" stroke="#263238" stroke-width="0.5" stroke-linecap="round" stroke-linejoin="round"/>
<path d="M168.193 30.6111C168.193 30.6111 169.698 29.6715 170.593 30.7677" stroke="#263238" stroke-width="0.5" stroke-linecap="round" stroke-linejoin="round"/>
<path d="M158.922 29.9773L150.786 28.8811C149.72 28.7432 148.643 29.0351 147.791 29.6926L147.436 29.9773" stroke="#263238" stroke-width="0.5" stroke-linecap="round" stroke-linejoin="round"/>
<path d="M141.513 31.9316C142.329 34.4354 144.101 36.5135 146.44 37.7116C149.55 39.2633 151.765 36.6438 151.453 33.3552C151.169 30.4225 149.223 26.0093 145.773 25.8384C145.037 25.8137 144.306 25.9736 143.646 26.3036C142.987 26.6336 142.42 27.1232 141.997 27.7282C141.574 28.3332 141.309 29.0345 141.224 29.7684C141.14 30.5024 141.239 31.2459 141.513 31.9316V31.9316Z" fill="#B97964"/>
<path opacity="0.2" d="M89.6304 108.517C103.034 102.937 113.627 79.888 113.627 79.888L106.016 75.2754L95.6791 83.6037L94.742 87.0631C93.3221 92.3448 91.9874 97.9682 90.7095 103.663C90.3403 105.286 89.9853 106.909 89.6304 108.517Z" fill="black"/>
<path d="M163.452 110.963L186.568 102.449L187.235 104.414L164.105 112.671L163.452 110.963Z" fill="#0052FF"/>
<path d="M103.559 169.549L36.5532 158.896L30.0001 200.333L97.0055 210.986L103.559 169.549Z" fill="#0052FF"/>
<path d="M60.2535 174.677L46.6367 181.752L57.3995 192.7" stroke="white" stroke-width="2" stroke-linecap="round" stroke-linejoin="round"/>
<path d="M73.2583 195.216L86.8609 188.14L76.1123 177.192" stroke="white" stroke-width="2" stroke-linecap="round" stroke-linejoin="round"/>
<path d="M62.1406 193.45L71.3699 176.438" stroke="white" stroke-width="2" stroke-linecap="round" stroke-linejoin="round"/>
<path d="M97.9962 62.375C97.9962 62.375 72.7363 87.787 69.3002 92.727C65.864 97.667 59.2757 152.434 59.2757 152.434C59.2757 152.434 57.8558 152.919 57.7706 154.1C57.6854 155.282 57.5434 170.657 57.7706 171.369C57.9978 172.081 69.6125 179.27 71.3306 177.562C73.0487 175.853 75.4341 158.442 75.4341 158.442L69.3002 152.434C69.3002 152.434 76.3996 112.103 80.9007 105.568C85.4017 99.0337 103.747 85.0536 103.747 85.0536L97.9962 62.375Z" fill="#B97964"/>
<path d="M117.404 52.1445C121.082 59.9603 118.285 76.4176 111.498 82.2261C104.316 88.1969 96.725 93.6534 88.7794 98.5552L76.3979 82.283C76.3979 82.283 89.5746 69.3848 97.5544 61.9534C102.982 56.6781 109.926 53.2468 117.404 52.1445V52.1445Z" fill="#0052FF"/>
<path opacity="0.4" d="M117.404 52.1445C121.082 59.9603 118.285 76.4176 111.498 82.2261C104.316 88.1969 96.725 93.6534 88.7794 98.5552L76.3979 82.283C76.3979 82.283 89.5746 69.3848 97.5544 61.9534C102.982 56.6781 109.926 53.2468 117.404 52.1445V52.1445Z" fill="white"/>
<path d="M76.3973 81.2383L74.8638 83.331L87.799 100.287L89.6307 98.9768L76.3973 81.2383Z" fill="#0052FF"/>
</g>
<defs>
<clipPath id="clip0">
<rect width="602" height="412" fill="white"/>
</clipPath>
</defs>
</svg>
