<svg class="animated" id="freepik_stories-online-ads" xmlns="http://www.w3.org/2000/svg" viewBox="0 0 500 500" version="1.1" xmlns:xlink="http://www.w3.org/1999/xlink" xmlns:svgjs="http://svgjs.com/svgjs"><style>svg#freepik_stories-online-ads:not(.animated) .animable {opacity: 0;}svg#freepik_stories-online-ads.animated #freepik--ads-4--inject-1 {animation: 1.5s Infinite  linear floating;animation-delay: 0s;}svg#freepik_stories-online-ads.animated #freepik--ads-3--inject-1 {animation: 3s Infinite  linear floating;animation-delay: 0s;}svg#freepik_stories-online-ads.animated #freepik--ads-2--inject-1 {animation: 6s Infinite  linear floating;animation-delay: 0s;}svg#freepik_stories-online-ads.animated #freepik--ads-1--inject-1 {animation: 1.5s Infinite  linear floating;animation-delay: 0s;}            @keyframes floating {                0% {                    opacity: 1;                    transform: translateY(0px);                }                50% {                    transform: translateY(-10px);                }                100% {                    opacity: 1;                    transform: translateY(0px);                }            }        </style><g id="freepik--background-complete--inject-1" style="transform-origin: 250px 228.23px 0px;" class="animable"><rect x="416.78" y="398.49" width="33.12" height="0.25" style="fill: rgb(235, 235, 235); transform-origin: 433.34px 398.615px 0px;" id="elevtijc8pj9d" class="animable"></rect><rect x="322.53" y="401.21" width="8.69" height="0.25" style="fill: rgb(235, 235, 235); transform-origin: 326.875px 401.335px 0px;" id="elkgl2xs5vjda" class="animable"></rect><rect x="396.59" y="389.21" width="19.19" height="0.25" style="fill: rgb(235, 235, 235); transform-origin: 406.185px 389.335px 0px;" id="elpinjs5kc3o" class="animable"></rect><rect x="52.46" y="390.89" width="43.19" height="0.25" style="fill: rgb(235, 235, 235); transform-origin: 74.055px 391.015px 0px;" id="elw08tujm11e8" class="animable"></rect><rect x="104.56" y="390.89" width="6.33" height="0.25" style="fill: rgb(235, 235, 235); transform-origin: 107.725px 391.015px 0px;" id="el3v09i4ss805" class="animable"></rect><rect x="131.47" y="395.11" width="93.68" height="0.25" style="fill: rgb(235, 235, 235); transform-origin: 178.31px 395.235px 0px;" id="elaju3hoolqfg" class="animable"></rect><path d="M237,337.8H43.92a5.71,5.71,0,0,1-5.71-5.71V60.66A5.71,5.71,0,0,1,43.92,55H237a5.71,5.71,0,0,1,5.71,5.71V332.09A5.71,5.71,0,0,1,237,337.8ZM43.92,55.2a5.47,5.47,0,0,0-5.46,5.46V332.09a5.47,5.47,0,0,0,5.46,5.46H237a5.47,5.47,0,0,0,5.46-5.46V60.66A5.47,5.47,0,0,0,237,55.2Z" style="fill: rgb(235, 235, 235); transform-origin: 140.46px 196.4px 0px;" id="el02or59zkrks4" class="animable"></path><path d="M453.31,337.8H260.21a5.72,5.72,0,0,1-5.71-5.71V60.66A5.72,5.72,0,0,1,260.21,55h193.1A5.71,5.71,0,0,1,459,60.66V332.09A5.71,5.71,0,0,1,453.31,337.8ZM260.21,55.2a5.47,5.47,0,0,0-5.46,5.46V332.09a5.47,5.47,0,0,0,5.46,5.46h193.1a5.47,5.47,0,0,0,5.46-5.46V60.66a5.47,5.47,0,0,0-5.46-5.46Z" style="fill: rgb(235, 235, 235); transform-origin: 356.75px 196.4px 0px;" id="elbyd6qgbcyz" class="animable"></path><rect y="382.4" width="500" height="0.25" style="fill: rgb(235, 235, 235); transform-origin: 250px 382.525px 0px;" id="elhc7m5ijlu56" class="animable"></rect><circle cx="379.18" cy="102.99" r="27.28" style="fill: rgb(240, 240, 240); transform-origin: 379.18px 102.99px 0px;" id="elovncnk1bze" class="animable"></circle><path d="M379.25,130.88a27.9,27.9,0,1,1,0-55.79v1.22a26.68,26.68,0,0,0,0,53.35Z" style="fill: rgb(255, 255, 255); transform-origin: 365.036px 102.985px 0px;" id="el2pssgw9iq7r" class="animable"></path><path d="M379.25,130.88v-1.22a26.68,26.68,0,0,0,0-53.35V75.09a27.9,27.9,0,1,1,0,55.79Z" style="fill: rgb(255, 255, 255); transform-origin: 393.464px 102.985px 0px;" id="el6i5klfh8gm" class="animable"></path><path d="M393.51,103h-1.23c0-9-4.59-21.14-13.36-26.77l.66-1C388.73,81.06,393.51,93.62,393.51,103Z" style="fill: rgb(255, 255, 255); transform-origin: 386.215px 89.115px 0px;" id="elocge78azbbk" class="animable"></path><path d="M379.58,130l-.66-1c8.77-5.63,13.36-17.73,13.36-26.77h1.23C393.51,111.53,388.73,124.1,379.58,130Z" style="fill: rgb(255, 255, 255); transform-origin: 386.215px 116.115px 0px;" id="el48j7fyoxx2x" class="animable"></path><path d="M366.23,103H365c0-9.38,4.78-21.94,13.92-27.81l.66,1C370.81,81.85,366.23,93.94,366.23,103Z" style="fill: rgb(255, 255, 255); transform-origin: 372.29px 89.095px 0px;" id="el8v6c5gs7gbg" class="animable"></path><path d="M378.92,130c-9.14-5.86-13.92-18.42-13.92-27.8h1.23c0,9,4.58,21.14,13.35,26.77Z" style="fill: rgb(255, 255, 255); transform-origin: 372.29px 116.1px 0px;" id="elqbkw2jdxbxl" class="animable"></path><rect x="378.64" y="75.7" width="1.23" height="54.57" style="fill: rgb(255, 255, 255); transform-origin: 379.255px 102.985px 0px;" id="eli6z85tste6a" class="animable"></rect><rect x="356.16" y="87.84" width="46.19" height="1.23" style="fill: rgb(255, 255, 255); transform-origin: 379.255px 88.455px 0px;" id="elxueb390m8m8" class="animable"></rect><rect x="351.98" y="102.84" width="54.55" height="1.23" style="fill: rgb(255, 255, 255); transform-origin: 379.255px 103.455px 0px;" id="elrgnrzyd82c" class="animable"></rect><rect x="356.77" y="117.82" width="44.97" height="1.23" style="fill: rgb(255, 255, 255); transform-origin: 379.255px 118.435px 0px;" id="el6na9hujsxdh" class="animable"></rect><rect x="53.12" y="359.9" width="13.78" height="3.62" style="fill: rgb(230, 230, 230); transform-origin: 60.01px 361.71px 0px;" id="elp3pamym67s" class="animable"></rect><rect x="160.04" y="359.9" width="13.78" height="3.62" style="fill: rgb(230, 230, 230); transform-origin: 166.93px 361.71px 0px;" id="ele39wyb0coum" class="animable"></rect><rect x="75.01" y="361.71" width="3.62" height="21.3" style="fill: rgb(224, 224, 224); transform-origin: 76.82px 372.36px 0px;" id="elur5a14ginm" class="animable"></rect><rect x="64.85" y="261.73" width="98.73" height="7.72" style="fill: rgb(230, 230, 230); transform-origin: 114.215px 265.59px 0px;" id="elr2kr9ffdzbe" class="animable"></rect><rect x="64.85" y="357.85" width="98.73" height="7.72" style="fill: rgb(230, 230, 230); transform-origin: 114.215px 361.71px 0px;" id="elhnbom1ei6e" class="animable"></rect><path d="M68.62,373.13l-.31.32a2.84,2.84,0,0,1-4.09,0l-.3-.32a5.09,5.09,0,0,1-1.43-3.55V263.79a5.13,5.13,0,0,1,1.43-3.55l.3-.32a2.84,2.84,0,0,1,4.09,0l.31.32a5.17,5.17,0,0,1,1.43,3.55V369.58A5.14,5.14,0,0,1,68.62,373.13Z" style="fill: rgb(240, 240, 240); transform-origin: 66.27px 316.685px 0px;" id="el80d58yw95dv" class="animable"></path><path d="M79.17,373.13l-.31.32a2.84,2.84,0,0,1-4.09,0l-.3-.32A5.09,5.09,0,0,1,73,369.58V263.79a5.13,5.13,0,0,1,1.43-3.55l.3-.32a2.84,2.84,0,0,1,4.09,0l.31.32a5.13,5.13,0,0,1,1.43,3.55V369.58A5.09,5.09,0,0,1,79.17,373.13Z" style="fill: rgb(240, 240, 240); transform-origin: 76.7801px 316.685px 0px;" id="elgmlfz0pnhkv" class="animable"></path><path d="M89.72,373.13l-.31.32a2.84,2.84,0,0,1-4.09,0l-.3-.32a5.09,5.09,0,0,1-1.43-3.55V263.79A5.13,5.13,0,0,1,85,260.24l.3-.32a2.84,2.84,0,0,1,4.09,0l.31.32a5.13,5.13,0,0,1,1.43,3.55V369.58A5.09,5.09,0,0,1,89.72,373.13Z" style="fill: rgb(240, 240, 240); transform-origin: 87.36px 316.685px 0px;" id="elfsain5weidv" class="animable"></path><path d="M100.27,373.13l-.31.32a2.84,2.84,0,0,1-4.09,0l-.3-.32a5.09,5.09,0,0,1-1.43-3.55V263.79a5.13,5.13,0,0,1,1.43-3.55l.3-.32a2.84,2.84,0,0,1,4.09,0l.31.32a5.13,5.13,0,0,1,1.43,3.55V369.58A5.09,5.09,0,0,1,100.27,373.13Z" style="fill: rgb(240, 240, 240); transform-origin: 97.92px 316.685px 0px;" id="elwpntyqzcht" class="animable"></path><path d="M110.82,373.13l-.31.32a2.84,2.84,0,0,1-4.09,0l-.3-.32a5.09,5.09,0,0,1-1.43-3.55V263.79a5.13,5.13,0,0,1,1.43-3.55l.3-.32a2.84,2.84,0,0,1,4.09,0l.31.32a5.13,5.13,0,0,1,1.43,3.55V369.58A5.09,5.09,0,0,1,110.82,373.13Z" style="fill: rgb(240, 240, 240); transform-origin: 108.47px 316.685px 0px;" id="elr8jjuptht7l" class="animable"></path><path d="M121.37,373.13l-.3.32a2.85,2.85,0,0,1-4.1,0l-.3-.32a5.09,5.09,0,0,1-1.43-3.55V263.79a5.13,5.13,0,0,1,1.43-3.55l.3-.32a2.85,2.85,0,0,1,4.1,0l.3.32a5.13,5.13,0,0,1,1.43,3.55V369.58A5.09,5.09,0,0,1,121.37,373.13Z" style="fill: rgb(240, 240, 240); transform-origin: 119.02px 316.685px 0px;" id="elmxlewnqjo4" class="animable"></path><path d="M131.92,373.13l-.3.32a2.85,2.85,0,0,1-4.1,0l-.3-.32a5.09,5.09,0,0,1-1.43-3.55V263.79a5.13,5.13,0,0,1,1.43-3.55l.3-.32a2.85,2.85,0,0,1,4.1,0l.3.32a5.13,5.13,0,0,1,1.43,3.55V369.58A5.09,5.09,0,0,1,131.92,373.13Z" style="fill: rgb(240, 240, 240); transform-origin: 129.57px 316.685px 0px;" id="eltvf9qo6fr8" class="animable"></path><path d="M142.47,373.13l-.3.32a2.84,2.84,0,0,1-4.09,0l-.31-.32a5.09,5.09,0,0,1-1.43-3.55V263.79a5.13,5.13,0,0,1,1.43-3.55l.31-.32a2.84,2.84,0,0,1,4.09,0l.3.32a5.13,5.13,0,0,1,1.43,3.55V369.58A5.09,5.09,0,0,1,142.47,373.13Z" style="fill: rgb(240, 240, 240); transform-origin: 140.12px 316.685px 0px;" id="el1k2lvlm19hk" class="animable"></path><rect x="146.89" y="361.71" width="3.62" height="21.3" style="fill: rgb(224, 224, 224); transform-origin: 148.7px 372.36px 0px;" id="eleihbwe41ze" class="animable"></rect><path d="M153,373.13l-.3.32a2.84,2.84,0,0,1-4.09,0l-.31-.32a5.09,5.09,0,0,1-1.43-3.55V263.79a5.13,5.13,0,0,1,1.43-3.55l.31-.32a2.84,2.84,0,0,1,4.09,0l.3.32a5.13,5.13,0,0,1,1.43,3.55V369.58A5.09,5.09,0,0,1,153,373.13Z" style="fill: rgb(240, 240, 240); transform-origin: 150.65px 316.685px 0px;" id="el34uv7btphmp" class="animable"></path><path d="M163.57,373.13l-.3.32a2.84,2.84,0,0,1-4.09,0l-.31-.32a5.09,5.09,0,0,1-1.43-3.55V263.79a5.13,5.13,0,0,1,1.43-3.55l.31-.32a2.84,2.84,0,0,1,4.09,0l.3.32a5.13,5.13,0,0,1,1.43,3.55V369.58A5.09,5.09,0,0,1,163.57,373.13Z" style="fill: rgb(240, 240, 240); transform-origin: 161.22px 316.685px 0px;" id="elts7a6xlng8b" class="animable"></path><rect x="170.98" y="349.76" width="3.62" height="33.07" style="fill: rgb(245, 245, 245); transform-origin: 172.79px 366.295px 0px;" id="el5vkgpckqejm" class="animable"></rect><path d="M388.61,328.29S384,276,359.66,225.79c0,0,35.86,33.47,37.12,102.5Z" style="fill: rgb(245, 245, 245); transform-origin: 378.22px 277.04px 0px;" id="elgrimpzd451e" class="animable"></path><path d="M394.27,336.39s-19.52-91-16-139.24c0,0,26.11,53.67,24.85,134.78Z" style="fill: rgb(245, 245, 245); transform-origin: 390.505px 266.77px 0px;" id="el2ju68bb9nwb" class="animable"></path><path d="M408.68,330.64s1.86-59.43,11.4-88.78c0,0,8,37.27-5.26,87.37Z" style="fill: rgb(230, 230, 230); transform-origin: 415.576px 286.25px 0px;" id="el9la7kjx0rpr" class="animable"></path><path d="M403.07,331.93s-6.29-79.25,11.32-114.76c0,0,1.89,72-2.52,114.76Z" style="fill: rgb(230, 230, 230); transform-origin: 408.385px 274.55px 0px;" id="elrk3r8w1pp9" class="animable"></path><polygon points="423.17 382.61 383.37 382.61 377.68 323.88 428.87 323.88 423.17 382.61" style="fill: rgb(240, 240, 240); transform-origin: 403.275px 353.245px 0px;" id="elow8yz8e8n" class="animable"></polygon><path d="M417.94,332.38s4.65-52.29,28.94-102.51c0,0-35.86,33.48-37.12,102.51Z" style="fill: rgb(245, 245, 245); transform-origin: 428.32px 281.125px 0px;" id="el8fua3n2pezd" class="animable"></path></g><g id="freepik--Shadow--inject-1" style="transform-origin: 245.18px 412.39px 0px;" class="animable"><ellipse id="freepik--path--inject-1" cx="245.18" cy="412.39" rx="193.89" ry="11.32" style="fill: rgb(245, 245, 245); transform-origin: 245.18px 412.39px 0px;" class="animable"></ellipse></g><g id="freepik--Device--inject-1" style="transform-origin: 214.354px 275.384px 0px;" class="animable"><path d="M163.89,400.72v2.92a2.74,2.74,0,0,0,2.74,2.73H271.24a2.51,2.51,0,0,0,2.52-2.52v-2.8a2.51,2.51,0,0,0-2.52-2.52h-26a4.77,4.77,0,0,1-4.7-5.58l9.13-52.72H190.24l-25.44,56.3A10.06,10.06,0,0,0,163.89,400.72Z" style="fill: rgb(38, 50, 56); transform-origin: 218.825px 373.3px 0px;" id="el0hn0ya5biqdj" class="animable"></path><g id="elvmxyc8e21wh"><path d="M273.76,401v2.82a2.5,2.5,0,0,1-2.51,2.51H166.63a2.74,2.74,0,0,1-2.74-2.73v-2.92a10,10,0,0,1,.26-2.3,10.62,10.62,0,0,1,.64-1.9l25.45-56.29h59.43L240.54,393a3.65,3.65,0,0,0-.07.93,4.75,4.75,0,0,0,3.77,4.54,4,4,0,0,0,1,.11h26A2.51,2.51,0,0,1,273.76,401Z" style="fill: rgb(255, 255, 255); opacity: 0.2; transform-origin: 218.825px 373.26px 0px;" class="animable"></path></g><path d="M161.43,396.53l25.45-56.3h3.36l-25.44,56.3a10.06,10.06,0,0,0-.91,4.19v2.92a2.74,2.74,0,0,0,2.74,2.73h-3.36a2.73,2.73,0,0,1-2.74-2.73v-2.92A10.21,10.21,0,0,1,161.43,396.53Z" style="fill: rgb(38, 50, 56); transform-origin: 175.385px 373.3px 0px;" id="elr9t7lqjrhan" class="animable"></path><g id="elbcbogau4rdm"><polygon points="190.24 340.23 249.66 340.23 247.33 353.68 184.16 353.68 190.24 340.23" style="opacity: 0.3; transform-origin: 216.91px 346.955px 0px;" class="animable"></polygon></g><path d="M352.73,346.14H99.21a10.32,10.32,0,0,1-10.08-9.27l-16-183.2a8.36,8.36,0,0,1,8.46-9.27H335.08a10.31,10.31,0,0,1,10.08,9.27l16,183.2A8.36,8.36,0,0,1,352.73,346.14Z" style="fill: rgb(38, 50, 56); transform-origin: 217.145px 245.27px 0px;" id="eld6ytargefdm" class="animable"></path><path d="M359.46,317.06l1.73,19.81a8.36,8.36,0,0,1-8.46,9.27H99.21a10.32,10.32,0,0,1-10.08-9.27L87.4,317.06Z" style="fill: rgb(64, 123, 255); transform-origin: 224.32px 331.601px 0px;" id="el2gnfb6naapg" class="animable"></path><g id="elkjs363k1dl8"><path d="M359.46,317.06l1.73,19.81a8.36,8.36,0,0,1-8.46,9.27H99.21a10.32,10.32,0,0,1-10.08-9.27L87.4,317.06Z" style="fill: rgb(255, 255, 255); opacity: 0.6; transform-origin: 224.32px 331.601px 0px;" class="animable"></path></g><path d="M96.34,311.46H349.53a4.53,4.53,0,0,0,4.59-5L340.87,155a5.59,5.59,0,0,0-5.46-5H82.22a4.53,4.53,0,0,0-4.59,5L90.88,306.44A5.59,5.59,0,0,0,96.34,311.46Z" style="fill: rgb(64, 123, 255); transform-origin: 215.875px 230.73px 0px;" id="elw58h7doplie" class="animable"></path><g id="eli63yfq2794"><path d="M96.34,311.46H349.53a4.53,4.53,0,0,0,4.59-5L340.87,155a5.59,5.59,0,0,0-5.46-5H82.22a4.53,4.53,0,0,0-4.59,5L90.88,306.44A5.59,5.59,0,0,0,96.34,311.46Z" style="fill: rgb(255, 255, 255); opacity: 0.6; transform-origin: 215.875px 230.73px 0px;" class="animable"></path></g><path d="M76,144.4h5.61a8.36,8.36,0,0,0-8.46,9.27l16,183.2a10.32,10.32,0,0,0,10.08,9.27H93.6a10.32,10.32,0,0,1-10.08-9.27l-16-183.2A8.35,8.35,0,0,1,76,144.4Z" style="fill: rgb(64, 123, 255); transform-origin: 83.3495px 245.269px 0px;" id="elemx2is8yvu8" class="animable"></path><g id="elfq1aywq5nt4"><path d="M76,144.4h5.61a8.36,8.36,0,0,0-8.46,9.27l16,183.2a10.32,10.32,0,0,0,10.08,9.27H93.6a10.32,10.32,0,0,1-10.08-9.27l-16-183.2A8.35,8.35,0,0,1,76,144.4Z" style="fill: rgb(255, 255, 255); opacity: 0.3; transform-origin: 83.3495px 245.269px 0px;" class="animable"></path></g><g id="elm5fztwhhfwp"><polygon points="300.31 278.29 159.62 278.29 152.34 195.18 293.04 195.18 300.31 278.29" style="fill: rgb(38, 50, 56); opacity: 0.2; transform-origin: 226.325px 236.735px 0px;" class="animable"></polygon></g><path d="M242.91,227.56a15.77,15.77,0,0,1-16,17.5,19.47,19.47,0,0,1-19-17.5,15.77,15.77,0,0,1,16-17.5A19.48,19.48,0,0,1,242.91,227.56Z" style="fill: rgb(255, 255, 255); transform-origin: 225.41px 227.56px 0px;" id="elb64l5fgi0n" class="animable"></path><polygon points="235.01 228.21 219.7 219.79 221.18 236.62 235.01 228.21" style="fill: rgb(38, 50, 56); transform-origin: 227.355px 228.205px 0px;" id="elwlavbridt08" class="animable"></polygon><polygon points="297.02 261.98 160.05 261.98 159.81 259.28 296.78 259.28 297.02 261.98" style="fill: rgb(255, 255, 255); transform-origin: 228.415px 260.63px 0px;" id="elcmhk918e7tw" class="animable"></polygon><polygon points="236.83 261.98 160.05 261.98 159.81 259.28 236.59 259.28 236.83 261.98" style="fill: rgb(64, 123, 255); transform-origin: 198.32px 260.63px 0px;" id="elsyl9ijl1ems" class="animable"></polygon><polygon points="162.4 271.97 161.08 271.97 160.63 266.78 161.95 266.78 162.4 271.97" style="fill: rgb(255, 255, 255); transform-origin: 161.515px 269.375px 0px;" id="el0qdfjgmd4nue" class="animable"></polygon><polygon points="164.71 271.97 163.39 271.97 162.94 266.78 164.26 266.78 164.71 271.97" style="fill: rgb(255, 255, 255); transform-origin: 163.825px 269.375px 0px;" id="elhzoro812qm" class="animable"></polygon><polygon points="176.58 271.97 171.39 271.97 170.94 266.78 176.13 266.78 176.58 271.97" style="fill: rgb(255, 255, 255); transform-origin: 173.76px 269.375px 0px;" id="eljad8w2qr3s" class="animable"></polygon><polygon points="183.47 269.37 187.74 266.78 188.19 271.97 183.47 269.37" style="fill: rgb(255, 255, 255); transform-origin: 185.83px 269.375px 0px;" id="el5g6fd0su485" class="animable"></polygon><polygon points="183.7 271.97 182.37 271.97 181.92 266.78 183.24 266.78 183.7 271.97" style="fill: rgb(255, 255, 255); transform-origin: 182.81px 269.375px 0px;" id="elfcv4w6c54a5" class="animable"></polygon><polygon points="198.05 269.37 193.32 266.78 193.78 271.97 198.05 269.37" style="fill: rgb(255, 255, 255); transform-origin: 195.685px 269.375px 0px;" id="el9qygne5gbzu" class="animable"></polygon><polygon points="198.27 271.97 199.6 271.97 199.14 266.78 197.82 266.78 198.27 271.97" style="fill: rgb(255, 255, 255); transform-origin: 198.71px 269.375px 0px;" id="elkwhtelvcjwl" class="animable"></polygon><polygon points="207.7 266.68 205.38 269.81 210.57 269.81 207.7 266.68" style="fill: rgb(255, 255, 255); transform-origin: 207.975px 268.245px 0px;" id="el0qmfccb8b6y9" class="animable"></polygon><polygon points="210.87 272.07 210.75 270.74 205.37 270.74 205.48 272.07 210.87 272.07" style="fill: rgb(255, 255, 255); transform-origin: 208.12px 271.405px 0px;" id="el41gpclx3lfr" class="animable"></polygon><path d="M298,272.39H288l-.54-6.13h10Zm-9.25-.85h8.32l-.39-4.43h-8.31Z" style="fill: rgb(255, 255, 255); transform-origin: 292.73px 269.325px 0px;" id="el775b5mh6q1" class="animable"></path><polygon points="280.6 272.39 278.57 272.39 278.41 270.59 279.26 270.52 279.35 271.54 280.6 271.54 280.6 272.39" style="fill: rgb(255, 255, 255); transform-origin: 279.505px 271.455px 0px;" id="elknow66c53wg" class="animable"></polygon><polygon points="285.09 272.39 283.05 272.39 283.05 271.54 284.16 271.54 284.08 270.59 284.93 270.52 285.09 272.39" style="fill: rgb(255, 255, 255); transform-origin: 284.07px 271.455px 0px;" id="ellrbet8otpg" class="animable"></polygon><polygon points="283.87 268.21 283.78 267.11 282.59 267.11 282.59 266.26 284.56 266.26 284.72 268.14 283.87 268.21" style="fill: rgb(255, 255, 255); transform-origin: 283.655px 267.235px 0px;" id="elhed4pbut64" class="animable"></polygon><polygon points="278.2 268.21 278.03 266.26 280.13 266.26 280.13 267.11 278.96 267.11 279.05 268.14 278.2 268.21" style="fill: rgb(255, 255, 255); transform-origin: 279.08px 267.235px 0px;" id="elu9n26o5n1wo" class="animable"></polygon><g id="elz4fpo5cejh"><g style="opacity: 0.1; transform-origin: 286.154px 248.129px 0px;" class="animable"><polyline points="281.56 259.29 280.94 261.98 279.86 266.68 278.87 271.01 277.2 278.29 281.35 278.29 283.98 266.68 285.05 261.98 285.66 259.29 295.03 217.97" style="fill: rgb(255, 255, 255); transform-origin: 286.115px 248.13px 0px;" id="elzigcfurjyx" class="animable"></polyline><path d="M281.35,278.79h-4.14a.51.51,0,0,1-.4-.19.49.49,0,0,1-.09-.42l4.35-19a.5.5,0,1,1,1,.23l-4.21,18.39H281l13.59-59.93a.5.5,0,1,1,1,.22L281.84,278.4A.51.51,0,0,1,281.35,278.79Z" style="fill: rgb(38, 50, 56); transform-origin: 286.154px 248.129px 0px;" id="el03awni7g8zoc" class="animable"></path></g></g><polygon points="293.04 195.18 152.34 195.18 151.69 187.66 292.38 187.66 293.04 195.18" style="fill: rgb(64, 123, 255); transform-origin: 222.365px 191.42px 0px;" id="ell1i3vnh834g" class="animable"></polygon><path d="M162.31,191.47a2.09,2.09,0,0,1-2.12,2.33,2.58,2.58,0,0,1-2.52-2.33,2.1,2.1,0,0,1,2.12-2.32A2.58,2.58,0,0,1,162.31,191.47Z" style="fill: rgb(255, 255, 255); transform-origin: 159.991px 191.475px 0px;" id="elgkaxf7bn4ce" class="animable"></path><path d="M169.27,191.47a2.1,2.1,0,0,1-2.12,2.33,2.58,2.58,0,0,1-2.53-2.33,2.1,2.1,0,0,1,2.12-2.32A2.6,2.6,0,0,1,169.27,191.47Z" style="fill: rgb(255, 255, 255); transform-origin: 166.946px 191.475px 0px;" id="elyf80hhe5cy" class="animable"></path><path d="M176.22,191.47a2.1,2.1,0,0,1-2.12,2.33,2.6,2.6,0,0,1-2.53-2.33,2.1,2.1,0,0,1,2.12-2.32A2.6,2.6,0,0,1,176.22,191.47Z" style="fill: rgb(255, 255, 255); transform-origin: 173.896px 191.475px 0px;" id="elffwcnibd2e" class="animable"></path><g id="eltxn2g6pxx8"><g style="opacity: 0.1; transform-origin: 141.345px 230.73px 0px;" class="animable"><polygon points="186.59 150 176.85 150 142.53 311.46 152.27 311.46 186.59 150" style="fill: rgb(255, 255, 255); transform-origin: 164.56px 230.73px 0px;" id="elsr6io3xpme" class="animable"></polygon><polygon points="132.69 311.46 167.01 150 130.42 150 96.1 311.46 132.69 311.46" style="fill: rgb(255, 255, 255); transform-origin: 131.555px 230.73px 0px;" id="elk9jd5lthvbf" class="animable"></polygon></g></g><g id="elaw9ynt94528"><path d="M182,401.06v2.68a2.64,2.64,0,0,0,2.64,2.63h86.64a2.51,2.51,0,0,0,2.52-2.51v-2.81a2.52,2.52,0,0,0-2.52-2.52h-26a4.46,4.46,0,0,1-1-.11H184.61A2.64,2.64,0,0,0,182,401.06Z" style="fill: rgb(255, 255, 255); opacity: 0.2; transform-origin: 227.9px 402.395px 0px;" class="animable"></path></g><g id="ellflxeimnln"><path d="M164.16,398.42h80.09a4.73,4.73,0,0,1-3.78-4.55H166.2Z" style="opacity: 0.2; transform-origin: 204.205px 396.145px 0px;" class="animable"></path></g></g><g id="freepik--ads-4--inject-1" style="transform-origin: 283.23px 272.39px 0px;" class="animable"><polygon points="332.06 227.36 231.96 227.36 231.25 219.32 331.36 219.32 332.06 227.36" style="fill: rgb(38, 50, 56); transform-origin: 281.655px 223.34px 0px;" id="elhuzp4hoe86r" class="animable"></polygon><path d="M242.61,223.4a2.23,2.23,0,0,1-2.26,2.48,2.76,2.76,0,0,1-2.7-2.48,2.23,2.23,0,0,1,2.26-2.48A2.76,2.76,0,0,1,242.61,223.4Z" style="fill: rgb(255, 255, 255); transform-origin: 240.13px 223.4px 0px;" id="elayggxlgkxo" class="animable"></path><path d="M250,223.4a2.23,2.23,0,0,1-2.26,2.48,2.76,2.76,0,0,1-2.7-2.48,2.23,2.23,0,0,1,2.26-2.48A2.76,2.76,0,0,1,250,223.4Z" style="fill: rgb(255, 255, 255); transform-origin: 247.52px 223.4px 0px;" id="elygvpdr718nj" class="animable"></path><path d="M257.47,223.4a2.23,2.23,0,0,1-2.26,2.48,2.76,2.76,0,0,1-2.7-2.48,2.23,2.23,0,0,1,2.26-2.48A2.76,2.76,0,0,1,257.47,223.4Z" style="fill: rgb(255, 255, 255); transform-origin: 254.99px 223.4px 0px;" id="elzs8j72ivw8k" class="animable"></path><g id="elab5af8vfazd"><polygon points="235.1 326.01 226.34 225.91 326.45 225.91 335.21 326.01 235.1 326.01" style="opacity: 0.2; transform-origin: 280.775px 275.96px 0px;" class="animable"></polygon></g><polygon points="340.12 319.43 240.01 319.43 231.25 219.32 331.36 219.32 340.12 319.43" style="fill: rgb(64, 123, 255); transform-origin: 285.685px 269.375px 0px;" id="el0tr7ajkzm66" class="animable"></polygon><path d="M310.68,277.63c1.51,17.27-8.75,24.27-22.15,24.27S263.31,291,262.14,277.63s8.2-30.5,21.6-30.5C283.74,247.13,309.29,261.83,310.68,277.63Z" style="fill: rgb(64, 123, 255); transform-origin: 286.435px 274.515px 0px;" id="el5rij202cfnt" class="animable"></path><path d="M294.83,280.44c.3,3.49-2.3,5.82-6.65,6.19l-.32,2.88h-2.62l.32-2.88a13.66,13.66,0,0,1-6.21-2l1.48-3.25a11.16,11.16,0,0,0,5.12,1.86l.5-4.43c-2.5-.74-5.26-1.71-5.54-4.88-.31-3.49,2.35-5.85,6.78-6.16l.32-2.89h2.62l-.32,2.92a12.15,12.15,0,0,1,5,1.49L294,272.52a9.33,9.33,0,0,0-4-1.36l-.51,4.61C291.89,276.48,294.56,277.42,294.83,280.44Zm-8-5.4.42-3.78c-1.46.29-2.23,1.1-2.17,2.1C285.18,274.17,285.88,274.64,286.86,275Zm3.78,6.08c-.07-.76-.71-1.23-1.66-1.57l-.39,3.59C290,282.85,290.73,282.12,290.64,281.12Z" style="fill: rgb(64, 123, 255); transform-origin: 287.33px 277.195px 0px;" id="el58u7bmzfvsj" class="animable"></path><g id="elvfypzikx5up"><ellipse cx="289.03" cy="274.71" rx="15.68" ry="17.93" style="fill: rgb(38, 50, 56); transform-origin: 289.03px 274.71px 0px; transform: rotate(-87.1376deg);" class="animable"></ellipse></g><path d="M271.28,278.57c4.5,7.76,15.29,10.94,24.11,7.1s12.32-13.25,7.82-21-15.3-10.94-24.12-7.1S266.78,270.81,271.28,278.57Z" style="fill: rgb(64, 123, 255); transform-origin: 287.244px 271.621px 0px;" id="elzpduri34v5l" class="animable"></path><g id="elbecy24i4u9e"><path d="M271.28,278.57c4.5,7.76,15.29,10.94,24.11,7.1s12.32-13.25,7.82-21-15.3-10.94-24.12-7.1S266.78,270.81,271.28,278.57Z" style="fill: rgb(255, 255, 255); opacity: 0.4; transform-origin: 287.244px 271.621px 0px;" class="animable"></path></g><path d="M275.13,276.58c.21.37.46.73.68,1.06,0,0,0,.06.05.08,3.76,5,11.2,6.86,17.33,4.19s8.89-9,6.51-14.57c0,0-.06,0-.05-.08-.18-.36-.36-.74-.58-1.11-3.37-5.81-11.48-8.19-18.09-5.31S271.76,270.77,275.13,276.58Z" style="fill: rgb(64, 123, 255); transform-origin: 287.104px 271.373px 0px;" id="elal04dg9vsab" class="animable"></path><g id="elun5dsea9sj"><path d="M275.81,277.64s0,.06.05.08c3.76,5,11.2,6.86,17.33,4.19s8.89-9,6.51-14.57c0,0-.06,0-.05-.08-3.75-5-11.2-6.86-17.37-4.17S273.44,272.07,275.81,277.64Z" style="fill: rgb(255, 255, 255); opacity: 0.3; transform-origin: 287.751px 272.493px 0px;" class="animable"></path></g><g id="elt2ge1jikka"><g style="opacity: 0.4; transform-origin: 286.991px 272.245px 0px;" class="animable"><path d="M291.93,274.39c.4,2.3-1.18,3.84-4,4.08l-.05,1.9h-1.73l.05-1.9a9.47,9.47,0,0,1-4.21-1.33l.78-2.14a7.94,7.94,0,0,0,3.48,1.22l.08-2.92c-1.69-.48-3.57-1.12-3.94-3.22-.4-2.3,1.21-3.85,4.12-4.06l0-1.9h1.73l0,1.92a8.77,8.77,0,0,1,3.35,1l-.67,2.15a6.77,6.77,0,0,0-2.74-.9l-.07,3C289.76,271.78,291.58,272.4,291.93,274.39Zm-5.57-3.56.07-2.49c-1,.19-1.42.72-1.32,1.38S285.69,270.57,286.36,270.83Zm2.85,4c-.09-.5-.54-.81-1.19-1l0,2.37C288.87,276,289.32,275.5,289.21,274.84Z" style="fill: rgb(255, 255, 255); transform-origin: 286.991px 272.245px 0px;" id="elnh0urspea3" class="animable"></path></g></g><text transform="matrix(1, 0, 0.09, 1, 267.51, 245.54)" style="font-size:12.873990058898926px;fill:#fff;font-family:Montserrat-ExtraBold, Montserrat;font-weight:800">Only</text><text transform="matrix(1, 0, 0.09, 1, 260.97, 305.29)" style="font-size:9.214759826660156px;fill:#fff;font-family:Montserrat-ExtraBold, Montserrat;font-weight:800">1$/month !!!</text><polygon points="332.06 226.81 231.96 226.81 231.25 218.77 331.36 218.77 332.06 226.81" style="fill: rgb(38, 50, 56); transform-origin: 281.655px 222.79px 0px;" id="elwyqpp3sjddb" class="animable"></polygon><path d="M242.61,222.85a2.23,2.23,0,0,1-2.26,2.48,2.76,2.76,0,0,1-2.7-2.48,2.23,2.23,0,0,1,2.26-2.48A2.76,2.76,0,0,1,242.61,222.85Z" style="fill: rgb(255, 255, 255); transform-origin: 240.13px 222.85px 0px;" id="el56482qvvarp" class="animable"></path><path d="M250,222.85a2.23,2.23,0,0,1-2.26,2.48,2.76,2.76,0,0,1-2.7-2.48,2.23,2.23,0,0,1,2.26-2.48A2.76,2.76,0,0,1,250,222.85Z" style="fill: rgb(255, 255, 255); transform-origin: 247.52px 222.85px 0px;" id="el8qc6tuq19df" class="animable"></path><path d="M257.47,222.85a2.23,2.23,0,0,1-2.26,2.48,2.76,2.76,0,0,1-2.7-2.48,2.23,2.23,0,0,1,2.26-2.48A2.76,2.76,0,0,1,257.47,222.85Z" style="fill: rgb(255, 255, 255); transform-origin: 254.99px 222.85px 0px;" id="elgm7va1exf4t" class="animable"></path></g><g id="freepik--ads-3--inject-1" style="transform-origin: 281.54px 156.43px 0px;" class="animable"><g id="eliv8e4kip2x"><polygon points="236.5 206.34 228.31 112.68 321.98 112.68 330.17 206.34 236.5 206.34" style="opacity: 0.2; transform-origin: 279.24px 159.51px 0px;" class="animable"></polygon></g><polygon points="334.77 200.19 241.1 200.19 232.91 106.52 326.57 106.52 334.77 200.19" style="fill: rgb(64, 123, 255); transform-origin: 283.84px 153.355px 0px;" id="elu153qotwinr" class="animable"></polygon><path d="M275.19,134.21,270.73,127s2.47-5.29,6-5.48,7.5,2.93,7.5,2.93l4.34-1.88-2.28,12.73S280.52,140.29,275.19,134.21Z" style="fill: rgb(255, 255, 255); transform-origin: 279.65px 129.369px 0px;" id="elx2qmp7rau7j" class="animable"></path><path d="M307.22,161.08c1.41,16.15-8.18,22.7-20.72,22.7a25.27,25.27,0,0,1-24.69-22.7c-1.1-12.54,7.67-28.54,20.21-28.54C282,132.54,305.93,146.29,307.22,161.08Z" style="fill: rgb(64, 123, 255); transform-origin: 284.537px 158.16px 0px;" id="el4mj9h1c98ks" class="animable"></path><path d="M307.22,161.08c1.41,16.15-8.18,22.7-20.72,22.7a25.27,25.27,0,0,1-24.69-22.7c-1.1-12.54,7.67-28.54,20.21-28.54C282,132.54,305.93,146.29,307.22,161.08Z" style="fill: rgb(255, 255, 255); transform-origin: 284.537px 158.16px 0px;" id="eloa6m8z153rm" class="animable"></path><path d="M293,162.7c1.14,3.27-.72,5.45-4.7,5.79l.4,2.7h-2.45l-.4-2.7a15.69,15.69,0,0,1-6.31-1.89l.58-3a13.09,13.09,0,0,0,5.25,1.74l-.62-4.14c-2.52-.69-5.34-1.6-6.38-4.57-1.14-3.26.76-5.47,4.83-5.76l-.41-2.7h2.46l.41,2.72a14.17,14.17,0,0,1,5,1.4l-.43,3a10.91,10.91,0,0,0-4.1-1.27l.65,4.32C289.29,159,292,159.88,293,162.7Zm-8.79-5-.52-3.53c-1.31.27-1.83,1-1.53,2C282.45,156.84,283.22,157.28,284.23,157.65Zm5,5.69a2.72,2.72,0,0,0-1.93-1.47l.51,3.36C289.07,165,289.59,164.27,289.26,163.34Z" style="fill: rgb(64, 123, 255); transform-origin: 285.687px 159.68px 0px;" id="ela0chaspuj8u" class="animable"></path><g id="elxz5117dnt7l"><path d="M283.56,134.76c-.85-2.77-1.61-5.57-2.45-8.34a4,4,0,0,0-3.3-.88,3.05,3.05,0,0,0-2.25,2.09,31.15,31.15,0,0,0,3.11,6.71,2.47,2.47,0,0,1,2.31-1A3.55,3.55,0,0,1,283.56,134.76Z" style="opacity: 0.1; transform-origin: 279.56px 130.118px 0px;" class="animable"></path></g><g id="elt8s41svv8ot"><path d="M284.67,133.78c.37-2.13.55-4.38.93-6.51-.46.24-.79.47-1.24.71-.06,1.63-.44,5.55-.32,5.79" style="opacity: 0.1; transform-origin: 284.808px 130.525px 0px;" class="animable"></path></g><polygon points="327.23 114.04 233.56 114.04 232.91 106.52 326.57 106.52 327.23 114.04" style="fill: rgb(38, 50, 56); transform-origin: 280.07px 110.28px 0px;" id="eljzjf2gn3tmj" class="animable"></polygon><path d="M243.53,110.33a2.08,2.08,0,0,1-2.11,2.32,2.58,2.58,0,0,1-2.53-2.32A2.1,2.1,0,0,1,241,108,2.58,2.58,0,0,1,243.53,110.33Z" style="fill: rgb(255, 255, 255); transform-origin: 241.211px 110.325px 0px;" id="el4wh0xzziq2a" class="animable"></path><path d="M250.49,110.33a2.1,2.1,0,0,1-2.12,2.32,2.58,2.58,0,0,1-2.53-2.32A2.1,2.1,0,0,1,248,108,2.6,2.6,0,0,1,250.49,110.33Z" style="fill: rgb(255, 255, 255); transform-origin: 248.164px 110.324px 0px;" id="el2av5lsmdban" class="animable"></path><path d="M257.44,110.33a2.1,2.1,0,0,1-2.12,2.32,2.6,2.6,0,0,1-2.53-2.32,2.1,2.1,0,0,1,2.12-2.32A2.59,2.59,0,0,1,257.44,110.33Z" style="fill: rgb(255, 255, 255); transform-origin: 255.115px 110.33px 0px;" id="elv4n2cqai8ds" class="animable"></path></g><g id="freepik--ads-2--inject-1" style="transform-origin: 154.455px 263.6px 0px;" class="animable"><g id="elp0khg91k87p"><g style="opacity: 0.2; transform-origin: 151.185px 267.775px 0px;" class="animable"><polygon points="210.9 346.51 105.25 346.51 91.47 189.04 197.12 189.04 210.9 346.51" id="elxe82pvrczhb" style="transform-origin: 151.185px 267.775px 0px;" class="animable"></polygon></g></g><polygon points="217.44 338.16 111.79 338.16 98.02 180.69 203.66 180.69 217.44 338.16" style="fill: rgb(64, 123, 255); transform-origin: 157.73px 259.425px 0px;" id="elt59ea7rkd28" class="animable"></polygon><g id="elx3bl6y66u9"><g style="opacity: 0.1; transform-origin: 157.73px 259.425px 0px;" class="animable"><polygon points="217.44 338.16 111.79 338.16 98.02 180.69 203.66 180.69 217.44 338.16" style="fill: rgb(255, 255, 255); transform-origin: 157.73px 259.425px 0px;" id="elcunpv38kjdh" class="animable"></polygon></g></g><polygon points="155.29 225.15 166.43 212.56 172.23 229.59 188.7 224.82 185.41 241.73 202.8 246.05 191.3 258.31 204.94 270.56 188.31 274.88 194.56 291.79 177.26 287.02 174.43 304.05 161.09 291.46 149.95 304.05 144.15 287.02 127.68 291.79 130.97 274.88 113.58 270.56 125.09 258.31 111.44 246.05 128.07 241.73 121.82 224.82 139.13 229.59 141.95 212.56 155.29 225.15" style="fill: rgb(245, 245, 245); transform-origin: 158.19px 258.305px 0px;" id="elgf3zlyvym19" class="animable"></polygon><path d="M146.4,249.28a4.1,4.1,0,0,1,1.33,3.54,5.22,5.22,0,0,1-.91,2.62,5.56,5.56,0,0,1-2.32,1.88,8.52,8.52,0,0,1-3.67.71,11.73,11.73,0,0,1-3.24-.44,7.7,7.7,0,0,1-2.64-1.24l1.64-2.79a6.29,6.29,0,0,0,2,1.05A7.53,7.53,0,0,0,141,255a4,4,0,0,0,2.2-.54,1.88,1.88,0,0,0,.89-1.5,1.56,1.56,0,0,0-.71-1.53,5.51,5.51,0,0,0-2.81-.52h-4l1.43-8.84h9.59l-.21,2.92h-6.56l-.45,3h1.28Q144.91,248,146.4,249.28Z" style="fill: rgb(64, 123, 255); transform-origin: 141.355px 250.052px 0px;" id="el09kt571kt67x" class="animable"></path><path d="M152.16,257.07a5.91,5.91,0,0,1-2.19-2.8,9.78,9.78,0,0,1-.55-4.36,10.7,10.7,0,0,1,1.17-4.37,7.25,7.25,0,0,1,2.59-2.8,6.75,6.75,0,0,1,3.55-1,6.06,6.06,0,0,1,3.41,1,5.91,5.91,0,0,1,2.19,2.8,9.82,9.82,0,0,1,.56,4.37,10.65,10.65,0,0,1-1.18,4.36,7.17,7.17,0,0,1-2.59,2.8,6.73,6.73,0,0,1-3.55,1A6.08,6.08,0,0,1,152.16,257.07Zm6-3.35a7.48,7.48,0,0,0,1.09-3.81,6.74,6.74,0,0,0-.55-3.82,2.38,2.38,0,0,0-2.17-1.24,2.78,2.78,0,0,0-2.32,1.24,7.29,7.29,0,0,0-1.09,3.82,6.72,6.72,0,0,0,.55,3.81,2.33,2.33,0,0,0,2.14,1.24A2.79,2.79,0,0,0,158.14,253.72Z" style="fill: rgb(64, 123, 255); transform-origin: 156.154px 249.905px 0px;" id="elqsg33ciu0o" class="animable"></path><path d="M165.52,249.36a4.24,4.24,0,0,1-.87-3.16,4.79,4.79,0,0,1,1.31-3.15,3.94,3.94,0,0,1,2.91-1.18,3.36,3.36,0,0,1,2.72,1.18,4.2,4.2,0,0,1,.85,3.15,4.78,4.78,0,0,1-1.3,3.16,3.91,3.91,0,0,1-2.89,1.17A3.41,3.41,0,0,1,165.52,249.36Zm4.11-1.29a3.51,3.51,0,0,0,.57-1.87,3.12,3.12,0,0,0-.31-1.86,1.28,1.28,0,0,0-1.15-.63,1.5,1.5,0,0,0-1.24.64,3.38,3.38,0,0,0-.58,1.85,3,3,0,0,0,.32,1.85,1.27,1.27,0,0,0,1.14.64A1.52,1.52,0,0,0,169.63,248.07Zm8.59-6h2.67L169,257.76h-2.67Zm-1.8,15.37a3.31,3.31,0,0,1-1.28-1.52,4.92,4.92,0,0,1-.33-2.29,5.38,5.38,0,0,1,.66-2.29,3.93,3.93,0,0,1,3.53-2,3.4,3.4,0,0,1,2.74,1.18,4.16,4.16,0,0,1,.86,3.15,4.74,4.74,0,0,1-1.31,3.15,3.91,3.91,0,0,1-2.9,1.18A3.64,3.64,0,0,1,176.42,257.42Zm3.35-2a3.46,3.46,0,0,0,.57-1.85,3.18,3.18,0,0,0-.31-1.85,1.27,1.27,0,0,0-1.16-.64,1.51,1.51,0,0,0-1.23.63,3.39,3.39,0,0,0-.58,1.86,3,3,0,0,0,.32,1.86,1.27,1.27,0,0,0,1.14.63A1.49,1.49,0,0,0,179.77,255.46Z" style="fill: rgb(64, 123, 255); transform-origin: 173.627px 249.934px 0px;" id="eli9lbegzexq" class="animable"></path><path d="M138.43,280.17a7,7,0,0,1-2.87-2.9,7.55,7.55,0,0,1-.82-4.17,8.38,8.38,0,0,1,1.41-4.16,8.63,8.63,0,0,1,3.28-2.91,9.63,9.63,0,0,1,4.48-1,8.7,8.7,0,0,1,4.33,1,7.18,7.18,0,0,1,2.87,2.91,7.5,7.5,0,0,1,.83,4.16,8.46,8.46,0,0,1-1.42,4.17,8.83,8.83,0,0,1-3.28,2.9,9.49,9.49,0,0,1-4.48,1.06A8.63,8.63,0,0,1,138.43,280.17Zm7.11-2.68a5,5,0,0,0,1.89-1.78,5.47,5.47,0,0,0,.82-2.61,5,5,0,0,0-.45-2.6,4.17,4.17,0,0,0-1.64-1.79,4.81,4.81,0,0,0-2.47-.64,5.27,5.27,0,0,0-2.55.64,5.15,5.15,0,0,0-1.89,1.79,5.44,5.44,0,0,0-.83,2.6,5,5,0,0,0,.46,2.61,4.07,4.07,0,0,0,1.63,1.78,4.71,4.71,0,0,0,2.47.64A5.2,5.2,0,0,0,145.54,277.49Z" style="fill: rgb(64, 123, 255); transform-origin: 143.339px 273.129px 0px;" id="el1uxzqiuff04" class="animable"></path><path d="M158.66,268.16l-.29,4.16h7.27l-.21,2.92h-7.27l-.41,5.72h-3.63l1.11-15.72h11.88l-.21,2.92Z" style="fill: rgb(64, 123, 255); transform-origin: 160.615px 273.1px 0px;" id="eldzzwzpv43m8" class="animable"></path><path d="M173,268.16l-.3,4.16H180l-.21,2.92h-7.27L172.1,281h-3.64l1.12-15.72h11.87l-.2,2.92Z" style="fill: rgb(64, 123, 255); transform-origin: 174.955px 273.14px 0px;" id="elzrnz2evl40l" class="animable"></path><polygon points="204.59 191.23 98.92 191.23 98 180.69 203.66 180.69 204.59 191.23" style="fill: rgb(38, 50, 56); transform-origin: 151.295px 185.96px 0px;" id="el5c4k2fb8rf7" class="animable"></polygon><path d="M112.89,186a2.93,2.93,0,0,1-3,3.25,3.62,3.62,0,0,1-3.53-3.25,2.94,2.94,0,0,1,3-3.26A3.62,3.62,0,0,1,112.89,186Z" style="fill: rgb(255, 255, 255); transform-origin: 109.625px 185.995px 0px;" id="eleyz6s1uvt4" class="animable"></path><path d="M122.64,186a2.93,2.93,0,0,1-3,3.25,3.63,3.63,0,0,1-3.54-3.25,2.94,2.94,0,0,1,3-3.26A3.63,3.63,0,0,1,122.64,186Z" style="fill: rgb(255, 255, 255); transform-origin: 119.37px 185.995px 0px;" id="elxapaxo6vd3q" class="animable"></path><path d="M132.39,186a2.93,2.93,0,0,1-3,3.25,3.62,3.62,0,0,1-3.54-3.25,2.94,2.94,0,0,1,3-3.26A3.63,3.63,0,0,1,132.39,186Z" style="fill: rgb(255, 255, 255); transform-origin: 129.12px 185.995px 0px;" id="elkzgzcfkt3bo" class="animable"></path></g><g id="freepik--ads-1--inject-1" style="transform-origin: 166.605px 120.855px 0px;" class="animable"><g id="elfypg7gwqgau"><polygon points="240.86 168.02 89.87 168.02 87.81 144.4 238.8 144.4 240.86 168.02" style="opacity: 0.2; transform-origin: 164.335px 156.21px 0px;" class="animable"></polygon></g><polygon points="245.96 161.9 94.96 161.9 87.25 73.69 238.25 73.69 245.96 161.9" style="fill: rgb(64, 123, 255); transform-origin: 166.605px 117.795px 0px;" id="ellxbtnbfghzp" class="animable"></polygon><g id="elf1k6xosmp48"><polygon points="245.96 161.9 94.96 161.9 87.25 73.69 238.25 73.69 245.96 161.9" style="fill: rgb(255, 255, 255); opacity: 0.1; transform-origin: 166.605px 117.795px 0px;" class="animable"></polygon></g><polygon points="238.86 80.75 87.87 80.75 87.25 73.69 238.25 73.69 238.86 80.75" style="fill: rgb(38, 50, 56); transform-origin: 163.055px 77.22px 0px;" id="el4a19tbx3e86" class="animable"></polygon><path d="M97.25,77.27a2,2,0,0,1-2,2.18,2.42,2.42,0,0,1-2.37-2.18,2,2,0,0,1,2-2.18A2.43,2.43,0,0,1,97.25,77.27Z" style="fill: rgb(255, 255, 255); transform-origin: 95.065px 77.27px 0px;" id="eld0nlhug14eu" class="animable"></path><path d="M103.78,77.27a2,2,0,0,1-2,2.18,2.42,2.42,0,0,1-2.37-2.18,2,2,0,0,1,2-2.18A2.41,2.41,0,0,1,103.78,77.27Z" style="fill: rgb(255, 255, 255); transform-origin: 101.595px 77.27px 0px;" id="elilm2tagtqt" class="animable"></path><path d="M110.32,77.27a2,2,0,0,1-2,2.18A2.41,2.41,0,0,1,106,77.27a2,2,0,0,1,2-2.18A2.42,2.42,0,0,1,110.32,77.27Z" style="fill: rgb(255, 255, 255); transform-origin: 108.16px 77.27px 0px;" id="elwoo5blq0qyf" class="animable"></path><polygon points="197.44 93.89 203.49 87.05 206.64 96.3 215.59 93.71 213.8 102.89 223.25 105.24 217 111.9 224.41 118.56 215.38 120.9 218.77 130.09 209.37 127.5 207.84 136.75 200.59 129.91 194.54 136.75 191.39 127.5 182.44 130.09 184.23 120.9 174.78 118.56 181.03 111.9 173.62 105.24 182.65 102.89 179.26 93.71 188.66 96.3 190.19 87.05 197.44 93.89" style="fill: rgb(245, 245, 245); transform-origin: 199.015px 111.9px 0px;" id="elj75yaj1dt2" class="animable"></polygon><path d="M193.14,112.1h1.6l.23,2.65a4.47,4.47,0,0,1-2.62.81,3.67,3.67,0,0,1-3.81-3.32,3,3,0,0,1,3.27-3.33,3.79,3.79,0,0,1,2.89,1.17l-1.06,1a2.19,2.19,0,0,0-1.61-.71,1.56,1.56,0,0,0-1.67,1.83,1.92,1.92,0,0,0,2,1.82,2.13,2.13,0,0,0,1-.21Z" style="fill: rgb(64, 123, 255); transform-origin: 191.745px 112.23px 0px;" id="elvioj9tzyd2f" class="animable"></path><path d="M201.19,114l.13,1.39h-5.14l-.56-6.39h5l.12,1.4h-3.23l.1,1.07h2.84l.12,1.36h-2.84l.1,1.17Z" style="fill: rgb(64, 123, 255); transform-origin: 198.47px 112.195px 0px;" id="eld20vw1ypaoc" class="animable"></path><path d="M203.25,110.47h-2l-.13-1.43h5.73l.12,1.43h-1.95l.43,5h-1.81Z" style="fill: rgb(64, 123, 255); transform-origin: 204.045px 112.255px 0px;" id="eluxyu1ggd6vb" class="animable"></path><path d="M202.45,122.38l.12,1.43h-5l-.1-1.13,2.19-2.24c.47-.47.52-.77.5-1s-.33-.66-.88-.66a1.18,1.18,0,0,0-1.09.62l-1.41-.75a2.67,2.67,0,0,1,2.54-1.33c1.47,0,2.55.76,2.65,1.94a2.34,2.34,0,0,1-.91,2L200,122.38Z" style="fill: rgb(64, 123, 255); transform-origin: 199.675px 120.56px 0px;" id="elrd59jcqsdnh" class="animable"></path><path d="M193.31,105.16c.08.86-.58,1.36-1.91,1.36h-2.66l-.43-4.93h2.52c1.3,0,2,.52,2,1.28a1,1,0,0,1-.56,1.08A1.36,1.36,0,0,1,193.31,105.16Zm-3.53-2.57.08,1h1q.7,0,.66-.48c0-.31-.28-.47-.74-.47Zm2.11,2.42c0-.34-.29-.5-.77-.5H190l.08,1h1.17C191.68,105.51,191.92,105.35,191.89,105Z" style="fill: rgb(64, 123, 255); transform-origin: 190.813px 104.055px 0px;" id="elrndsw8kcy99" class="animable"></path><path d="M193.92,104.32l-.24-2.73h1.4l.23,2.69c.07.84.46,1.18,1,1.18s.9-.34.83-1.18l-.24-2.69h1.37l.24,2.73a1.9,1.9,0,0,1-2.11,2.29A2.32,2.32,0,0,1,193.92,104.32Z" style="fill: rgb(64, 123, 255); transform-origin: 196.117px 104.109px 0px;" id="eluwircz1mlkj" class="animable"></path><path d="M202.1,104.75l.16,1.77h-1.4l-.15-1.79-2.16-3.14H200l1.34,2,1-2h1.35Z" style="fill: rgb(64, 123, 255); transform-origin: 201.12px 104.055px 0px;" id="elq4i92yitpm" class="animable"></path><path d="M208,101.59l.43,4.93H207l-.33-3.86h-.92l-.09-1.07Z" style="fill: rgb(64, 123, 255); transform-origin: 207.045px 104.055px 0px;" id="ell8nss8t1k5" class="animable"></path><path d="M143.13,118.4l-1-2.24c-11.37.52-13-3.78-13.26-5.15-.44-2.54,1.65-4.85,4.66-5.15,4.15-.43,7.27,3.32,8.9,5.79a12.72,12.72,0,0,1,9.06-4.74h0a4.87,4.87,0,0,1,5,3.42,3.61,3.61,0,0,1-.5,3.69c-2.39,3-10.1,2.41-12.43,2.17Zm1-4.55c3.5.31,8.52.08,9.8-1.52.2-.25.41-.51.14-1.33a2.11,2.11,0,0,0-2.36-1.55h0A10.31,10.31,0,0,0,144.08,113.85Zm-9.73-5.48a2.55,2.55,0,0,0-.39,0c-1.71.17-2.8,1.41-2.63,2.41s2.47,3,9.51,2.85C139.82,111.89,137.38,108.37,134.35,108.37Z" style="fill: rgb(38, 50, 56); transform-origin: 142.798px 112.113px 0px;" id="el9t1j1busz68" class="animable"></path><polygon points="170.33 148.87 120.77 148.87 117.79 114.82 167.35 114.82 170.33 148.87" style="fill: rgb(64, 123, 255); transform-origin: 144.06px 131.845px 0px;" id="elgdp1i2ohm68" class="animable"></polygon><g id="el9iu1y9bdf4s"><polygon points="170.33 148.87 120.77 148.87 117.79 114.82 167.35 114.82 170.33 148.87" style="fill: rgb(255, 255, 255); opacity: 0.1; transform-origin: 144.06px 131.845px 0px;" class="animable"></polygon></g><g id="el4genuhxutl3"><polygon points="170.33 148.87 120.77 148.87 118.82 126.59 168.38 126.59 170.33 148.87" style="opacity: 0.2; isolation: isolate; transform-origin: 144.575px 137.73px 0px;" class="animable"></polygon></g><polygon points="154.84 114.82 150.82 114.82 153.8 148.87 157.82 148.87 154.84 114.82" style="fill: rgb(38, 50, 56); transform-origin: 154.32px 131.845px 0px;" id="elzyed0rd64pc" class="animable"></polygon><polygon points="130.68 148.87 127.73 148.87 124.75 114.82 127.71 114.82 130.68 148.87" style="fill: rgb(38, 50, 56); transform-origin: 127.715px 131.845px 0px;" id="elzxrqauq69ol" class="animable"></polygon><g id="el7ar6lbdfwin"><polygon points="140.46 148.87 120.77 148.87 117.79 114.82 137.48 114.82 140.46 148.87" style="opacity: 0.2; isolation: isolate; transform-origin: 129.125px 131.845px 0px;" class="animable"></polygon></g><path d="M184.61,126.76c-1.55.17-6.69.56-8.67-1.47a2.75,2.75,0,0,1-.77-2.49,2.67,2.67,0,0,1,3-2.32h0a10.48,10.48,0,0,1,6.69,3.21c.81-1.68,2.48-4.21,5.33-3.92,2.08.2,3.77,1.77,3.77,3.49,0,.92-.61,3.83-8.36,3.48l-.45,1.52Zm-6.32-4.59h0c-.85,0-1.29.28-1.41,1.06a.87.87,0,0,0,.25.91c1.05,1.08,4.48,1.23,6.81,1A8.65,8.65,0,0,0,178.29,122.17Zm7.82,2.87c4.78.12,6.09-1.17,6.09-1.93s-.88-1.51-2.06-1.63h-.27C187.82,121.47,186.59,123.85,186.11,125Z" style="fill: rgb(38, 50, 56); transform-origin: 184.539px 124.004px 0px;" id="el037o56kaozjd" class="animable"></path><polygon points="170.33 148.87 203.85 148.87 201.84 125.84 168.31 125.84 170.33 148.87" style="fill: rgb(64, 123, 255); transform-origin: 186.08px 137.355px 0px;" id="el7pfbjegp01t" class="animable"></polygon><g id="elfct4fbj5f3"><polygon points="170.33 148.87 203.85 148.87 201.84 125.84 168.31 125.84 170.33 148.87" style="fill: rgb(255, 255, 255); opacity: 0.6; transform-origin: 186.08px 137.355px 0px;" class="animable"></polygon></g><g id="eluz2dtnxz5x"><polygon points="170.33 148.87 203.85 148.87 202.54 133.79 169.01 133.79 170.33 148.87" style="opacity: 0.1; isolation: isolate; transform-origin: 186.43px 141.33px 0px;" class="animable"></polygon></g><g id="elakkf5ifrtb4"><polygon points="190.53 148.87 203.85 148.87 201.84 125.84 188.52 125.84 190.53 148.87" style="fill: rgb(255, 255, 255); opacity: 0.2; transform-origin: 196.185px 137.355px 0px;" class="animable"></polygon></g><polygon points="176.77 125.84 179.5 125.84 181.51 148.87 178.79 148.87 176.77 125.84" style="fill: rgb(38, 50, 56); transform-origin: 179.14px 137.355px 0px;" id="elxr1nrchi8un" class="animable"></polygon><polygon points="197.15 148.87 199.15 148.87 197.13 125.84 195.13 125.84 197.15 148.87" style="fill: rgb(38, 50, 56); transform-origin: 197.14px 137.355px 0px;" id="el6gypa1w1sbk" class="animable"></polygon></g><g id="freepik--Character--inject-1" style="transform-origin: 365.853px 340.937px 0px;" class="animable"><polygon points="348.3 394.71 341.09 387.63 332.08 407.55 337.36 410.98 348.3 394.71" style="fill: rgb(255, 139, 123); transform-origin: 340.19px 399.305px 0px;" id="elnu940065w5" class="animable"></polygon><g id="ela0f54fjzpcf"><polygon points="346.85 396.84 343.31 402.11 336.11 398.61 339.81 390.43 346.85 396.84" style="opacity: 0.2; isolation: isolate; transform-origin: 341.48px 396.27px 0px;" class="animable"></polygon></g><path d="M386,415.6h-.15a10,10,0,0,1-7.1-3.77c-7.31-9.32-11.56-23.43-16.21-32.69a24.14,24.14,0,0,0-1.85-3.16,19.48,19.48,0,0,1-.65,2.16,64,64,0,0,1-13.15,21.74l-9.26-6.17s11.57-28.48,12.82-31.28c10.12-22.79,34.51,4.89,43.56,21.15a56,56,0,0,1,3.24,6.66l21.64.71C420.45,403.37,414.9,417.87,386,415.6Z" style="fill: rgb(64, 123, 255); transform-origin: 378.379px 384.813px 0px;" id="elsc4x1il1kz" class="animable"></path><g id="el53vttp5ah1q"><g style="opacity: 0.4; isolation: isolate; transform-origin: 378.414px 384.808px 0px;" class="animable"><path d="M386,415.6h0a10.24,10.24,0,0,1-7.28-3.86c-7.26-9.33-11.5-23.38-16.14-32.61a24.14,24.14,0,0,0-1.85-3.16,19.48,19.48,0,0,1-.65,2.16,64,64,0,0,1-13.15,21.74l-9.26-6.17s11.57-28.48,12.82-31.28c10.12-22.79,34.51,4.89,43.56,21.15a56,56,0,0,1,3.24,6.66l21.64.71C420.45,403.37,414.9,417.87,386,415.6Z" id="elqr4bz8wp9nf" style="transform-origin: 378.414px 384.808px 0px;" class="animable"></path></g></g><polygon points="351.93 396.94 338.42 389.43 336.71 394.13 348.36 401.13 351.93 396.94" style="fill: rgb(38, 50, 56); transform-origin: 344.32px 395.28px 0px;" id="elxhnrxbbt2x" class="animable"></polygon><path d="M333,402c-3.13,1-6.7,1.94-14.27.63-1.68-.31-3.11,3.65.61,5.16s19.53,6.3,19.59,6.31a1.55,1.55,0,0,0,1.9-1.05l2.07-8.34a.79.79,0,0,0-.5-.91l-7.74-1.75A2.49,2.49,0,0,0,333,402Z" style="fill: rgb(38, 50, 56); transform-origin: 329.958px 408.019px 0px;" id="elj7sditjng9q" class="animable"></path><path d="M332.7,402.39a.23.23,0,0,0,0-.26.22.22,0,0,0-.23-.13c-.48.06-4.73.58-5.34,1.77a.72.72,0,0,0,0,.71,1.22,1.22,0,0,0,.95.69,3.53,3.53,0,0,0,2.26-.82A17.14,17.14,0,0,0,332.7,402.39Zm-4.84,1.26a12.34,12.34,0,0,1,4-1.11c-1.56,1.48-2.91,2.29-3.69,2.18a.81.81,0,0,1-.62-.45.3.3,0,0,1,0-.29.92.92,0,0,1,.31-.31Z" style="fill: rgb(64, 123, 255); transform-origin: 329.888px 403.584px 0px;" id="elq9ycxfrbjmf" class="animable"></path><path d="M332.77,402.28a.22.22,0,0,0,0-.22c-.07-.08-1.7-2.1-3.26-2.25a1.67,1.67,0,0,0-1.25.38c-.49.4-.5.8-.35,1,.46,1,3.49,1.44,4.72,1.22l.08-.05A.2.2,0,0,0,332.77,402.28Zm-4.19-1.83a1.21,1.21,0,0,1,.84-.21,5.22,5.22,0,0,1,2.66,1.76c-1.35.06-3.53-.42-3.81-1,0-.05-.09-.2.23-.47l.11-.07Z" style="fill: rgb(64, 123, 255); transform-origin: 330.312px 401.133px 0px;" id="elql5zvz6ol7k" class="animable"></path><path d="M389.21,416c-1.29-.1-2.64-.23-4-.38-29.53-3.25-78.37-17.73-84.3-34.44,0,0-7-20,18.23-15.19,7.65,1.46,21.12,4.36,33.24,7.81,5.26,1.47,24.29,9.35,25.28,11.12l16.93.75,24.74,1.11a34,34,0,0,1,1.23,5.73C422,404.3,416.72,418.12,389.21,416Z" style="fill: rgb(64, 123, 255); transform-origin: 360.397px 390.73px 0px;" id="el0r0bcpxai4tg" class="animable"></path><g id="elmxhriz9ahff"><g style="opacity: 0.3; transform-origin: 360.397px 390.73px 0px;" class="animable"><path d="M389.21,416c-1.29-.1-2.64-.23-4-.38-29.53-3.25-78.37-17.73-84.3-34.44,0,0-7-20,18.23-15.19,7.65,1.46,21.12,4.36,33.24,7.81,5.26,1.47,24.29,9.35,25.28,11.12l16.93.75,24.74,1.11a34,34,0,0,1,1.23,5.73C422,404.3,416.72,418.12,389.21,416Z" id="el9crq8ydcuhp" style="transform-origin: 360.397px 390.73px 0px;" class="animable"></path></g></g><g id="freepik--freepik--Character--inject-578--inject-1" style="transform-origin: 375.259px 330.286px 0px;" class="animable"><path d="M406.13,282c8.09,33.36,2.21,30.61.2,31.65.88,1.59,3.43,2.45,4.88,1.35a5.85,5.85,0,0,0,2-4.86c-.05-1.81-1.18-20.91-4-28a2.62,2.62,0,0,0-1.15-1.55C407.47,280.29,406,281.38,406.13,282Z" style="fill: rgb(38, 50, 56); transform-origin: 409.674px 298.017px 0px;" id="el8coltljz8ql" class="animable"></path><path d="M398.84,311.36c1.47,4.25,1.85,6.77-4.29,8.81,0,0-6.95,9.88,3,23.53a125.19,125.19,0,0,0,14.43-25c-4.25-3.4-3.85-11.67-3.24-17.38Z" style="fill: rgb(255, 139, 123); transform-origin: 402.085px 322.51px 0px;" id="el2tjyp49264x" class="animable"></path><path d="M388.69,321.08a9.27,9.27,0,0,1,5.29-3.89c3.72-1.08,17.89-.45,19.22.64A7.7,7.7,0,0,1,416,322Z" style="fill: rgb(38, 50, 56); transform-origin: 402.345px 319.315px 0px;" id="el40psswgptfj" class="animable"></path><g id="el9s1lv1iztpb"><path d="M415.71,339a54.86,54.86,0,0,0,4.88,9.64l7.18-4.73a25,25,0,0,0-2.3-3.8C422.3,336.15,418.61,336.85,415.71,339Z" style="opacity: 0.2; isolation: isolate; transform-origin: 421.74px 342.951px 0px;" class="animable"></path></g><path d="M415.8,359.15s.36-4.48.54-7.22.35-5.48.45-8.23.16-5.52.24-8.27c0-.73,0-1.48.05-2.22a6.32,6.32,0,0,1,6.06-6.24h0a6.31,6.31,0,0,1,6.55,6.88c-.38,4.32-.89,9.15-1,10.83-.2,2.88-.54,5.75-.88,8.64s-.82,5.76-1.37,8.65l-.24.92Z" style="fill: rgb(255, 139, 123); transform-origin: 422.758px 344.927px 0px;" id="elygeyp9y5ms9" class="animable"></path><path d="M387.84,363.23l-8.35-3.9a2.51,2.51,0,0,0-2.19,0l-7.69,4a2.46,2.46,0,0,0-1.29,1.73h0a2.48,2.48,0,0,0,2.3,3l7.39.4,11.11,2.12S392.9,365.6,387.84,363.23Z" style="fill: rgb(255, 139, 123); transform-origin: 379.37px 364.829px 0px;" id="ela0yu5d90xz9" class="animable"></path><path d="M416.66,357.82l-28.82,5.41s.31,7.83,1.28,7.32c.66-.34,17.46-.63,28.33-.78a9.49,9.49,0,0,0,9.35-9.26h0Z" style="fill: rgb(255, 139, 123); transform-origin: 407.32px 364.197px 0px;" id="el2lhq21lkqlf" class="animable"></path><path d="M415.34,328.93c-3.41,4.45-.66,17.65-.66,17.65l17-3.71s.32-15.85-3-18.78C424.9,320.75,418.84,324.31,415.34,328.93Z" style="fill: rgb(64, 123, 255); transform-origin: 422.66px 334.679px 0px;" id="elctqukwgw4si" class="animable"></path><g id="elb5ec8yp7k47"><g style="opacity: 0.1; transform-origin: 422.66px 334.679px 0px;" class="animable"><path d="M415.34,328.93c-3.41,4.45-.66,17.65-.66,17.65l17-3.71s.32-15.85-3-18.78C424.9,320.75,418.84,324.31,415.34,328.93Z" id="el9clx0jjqr9" style="transform-origin: 422.66px 334.679px 0px;" class="animable"></path></g></g><path d="M382,372.1h3.1a.57.57,0,0,0,.6-.54v-3a.57.57,0,0,0-.6-.54h-2.22a.59.59,0,0,0-.58.4l-.87,3A.55.55,0,0,0,382,372.1Z" style="fill: rgb(38, 50, 56); transform-origin: 383.557px 370.06px 0px;" id="eldu5kcs8g1tf" class="animable"></path><path d="M377.7,372.1h3.1a.57.57,0,0,0,.6-.54v-3a.57.57,0,0,0-.6-.54h-2.22a.59.59,0,0,0-.58.4l-.87,3A.55.55,0,0,0,377.7,372.1Z" style="fill: rgb(38, 50, 56); transform-origin: 379.257px 370.06px 0px;" id="elghuuoljzit4" class="animable"></path><path d="M373.41,372.1h3.11a.57.57,0,0,0,.59-.54v-3a.57.57,0,0,0-.59-.54h-2.23a.58.58,0,0,0-.57.4l-.88,3A.55.55,0,0,0,373.41,372.1Z" style="fill: rgb(38, 50, 56); transform-origin: 374.967px 370.06px 0px;" id="el9bauglrft09" class="animable"></path><path d="M369.12,372.1h3.11a.56.56,0,0,0,.59-.54v-3a.56.56,0,0,0-.59-.54H370a.58.58,0,0,0-.57.4l-.88,3A.55.55,0,0,0,369.12,372.1Z" style="fill: rgb(38, 50, 56); transform-origin: 370.677px 370.06px 0px;" id="eloni8dtjm8gl" class="animable"></path><path d="M364.84,372.1h3.1a.56.56,0,0,0,.59-.54v-3a.56.56,0,0,0-.59-.54h-2.23a.58.58,0,0,0-.57.4l-.88,3A.56.56,0,0,0,364.84,372.1Z" style="fill: rgb(38, 50, 56); transform-origin: 366.388px 370.06px 0px;" id="el3gby86ehdmw" class="animable"></path><path d="M360.55,372.1h3.1a.56.56,0,0,0,.59-.54v-3a.56.56,0,0,0-.59-.54h-2.23a.59.59,0,0,0-.57.4l-.87,3A.55.55,0,0,0,360.55,372.1Z" style="fill: rgb(38, 50, 56); transform-origin: 362.102px 370.06px 0px;" id="el0hjx246cv98k" class="animable"></path><path d="M356.26,372.1h3.1a.57.57,0,0,0,.6-.54v-3a.57.57,0,0,0-.6-.54h-2.23a.59.59,0,0,0-.57.4l-.87,3A.55.55,0,0,0,356.26,372.1Z" style="fill: rgb(38, 50, 56); transform-origin: 357.817px 370.06px 0px;" id="elhaq51q2xj7e" class="animable"></path><path d="M352,372.1h3.1a.57.57,0,0,0,.6-.54v-3a.57.57,0,0,0-.6-.54h-2.22a.59.59,0,0,0-.58.4l-.87,3A.55.55,0,0,0,352,372.1Z" style="fill: rgb(38, 50, 56); transform-origin: 353.557px 370.06px 0px;" id="elgjrblqj5bm8" class="animable"></path><path d="M347.68,372.1h3.11a.57.57,0,0,0,.59-.54v-3a.57.57,0,0,0-.59-.54h-2.23a.58.58,0,0,0-.57.4l-.88,3A.55.55,0,0,0,347.68,372.1Z" style="fill: rgb(38, 50, 56); transform-origin: 349.237px 370.06px 0px;" id="elyf51ia2ucqs" class="animable"></path><path d="M343.39,372.1h3.11a.56.56,0,0,0,.59-.54v-3a.56.56,0,0,0-.59-.54h-2.23a.58.58,0,0,0-.57.4l-.88,3A.55.55,0,0,0,343.39,372.1Z" style="fill: rgb(38, 50, 56); transform-origin: 344.947px 370.06px 0px;" id="elclhmop4kjt9" class="animable"></path><path d="M339.11,372.1h3.1a.56.56,0,0,0,.59-.54v-3a.56.56,0,0,0-.59-.54H340a.58.58,0,0,0-.57.4l-.88,3A.56.56,0,0,0,339.11,372.1Z" style="fill: rgb(38, 50, 56); transform-origin: 340.668px 370.06px 0px;" id="elqla8mit0ulh" class="animable"></path><path d="M334.82,372.1h3.1a.56.56,0,0,0,.59-.54v-3a.56.56,0,0,0-.59-.54h-2.23a.58.58,0,0,0-.57.4l-.87,3A.55.55,0,0,0,334.82,372.1Z" style="fill: rgb(38, 50, 56); transform-origin: 336.372px 370.06px 0px;" id="elujbu7h1m9xo" class="animable"></path><path d="M330.53,372.1h3.1a.57.57,0,0,0,.6-.54v-3a.57.57,0,0,0-.6-.54H331.4a.59.59,0,0,0-.57.4l-.87,3A.55.55,0,0,0,330.53,372.1Z" style="fill: rgb(38, 50, 56); transform-origin: 332.087px 370.06px 0px;" id="elyrs151jhpan" class="animable"></path><path d="M326.24,372.1h3.1a.57.57,0,0,0,.6-.54v-3a.57.57,0,0,0-.6-.54h-2.22a.59.59,0,0,0-.58.4l-.87,3A.55.55,0,0,0,326.24,372.1Z" style="fill: rgb(38, 50, 56); transform-origin: 327.797px 370.06px 0px;" id="eljvpa9fizhke" class="animable"></path><path d="M322,372.1h3.11a.57.57,0,0,0,.59-.54v-3a.57.57,0,0,0-.59-.54h-2.23a.57.57,0,0,0-.57.4l-.88,3A.55.55,0,0,0,322,372.1Z" style="fill: rgb(38, 50, 56); transform-origin: 323.557px 370.06px 0px;" id="elqmkg9u9kfed" class="animable"></path><path d="M318.83,372.43a2.49,2.49,0,0,0,2.58,2.36h64.21a2.48,2.48,0,0,0,2.58-2.36,2.23,2.23,0,0,0-.75-1.67,2.7,2.7,0,0,0-1.77-.69H321.41a3.21,3.21,0,0,0-.71.09A2.41,2.41,0,0,0,318.83,372.43Z" style="fill: rgb(38, 50, 56); transform-origin: 353.515px 372.431px 0px;" id="elp07w2p98x7q" class="animable"></path><g id="elaudp3fth9l5"><path d="M318.83,372.43a2.49,2.49,0,0,0,2.58,2.36h64.21a2.48,2.48,0,0,0,2.58-2.36,2.23,2.23,0,0,0-.75-1.67,2.7,2.7,0,0,0-1.77-.69H321.41a3.21,3.21,0,0,0-.71.09A2.41,2.41,0,0,0,318.83,372.43Z" style="fill: rgb(255, 255, 255); opacity: 0.2; transform-origin: 353.515px 372.431px 0px;" class="animable"></path></g><path d="M318.83,372.43a2.49,2.49,0,0,0,2.58,2.36h21.74a2.42,2.42,0,0,0,1.8-2.26,2.85,2.85,0,0,0,0-.42,2.26,2.26,0,0,0-.73-1.25,3.19,3.19,0,0,0-.55-.39l-.3-.13a2.72,2.72,0,0,0-1-.18H320.7A2.41,2.41,0,0,0,318.83,372.43Z" style="fill: rgb(38, 50, 56); transform-origin: 331.894px 372.476px 0px;" id="elnaxcrp0o22" class="animable"></path><path d="M393.33,319A132.53,132.53,0,0,1,412.25,320,111.46,111.46,0,0,1,423.88,322l.35.08a5.69,5.69,0,0,1,3.91,7c-8.51,29.84-9,40.05-9.29,56.06l-41.63-2.4c-.71-6.71,2.17-13.55,1.35-23.59-2.1-25.63-4.64-24.87-3.94-29.86C374,322.31,388.24,319.13,393.33,319Z" style="fill: rgb(64, 123, 255); transform-origin: 401.431px 352.058px 0px;" id="eljokd10huymh" class="animable"></path><path d="M388.93,289.89c-.5-.05-1,.54-1,1.3s.3,1.41.79,1.46,1-.51,1-1.31S389.42,289.93,388.93,289.89Z" style="fill: rgb(38, 50, 56); transform-origin: 388.825px 291.27px 0px;" id="elfw00hl0777o" class="animable"></path><path d="M387.36,289.27l1.78.68C388.18,290.78,387.36,289.27,387.36,289.27Z" style="fill: rgb(38, 50, 56); transform-origin: 388.25px 289.735px 0px;" id="eledaueqivevm" class="animable"></path><path d="M388.66,297.88a3.3,3.3,0,0,1-2.52-1.17,20,20,0,0,0,3.85-4Z" style="fill: rgb(160, 39, 36); transform-origin: 388.065px 295.295px 0px;" id="el4p0ny3frgw7" class="animable"></path><path d="M389.34,286.93a3.59,3.59,0,0,1,2.82,1.61l0,.08a.45.45,0,1,0,.74-.51,4.45,4.45,0,0,0-3.53-2.08.47.47,0,0,0-.49.42.46.46,0,0,0,.2.4A.42.42,0,0,0,389.34,286.93Z" style="fill: rgb(38, 50, 56); transform-origin: 390.937px 287.432px 0px;" id="elfrljgivi7d5" class="animable"></path><path d="M415.68,290.73C414.32,300,414,304,408.83,308.44a13.26,13.26,0,0,1-9.77,3.33H399a11.86,11.86,0,0,1-3.08-.68,13,13,0,0,1-2.44-1.23h0a11.39,11.39,0,0,1-5-8c-1.32-8.6,1.11-22.39,10.58-25.36a12.86,12.86,0,0,1,16.61,14.22Z" style="fill: rgb(255, 139, 123); transform-origin: 401.985px 293.849px 0px;" id="elqeqj1757li" class="animable"></path><path d="M405.33,309.57a2.79,2.79,0,0,0,3.53,0c3.62-2.93,11.59-10.12,12.7-17.58,1.44-9.67-2.42-15.87-9.55-17.8s-18.21-.27-21.72,5,0,6.25,6.47,14.9C395.35,300.32,402,306.81,405.33,309.57Z" style="fill: rgb(38, 50, 56); transform-origin: 405.381px 291.806px 0px;" id="eleaqtcqqhcbs" class="animable"></path><path d="M396.79,290.73c-2.3.45-3.25,3.64-3.17,5.69.09,2.29,1.86,3.89,3.85,2.53a6.86,6.86,0,0,0,2.85-4.42A3.08,3.08,0,0,0,396.79,290.73Z" style="fill: rgb(255, 139, 123); transform-origin: 397.016px 295.066px 0px;" id="elclv6in9ohr7" class="animable"></path><path d="M418.84,382.33l-41.57-2.39c-.41,0-.75.18-.73.44L376,383.8c0,.63.24.83.62.86l43.1,2.37c.47,0,.84-.25.7-.55l-.86-3.81A.74.74,0,0,0,418.84,382.33Z" style="fill: rgb(38, 50, 56); transform-origin: 398.225px 383.485px 0px;" id="ellzbxmbi2svc" class="animable"></path><path d="M414.14,386.82l-.25-4.88c0-.14.17-.22.39-.24l1.13.07a.42.42,0,0,1,.43.29l.24,4.86c0,.15-.17.23-.39.24l-1.13-.06A.37.37,0,0,1,414.14,386.82Z" style="fill: rgb(64, 123, 255); transform-origin: 414.985px 384.43px 0px;" id="eltd11hnqjlmt" class="animable"></path><path d="M380.3,384.81l.38-4.89a.49.49,0,0,1,.45-.36l1.09.1a.46.46,0,0,1,.38.39l-.33,4.89a.41.41,0,0,1-.43.29l-1.16-.09C380.46,385.1,380.29,385,380.3,384.81Z" style="fill: rgb(64, 123, 255); transform-origin: 381.45px 382.396px 0px;" id="elql93tkzkga" class="animable"></path><path d="M397.11,385.85l.09-5.15c0-.15.18-.21.41-.22l1.11.14c.23,0,.4.17.41.31l0,5.11c0,.14-.19.2-.41.2l-1.18-.07C397.29,386.14,397.1,386,397.11,385.85Z" style="fill: rgb(64, 123, 255); transform-origin: 398.12px 383.36px 0px;" id="elw57h52l5ju" class="animable"></path></g><path d="M374.73,356.43s0-4.66-.07-7.5-.1-5.69-.24-8.54-.31-5.72-.46-8.57c0-.76-.09-1.53-.14-2.3a6.56,6.56,0,0,1,5.73-7h0a6.55,6.55,0,0,1,7.36,6.54c0,4.51-.14,9.54-.12,11.29,0,3-.06,6-.16,9s-.36,6-.68,9.05l-.17,1Z" style="fill: rgb(255, 139, 123); transform-origin: 380.356px 340.935px 0px;" id="elidf87j5ig8" class="animable"></path><path d="M346.57,362.51l-7.69-2.85a2.24,2.24,0,0,0-1.95.2L330.4,364a2.21,2.21,0,0,0-1,1.63h0a2.21,2.21,0,0,0,2.26,2.46l6.59-.19,10,1.07S351.25,364.24,346.57,362.51Z" style="fill: rgb(255, 139, 123); transform-origin: 339.291px 364.247px 0px;" id="elk4dslq8rqxo" class="animable"></path><path d="M375.49,355l-29.31,8.06s1.11,6.48,2.08,5.87c.65-.42,17.86-.57,29.08-1.66a9.83,9.83,0,0,0,8.87-10.36h0Z" style="fill: rgb(255, 139, 123); transform-origin: 366.204px 361.985px 0px;" id="elz7wsz9bj3j" class="animable"></path><path d="M378.24,322.23c-6.34,2.52-8.37,14.76-5.28,21.39,12.6-2.55,17.23.17,17.09.5a29.66,29.66,0,0,0,.45-9A15.55,15.55,0,0,0,386.41,325C383.77,322.34,381.64,320.68,378.24,322.23Z" style="fill: rgb(38, 50, 56); transform-origin: 381.097px 332.876px 0px;" id="eloyn211wruhc" class="animable"></path><path d="M378.24,322.23c-6.34,2.52-8.37,14.76-5.28,21.39,12.6-2.55,17.23.17,17.09.5a29.66,29.66,0,0,0,.45-9A15.55,15.55,0,0,0,386.41,325C383.77,322.34,381.64,320.68,378.24,322.23Z" style="fill: rgb(64, 123, 255); transform-origin: 381.097px 332.876px 0px;" id="elwevc2e8rko" class="animable"></path><g id="elmw1fv95robi"><path d="M399,311.77a11.86,11.86,0,0,1-3.08-.68,13,13,0,0,1-2.44-1.23h0l0-.07a5.78,5.78,0,0,0,3.63-.09,1.37,1.37,0,0,1,1-.14c.35.15.48.57.57.95S398.88,311.35,399,311.77Z" style="opacity: 0.2; isolation: isolate; transform-origin: 396.24px 310.646px 0px;" class="animable"></path></g><path d="M390.57,281.38c8.09,33.37,2.21,30.62.2,31.66.88,1.59,3.43,2.44,4.89,1.35a5.85,5.85,0,0,0,2-4.86c0-1.82-1.18-20.91-4-28a2.58,2.58,0,0,0-1.15-1.55C391.91,279.66,390.42,280.74,390.57,281.38Z" style="fill: rgb(38, 50, 56); transform-origin: 394.118px 297.401px 0px;" id="elwdqrk6zdj3h" class="animable"></path><path d="M421.53,285.09c-1.37,1.38-3.65.92-5.5.34A21.12,21.12,0,0,1,410.4,283a7.78,7.78,0,0,1-3.43-4.91,6.05,6.05,0,0,1,4.72-6.71,6.14,6.14,0,0,1,4.33-5.54,6.37,6.37,0,0,1,6.72,2.52c6.92,1.48,5,8.31,4.77,9.2a2.38,2.38,0,0,1-2,1.75C425.86,281.36,423.61,284.77,421.53,285.09Z" style="fill: rgb(38, 50, 56); transform-origin: 417.422px 275.827px 0px;" id="elibotnhjajt" class="animable"></path></g><defs>     <filter id="active" height="200%">         <feMorphology in="SourceAlpha" result="DILATED" operator="dilate" radius="2"></feMorphology>                <feFlood flood-color="#32DFEC" flood-opacity="1" result="PINK"></feFlood>        <feComposite in="PINK" in2="DILATED" operator="in" result="OUTLINE"></feComposite>        <feMerge>            <feMergeNode in="OUTLINE"></feMergeNode>            <feMergeNode in="SourceGraphic"></feMergeNode>        </feMerge>    </filter>    <filter id="hover" height="200%">        <feMorphology in="SourceAlpha" result="DILATED" operator="dilate" radius="2"></feMorphology>                <feFlood flood-color="#ff0000" flood-opacity="0.5" result="PINK"></feFlood>        <feComposite in="PINK" in2="DILATED" operator="in" result="OUTLINE"></feComposite>        <feMerge>            <feMergeNode in="OUTLINE"></feMergeNode>            <feMergeNode in="SourceGraphic"></feMergeNode>        </feMerge>            <feColorMatrix type="matrix" values="0   0   0   0   0                0   1   0   0   0                0   0   0   0   0                0   0   0   1   0 "></feColorMatrix>    </filter></defs></svg>