<?xml version="1.0" encoding="utf-8"?><svg xmlns="http://www.w3.org/2000/svg" xmlns:xlink="http://www.w3.org/1999/xlink" width="624" height="1286" preserveAspectRatio="xMidYMid" viewBox="0 0 624 1286" style="z-index:1;display:block;background-color:rgb(241, 242, 243);animation-play-state:paused" ><g transform="translate(312,643) scale(1,1) translate(-312,-643)" style="animation-play-state:paused" ><g transform="translate(718.4557383660551,327.72061160090897) scale(100)" opacity="0.33999999999999997" style="opacity:0.34;animation-play-state:paused" ><path d="M4.732480000000001 0 C4.732480000000001 1.1316799999999998 5.377061451232525 1.7976963710452263 4.811221451232526 2.77776 S3.3463036289547743 3.53260790290178 2.366240000000001 4.09844790290178 S1.1316800000000002 5.5555200000000005 3.401774892799552e-16 5.5555200000000005 S-1.386176371045226 4.664287902901781 -2.3662399999999995 4.098447902901781 S-4.245381451232523 3.757823628954775 -4.811221451232524 2.777760000000002 S-4.732480000000001 1.1316800000000005 -4.732480000000001 5.795616484028867e-16 S-5.377061451232525 -1.7976963710452254 -4.811221451232526 -2.777759999999999 S-3.3463036289547756 -3.5326079029017787 -2.3662400000000026 -4.098447902901779 S-1.131680000000001 -5.5555200000000005 -1.0205324678398655e-15 -5.5555200000000005 S1.3861763710452233 -4.664287902901782 2.3662399999999972 -4.098447902901783 S4.2453814512325225 -3.757823628954776 4.811221451232523 -2.777760000000003 S4.732480000000001 -1.131680000000001 4.732480000000001 -1.1591232968057734e-15" fill="#0045f7" stroke-width="0" transform="matrix(1,0,0,1,0,0)" style="animation-play-state:paused" ></path></g>
<g transform="translate(799.7468860392662,264.6647339210908) scale(100)" opacity="0.33999999999999997" style="opacity:0.34;animation-play-state:paused" ><path d="M5.678976 0 C5.678976 1.3580159999999997 6.45247374147903 2.1572356452542714 5.77346574147903 3.3333119999999994 S4.015564354745728 4.239129483482136 2.8394880000000002 4.918137483482136 S1.3580160000000001 6.666624 4.082129871359462e-16 6.666624 S-1.6634116452542704 5.5971454834821355 -2.8394879999999985 4.918137483482136 S-5.094457741479028 4.50938835474573 -5.773465741479028 3.333312000000002 S-5.678976 1.3580160000000003 -5.678976 6.954739780834639e-16 S-6.45247374147903 -2.1572356452542696 -5.77346574147903 -3.333311999999998 S-4.01556435474573 -4.239129483482134 -2.8394880000000025 -4.918137483482134 S-1.358016000000001 -6.666624 -1.2246389614078386e-15 -6.666624 S1.6634116452542673 -5.597145483482137 2.839487999999996 -4.9181374834821385 S5.094457741479027 -4.509388354745731 5.773465741479027 -3.333312000000003 S5.678976 -1.358016000000001 5.678976 -1.3909479561669278e-15" fill="#0046fb" stroke-width="0" transform="matrix(1,0,0,1,0,0)" style="animation-play-state:paused" ></path></g>
<g transform="translate(994.8456404549726,113.33062748952716) scale(100)" opacity="0.33999999999999997" style="opacity:0.34;animation-play-state:paused" ><path d="M7.9505664 0 C7.9505664 1.9012223999999995 9.033463238070642 3.02012990335598 8.082852038070643 4.666636799999999 S5.62179009664402 5.93478127687499 3.9752832000000007 6.88539247687499 S1.9012224000000002 9.3332736 5.714981819903247e-16 9.3332736 S-2.328776303355979 7.83600367687499 -3.975283199999998 6.885392476874991 S-7.132240838070638 6.313143696644022 -8.082852038070639 4.666636800000003 S-7.9505664 1.9012224000000004 -7.9505664 9.736635693168495e-16 S-9.033463238070642 -3.020129903355978 -8.082852038070643 -4.666636799999997 S-5.6217900966440215 -5.934781276874987 -3.9752832000000033 -6.885392476874988 S-1.9012224000000013 -9.3332736 -1.714494545970974e-15 -9.3332736 S2.3287763033559745 -7.836003676874991 3.9752831999999945 -6.885392476874993 S7.132240838070638 -6.313143696644023 8.082852038070639 -4.6666368000000045 S7.950566399999999 -1.9012224000000015 7.9505664 -1.947327138633699e-15" fill="#0047ff" stroke-width="0" transform="matrix(1,0,0,1,0,0)" style="animation-play-state:paused" ></path></g></g></svg>